<svg width="100" height="64" viewBox="0 0 100 64" fill="none" xmlns="http://www.w3.org/2000/svg">
<g clip-path="url(#clip0_646_5100)">
<path d="M8.288 17L6.048 13.85C5.796 13.878 5.53467 13.892 5.264 13.892H2.632V17H1.596V7.2H5.264C6.51467 7.2 7.49467 7.49867 8.204 8.096C8.91333 8.69333 9.268 9.51467 9.268 10.56C9.268 11.3253 9.072 11.974 8.68 12.506C8.29733 13.0287 7.74667 13.4067 7.028 13.64L9.422 17H8.288ZM5.236 13.01C6.20667 13.01 6.94867 12.7953 7.462 12.366C7.97533 11.9367 8.232 11.3347 8.232 10.56C8.232 9.76667 7.97533 9.16 7.462 8.74C6.94867 8.31067 6.20667 8.096 5.236 8.096H2.632V13.01H5.236ZM18.4752 13.626H12.3152C12.3712 14.3913 12.6652 15.012 13.1972 15.488C13.7292 15.9547 14.4012 16.188 15.2132 16.188C15.6705 16.188 16.0905 16.1087 16.4732 15.95C16.8559 15.782 17.1872 15.5393 17.4672 15.222L18.0272 15.866C17.7005 16.258 17.2899 16.5567 16.7952 16.762C16.3099 16.9673 15.7732 17.07 15.1852 17.07C14.4292 17.07 13.7572 16.9113 13.1692 16.594C12.5905 16.2673 12.1379 15.8193 11.8112 15.25C11.4845 14.6807 11.3212 14.0367 11.3212 13.318C11.3212 12.5993 11.4752 11.9553 11.7832 11.386C12.1005 10.8167 12.5299 10.3733 13.0712 10.056C13.6219 9.73867 14.2379 9.58 14.9192 9.58C15.6005 9.58 16.2119 9.73867 16.7532 10.056C17.2945 10.3733 17.7192 10.8167 18.0272 11.386C18.3352 11.946 18.4892 12.59 18.4892 13.318L18.4752 13.626ZM14.9192 10.434C14.2099 10.434 13.6125 10.6627 13.1272 11.12C12.6512 11.568 12.3805 12.156 12.3152 12.884H17.5372C17.4719 12.156 17.1965 11.568 16.7112 11.12C16.2352 10.6627 15.6379 10.434 14.9192 10.434ZM27.1237 9.636L23.8477 17H22.8257L19.5637 9.636H20.5997L23.3577 15.908L26.1437 9.636H27.1237ZM29.0836 9.636H30.0776V17H29.0836V9.636ZM29.5876 8.026C29.3822 8.026 29.2096 7.956 29.0696 7.816C28.9296 7.676 28.8596 7.508 28.8596 7.312C28.8596 7.12533 28.9296 6.962 29.0696 6.822C29.2096 6.682 29.3822 6.612 29.5876 6.612C29.7929 6.612 29.9656 6.682 30.1056 6.822C30.2456 6.95267 30.3156 7.11133 30.3156 7.298C30.3156 7.50333 30.2456 7.676 30.1056 7.816C29.9656 7.956 29.7929 8.026 29.5876 8.026ZM39.8153 13.626H33.6553C33.7113 14.3913 34.0053 15.012 34.5373 15.488C35.0693 15.9547 35.7413 16.188 36.5533 16.188C37.0107 16.188 37.4307 16.1087 37.8133 15.95C38.196 15.782 38.5273 15.5393 38.8073 15.222L39.3673 15.866C39.0407 16.258 38.63 16.5567 38.1353 16.762C37.65 16.9673 37.1133 17.07 36.5253 17.07C35.7693 17.07 35.0973 16.9113 34.5093 16.594C33.9307 16.2673 33.478 15.8193 33.1513 15.25C32.8247 14.6807 32.6613 14.0367 32.6613 13.318C32.6613 12.5993 32.8153 11.9553 33.1233 11.386C33.4407 10.8167 33.87 10.3733 34.4113 10.056C34.962 9.73867 35.578 9.58 36.2593 9.58C36.9407 9.58 37.552 9.73867 38.0933 10.056C38.6347 10.3733 39.0593 10.8167 39.3673 11.386C39.6753 11.946 39.8293 12.59 39.8293 13.318L39.8153 13.626ZM36.2593 10.434C35.55 10.434 34.9527 10.6627 34.4673 11.12C33.9913 11.568 33.7207 12.156 33.6553 12.884H38.8773C38.812 12.156 38.5367 11.568 38.0513 11.12C37.5753 10.6627 36.978 10.434 36.2593 10.434ZM53.0838 9.636L50.2978 17H49.3598L47.0358 10.966L44.7118 17H43.7738L41.0018 9.636H41.9538L44.2638 15.894L46.6298 9.636H47.4838L49.8358 15.894L52.1738 9.636H53.0838ZM61.3475 13.626H55.1875C55.2435 14.3913 55.5375 15.012 56.0695 15.488C56.6015 15.9547 57.2735 16.188 58.0855 16.188C58.5428 16.188 58.9628 16.1087 59.3455 15.95C59.7281 15.782 60.0595 15.5393 60.3395 15.222L60.8995 15.866C60.5728 16.258 60.1621 16.5567 59.6675 16.762C59.1821 16.9673 58.6455 17.07 58.0575 17.07C57.3015 17.07 56.6295 16.9113 56.0415 16.594C55.4628 16.2673 55.0101 15.8193 54.6835 15.25C54.3568 14.6807 54.1935 14.0367 54.1935 13.318C54.1935 12.5993 54.3475 11.9553 54.6555 11.386C54.9728 10.8167 55.4021 10.3733 55.9435 10.056C56.4941 9.73867 57.1101 9.58 57.7915 9.58C58.4728 9.58 59.0841 9.73867 59.6255 10.056C60.1668 10.3733 60.5915 10.8167 60.8995 11.386C61.2075 11.946 61.3615 12.59 61.3615 13.318L61.3475 13.626ZM57.7915 10.434C57.0821 10.434 56.4848 10.6627 55.9995 11.12C55.5235 11.568 55.2528 12.156 55.1875 12.884H60.4095C60.3441 12.156 60.0688 11.568 59.5835 11.12C59.1075 10.6627 58.5101 10.434 57.7915 10.434ZM70.6647 6.612V17H69.7127V15.544C69.414 16.0387 69.0173 16.4167 68.5227 16.678C68.0373 16.9393 67.4867 17.07 66.8707 17.07C66.18 17.07 65.5547 16.9113 64.9947 16.594C64.4347 16.2767 63.996 15.8333 63.6787 15.264C63.3613 14.6947 63.2027 14.046 63.2027 13.318C63.2027 12.59 63.3613 11.9413 63.6787 11.372C63.996 10.8027 64.4347 10.364 64.9947 10.056C65.5547 9.73867 66.18 9.58 66.8707 9.58C67.468 9.58 68.0047 9.706 68.4807 9.958C68.966 10.2007 69.3627 10.56 69.6707 11.036V6.612H70.6647ZM66.9547 16.188C67.468 16.188 67.93 16.0713 68.3407 15.838C68.7607 15.5953 69.0873 15.2547 69.3207 14.816C69.5633 14.3773 69.6847 13.878 69.6847 13.318C69.6847 12.758 69.5633 12.2587 69.3207 11.82C69.0873 11.3813 68.7607 11.0453 68.3407 10.812C67.93 10.5693 67.468 10.448 66.9547 10.448C66.432 10.448 65.9607 10.5693 65.5407 10.812C65.13 11.0453 64.8033 11.3813 64.5607 11.82C64.3273 12.2587 64.2107 12.758 64.2107 13.318C64.2107 13.878 64.3273 14.3773 64.5607 14.816C64.8033 15.2547 65.13 15.5953 65.5407 15.838C65.9607 16.0713 66.432 16.188 66.9547 16.188ZM81.227 17.07C80.5177 17.07 79.8783 16.9113 79.309 16.594C78.7397 16.2673 78.2917 15.8193 77.965 15.25C77.6383 14.6807 77.475 14.0367 77.475 13.318C77.475 12.5993 77.6383 11.9553 77.965 11.386C78.2917 10.8167 78.7397 10.3733 79.309 10.056C79.8783 9.73867 80.5177 9.58 81.227 9.58C81.9364 9.58 82.5757 9.73867 83.145 10.056C83.7144 10.3733 84.1577 10.8167 84.475 11.386C84.8017 11.9553 84.965 12.5993 84.965 13.318C84.965 14.0367 84.8017 14.6807 84.475 15.25C84.1577 15.8193 83.7144 16.2673 83.145 16.594C82.5757 16.9113 81.9364 17.07 81.227 17.07ZM81.227 16.188C81.7497 16.188 82.2164 16.0713 82.627 15.838C83.047 15.5953 83.3737 15.2547 83.607 14.816C83.8404 14.3773 83.957 13.878 83.957 13.318C83.957 12.758 83.8404 12.2587 83.607 11.82C83.3737 11.3813 83.047 11.0453 82.627 10.812C82.2164 10.5693 81.7497 10.448 81.227 10.448C80.7044 10.448 80.233 10.5693 79.813 10.812C79.4024 11.0453 79.0757 11.3813 78.833 11.82C78.5997 12.2587 78.483 12.758 78.483 13.318C78.483 13.878 78.5997 14.3773 78.833 14.816C79.0757 15.2547 79.4024 15.5953 79.813 15.838C80.233 16.0713 80.7044 16.188 81.227 16.188ZM91.3064 9.58C92.2304 9.58 92.963 9.85067 93.5044 10.392C94.055 10.924 94.3304 11.7033 94.3304 12.73V17H93.3364V12.828C93.3364 12.0627 93.145 11.4793 92.7624 11.078C92.3797 10.6767 91.8337 10.476 91.1244 10.476C90.331 10.476 89.701 10.714 89.2344 11.19C88.777 11.6567 88.5484 12.3053 88.5484 13.136V17H87.5544V9.636H88.5064V10.994C88.777 10.546 89.1504 10.2007 89.6264 9.958C90.1117 9.706 90.6717 9.58 91.3064 9.58Z" fill="#011520"/>
<path d="M26.0236 36H30.6166V63.9622H26.0236V36Z" fill="#011520"/>
<path d="M46.6197 55.0948C46.6197 59.4294 43.0144 59.8165 41.8254 59.8165C39.0255 59.8165 38.6228 57.2574 38.6228 55.8786V45.0186H34.0298V55.6897C33.961 56.8463 34.1387 58.0042 34.5515 59.089C34.9644 60.1738 35.6032 61.1615 36.427 61.9885C37.1422 62.6633 37.9903 63.1865 38.9187 63.526C39.8472 63.8654 40.8364 64.0139 41.8254 63.9623C43.5671 64.0421 45.2764 63.4799 46.6197 62.3852V63.9623H51.1743V45.0186H46.5813L46.6197 55.0948Z" fill="#011520"/>
<path d="M60.2171 38.1619H55.6145V45.0179H52.2104V49.3525H55.6145V63.9238H60.2171V49.3902H63.6402V45.0179H60.2457L60.2171 38.1619Z" fill="#011520"/>
<path d="M78.0228 58.2395C76.9341 59.1038 75.5854 59.5887 74.1873 59.6183C73.4576 59.6311 72.7331 59.4955 72.0589 59.2203C71.3847 58.945 70.7754 58.5359 70.2689 58.0184C69.7624 57.501 69.3695 56.8863 69.1149 56.2127C68.8603 55.5391 68.7493 54.821 68.7889 54.1033C68.7531 53.3962 68.8683 52.6896 69.1271 52.029C69.3858 51.3685 69.7824 50.7688 70.2911 50.2686C70.7999 49.7685 71.4094 49.379 72.0806 49.1253C72.7517 48.8717 73.4694 48.7595 74.1873 48.796C74.8875 48.7638 75.5873 48.8691 76.2458 49.1058C76.9042 49.3425 77.5083 49.7059 78.0228 50.1748L78.6269 50.7697L81.8582 47.8517L81.0528 47.2567C79.1818 45.6118 76.7624 44.7011 74.2544 44.6975C71.6554 44.6975 69.1629 45.7144 67.3251 47.5243C65.4873 49.3343 64.4548 51.7891 64.4548 54.3488C64.4548 56.9085 65.4873 59.3633 67.3251 61.1733C69.1629 62.9833 71.6554 64.0001 74.2544 64.0001C76.7624 63.9965 79.1818 63.0858 81.0528 61.4409L81.8582 60.846L78.6557 57.6918L78.0228 58.2395Z" fill="#011520"/>
<path d="M98.0054 46.6334C97.369 45.9633 96.5907 45.4392 95.7258 45.0981C94.8609 44.757 93.9304 44.6074 93.0002 44.6597C92.1984 44.6205 91.3966 44.7398 90.6424 45.0107C89.8881 45.2815 89.1967 45.6984 88.6086 46.2367V36H84.006V63.9622H88.6086V53.5177C88.6086 49.1831 91.6003 48.796 92.8085 48.796C95.6084 48.796 95.407 51.3551 95.407 52.7339V63.7639H100V52.9322C100 50.373 99.4054 48.0122 98.0054 46.6334Z" fill="#011520"/>
<path d="M74.0149 57.465C75.7836 57.465 77.2175 56.0529 77.2175 54.3109C77.2175 52.5689 75.7836 51.1567 74.0149 51.1567C72.2461 51.1567 70.8123 52.5689 70.8123 54.3109C70.8123 56.0529 72.2461 57.465 74.0149 57.465Z" fill="#FF3D2E"/>
<path d="M19.6183 57.0681C17.8458 58.7412 15.4762 59.6604 13.0213 59.6273C8.02566 59.6273 4.39156 55.6893 4.39156 50.3726C4.39156 45.0559 7.98734 41.118 13.1844 41.118C15.6671 41.1417 18.0392 42.1332 19.7814 43.8755L20.3855 44.4609L23.3867 41.5146L22.7826 40.9196C21.5286 39.6709 20.0352 38.6798 18.3892 38.0038C16.7432 37.3278 14.9774 36.9804 13.194 36.9817C5.59978 36.7834 0 42.6478 0 50.3726C0 58.0974 5.59982 63.9619 12.9927 63.9619C14.7789 63.9826 16.5506 63.644 18.1994 62.9668C19.8481 62.2897 21.3392 61.2883 22.5813 60.0239L23.1854 59.429L20.1842 56.4731L19.6183 57.0681Z" fill="#011520"/>
</g>
<defs>
<clipPath id="clip0_646_5100">
<rect width="100" height="64" fill="white"/>
</clipPath>
</defs>
</svg>
