<svg width="24" height="24" viewBox="0 0 24 24" fill="none" xmlns="http://www.w3.org/2000/svg">
<path d="M11.4999 2.00291C9.89342 2.02229 6.43953 2.28607 4.5077 4.05691C3.07072 5.47959 2.569 7.58297 2.51019 10.1839C2.46139 12.7755 2.40259 17.6423 7.09765 18.9675V20.9859C7.09765 20.9859 7.06825 21.7935 7.6025 21.9591C8.26062 22.1673 8.63535 21.5459 9.26094 20.8784L10.4277 19.5601C13.6401 19.827 16.1005 19.2119 16.3839 19.1206C17.0358 18.9125 20.7074 18.4437 21.3073 13.5762C21.9229 8.54934 21.0077 5.38208 19.3555 3.9494H19.3455C18.8469 3.49059 16.8431 2.03166 12.3664 2.01541C12.3664 2.01541 12.0342 1.99291 11.4999 2.00229V2.00291ZM11.555 3.41621C12.011 3.41308 12.2882 3.43246 12.2882 3.43246C16.0774 3.44246 17.886 4.58198 18.3126 4.96578C19.7039 6.15717 20.4209 9.01253 19.896 13.2093C19.3974 17.2785 16.4196 17.5361 15.8684 17.7117C15.6338 17.7867 13.4668 18.3205 10.7367 18.1449C10.7367 18.1449 8.70354 20.5965 8.06794 21.2278C7.96722 21.3384 7.84961 21.3709 7.77454 21.3547C7.66694 21.3284 7.63441 21.1953 7.64066 21.0128L7.66006 17.663C3.67817 16.5628 3.91277 12.4117 3.95531 10.2433C4.0041 8.07491 4.41136 6.30094 5.62376 5.09954C7.25592 3.62499 10.1887 3.42621 11.5537 3.41621H11.555ZM11.8553 5.58398C11.8225 5.58365 11.79 5.5898 11.7596 5.60209C11.7292 5.61437 11.7016 5.63254 11.6783 5.65555C11.6549 5.67856 11.6364 5.70595 11.6237 5.73615C11.6111 5.76635 11.6045 5.79876 11.6044 5.83151C11.6044 5.97152 11.7183 6.08216 11.8553 6.08216C12.4755 6.07038 13.092 6.18141 13.6691 6.40884C14.2463 6.63628 14.7726 6.97564 15.2178 7.40733C16.1268 8.28931 16.5697 9.47446 16.5866 11.024C16.5866 11.1609 16.6973 11.2747 16.8375 11.2747V11.2647C16.9035 11.2648 16.967 11.2389 17.0139 11.1926C17.0609 11.1462 17.0877 11.0831 17.0883 11.0171C17.1187 10.2878 17.0003 9.55985 16.7404 8.87761C16.4805 8.19537 16.0844 7.57307 15.5763 7.04853C14.586 6.08154 13.331 5.58335 11.8553 5.58335V5.58398ZM8.55778 6.15717C8.3807 6.13132 8.20011 6.16684 8.04605 6.25781H8.03291C7.67524 6.4673 7.35303 6.73207 7.07826 7.04228C6.84992 7.30607 6.72605 7.57297 6.69352 7.82988C6.67413 7.98302 6.68726 8.13617 6.73293 8.28243L6.7492 8.29244C7.00631 9.04753 7.34226 9.77387 7.75265 10.4577C8.28128 11.4184 8.93185 12.3069 9.68822 13.1012L9.71074 13.1337L9.7464 13.1599L9.76892 13.1862L9.7952 13.2087C10.593 13.9666 11.4844 14.6197 12.4477 15.152C13.5487 15.7509 14.2169 16.034 14.6179 16.1515V16.1578C14.7355 16.1934 14.8425 16.2097 14.9501 16.2097C15.2918 16.1846 15.6154 16.046 15.8691 15.8159C16.1781 15.5413 16.4402 15.218 16.6448 14.8589V14.8526C16.8369 14.4913 16.7718 14.1494 16.4947 13.9181C15.9396 13.4334 15.3395 13.0028 14.7023 12.6323C14.2757 12.4011 13.8421 12.5411 13.6664 12.7755L13.2916 13.2474C13.0996 13.4818 12.7505 13.4493 12.7505 13.4493L12.7405 13.4556C10.1374 12.7911 9.44299 10.1577 9.44299 10.1577C9.44299 10.1577 9.41046 9.7995 9.65131 9.61697L10.1205 9.23943C10.3451 9.05691 10.5015 8.62435 10.2606 8.19742C9.89242 7.55994 9.46245 6.96012 8.97693 6.40658C8.87078 6.27608 8.72187 6.18729 8.55653 6.15592L8.55778 6.15717ZM12.2882 6.89976C11.956 6.89976 11.956 7.40108 12.2913 7.40108C12.7044 7.40777 13.1121 7.49574 13.4911 7.65994C13.8701 7.82415 14.213 8.06138 14.5003 8.35807C14.7623 8.64686 14.9636 8.98526 15.0924 9.35322C15.2211 9.72118 15.2746 10.1112 15.2497 10.5002C15.2509 10.566 15.2778 10.6288 15.3247 10.6751C15.3715 10.7213 15.4347 10.7474 15.5006 10.7477L15.5106 10.7609C15.577 10.7604 15.6405 10.7338 15.6874 10.6869C15.7344 10.64 15.761 10.5765 15.7615 10.5102C15.784 9.51696 15.4749 8.68373 14.8687 8.01615C14.2594 7.34857 13.4092 6.97415 12.3238 6.89976H12.2882ZM12.6992 8.24743C12.357 8.23743 12.3439 8.74874 12.6829 8.75874C13.5075 8.80125 13.9078 9.21755 13.9604 10.0739C13.9615 10.1389 13.9881 10.2009 14.0344 10.2466C14.0807 10.2922 14.1431 10.318 14.2081 10.3183H14.2181C14.2516 10.3169 14.2844 10.3088 14.3147 10.2946C14.345 10.2803 14.3721 10.2602 14.3946 10.2353C14.417 10.2105 14.4342 10.1814 14.4453 10.1498C14.4564 10.1183 14.461 10.0848 14.459 10.0514C14.4002 8.93502 13.7908 8.30619 12.7092 8.24806H12.6992V8.24743Z" fill="white"/>
</svg>
