<svg width="24" height="24" viewBox="0 0 24 24" fill="none" xmlns="http://www.w3.org/2000/svg">
<path d="M21.6324 17.8518L17.0688 13.7024C16.8531 13.5063 16.5696 13.4018 16.2782 13.4108C15.9868 13.4198 15.7104 13.5417 15.5071 13.7507L12.8206 16.5136C12.1739 16.3901 10.8739 15.9848 9.53567 14.65C8.19745 13.3106 7.79217 12.0072 7.67204 11.365L10.4327 8.67735C10.642 8.47429 10.764 8.19777 10.773 7.90631C10.782 7.61485 10.6773 7.33132 10.481 7.11572L6.3327 2.55319C6.13628 2.33692 5.86328 2.20573 5.5717 2.18749C5.28011 2.16926 4.9929 2.26541 4.77106 2.45552L2.33487 4.54481C2.14078 4.73961 2.02492 4.99887 2.0093 5.27342C1.99246 5.55409 1.67137 12.2025 6.82667 17.3601C11.3241 21.8564 16.9576 22.1853 18.5092 22.1853C18.7359 22.1853 18.8752 22.1786 18.9122 22.1763C19.1867 22.161 19.4458 22.0446 19.6397 21.8496L21.7279 19.4123C21.9187 19.1912 22.0156 18.9042 21.9978 18.6126C21.9799 18.3211 21.8488 18.048 21.6324 17.8518V17.8518Z" fill="white"/>
</svg>
