<svg width="24" height="24" viewBox="0 0 24 24" fill="none" xmlns="http://www.w3.org/2000/svg">
<path d="M12 21.9966C10.5565 20.7997 9.21849 19.4876 7.99999 18.074C6.17142 15.9511 4 12.7895 4 9.77674C3.99921 8.23811 4.46801 6.73383 5.34708 5.45428C6.22614 4.17473 7.47596 3.17743 8.93835 2.58859C10.4007 1.99974 12.01 1.84583 13.5624 2.14633C15.1148 2.44683 16.5406 3.18823 17.6594 4.2767C18.4043 4.99752 18.9946 5.85477 19.3964 6.79885C19.7982 7.74293 20.0033 8.75509 20 9.77674C20 12.7895 17.8285 15.9511 16 18.074C14.7815 19.4876 13.4435 20.7997 12 21.9966ZM12 6.44406C11.0907 6.44406 10.2186 6.79518 9.57562 7.42018C8.93264 8.04518 8.57142 8.89286 8.57142 9.77674C8.57142 10.6606 8.93264 11.5083 9.57562 12.1333C10.2186 12.7583 11.0907 13.1094 12 13.1094C12.9093 13.1094 13.7814 12.7583 14.4243 12.1333C15.0673 11.5083 15.4285 10.6606 15.4285 9.77674C15.4285 8.89286 15.0673 8.04518 14.4243 7.42018C13.7814 6.79518 12.9093 6.44406 12 6.44406Z" fill="white"/>
</svg>
