<svg width="20" height="29" viewBox="0 0 20 29" fill="none" xmlns="http://www.w3.org/2000/svg">
<g clip-path="url(#clip0_265_315)">
<path d="M0.151047 0.155518H19.848V21.8583C19.848 22.6193 19.6352 23.364 19.2355 24.0019C18.8358 24.6398 18.2663 25.1437 17.5961 25.4522L9.99954 28.7929L2.40293 25.295C1.73276 24.9864 1.16326 24.4826 0.763535 23.8446C0.363815 23.2067 0.151047 22.4621 0.151047 21.7011V0.155518Z" fill="#FFC20F"/>
<path d="M10.7255 9.91596C10.6415 12.3849 11.232 14.8283 12.429 16.9637C13.2331 18.3982 13.5137 20.085 13.2196 21.7164C12.9255 23.3478 12.0762 24.8151 10.8267 25.8508C10.4849 26.0696 10.2008 26.3732 9.99999 26.7342C9.79919 26.3732 9.51513 26.0696 9.17329 25.8508C7.92379 24.8151 7.07456 23.3478 6.78043 21.7164C6.48629 20.085 6.76689 18.3982 7.57103 16.9637C8.76799 14.8283 9.35856 12.3849 9.27449 9.91596L9.08059 4.22157C9.04746 3.24839 9.37673 2.29935 9.99999 1.57153C10.6233 2.29935 10.9526 3.24839 10.9194 4.22157L10.7255 9.91596ZM10.6061 24.3595C11.4248 23.4721 11.9432 22.3324 12.083 21.1125C12.2229 19.8924 11.9766 18.6583 11.3813 17.5964C10.7808 16.525 10.3165 15.3775 9.99999 14.1823C9.68353 15.3775 9.21923 16.525 8.61873 17.5964C8.02346 18.6583 7.77716 19.8924 7.91699 21.1125C8.05683 22.3324 8.57523 23.4721 9.39396 24.3595V20.4435H10.6061V24.3595Z" fill="#01669C"/>
<path d="M13.3665 9.4572C13.5084 8.20625 13.9371 7.00879 14.6166 5.96516C15.2961 4.92153 16.2067 4.06215 17.272 3.45898V21.7019H9.9993L9.39323 20.4438C9.39323 19.801 9.604 19.1774 9.99087 18.6754C10.3777 18.1735 10.9177 17.8232 11.5218 17.682L13.2957 17.2678C13.4512 17.2315 13.5982 17.1637 13.7284 17.0683C13.8586 16.9729 13.9695 16.8519 14.0545 16.712C14.1396 16.5721 14.1973 16.4162 14.2242 16.2531C14.2512 16.0901 14.2469 15.9231 14.2116 15.7618C14.1764 15.6005 14.1108 15.448 14.0186 15.313C13.9265 15.178 13.8096 15.0632 13.6747 14.9752C13.5398 14.8871 13.3895 14.8276 13.2323 14.7999C13.0752 14.7723 12.9144 14.777 12.759 14.8139L13.3665 9.4572ZM14.0936 13.7794C14.5448 14.0081 14.9164 14.3767 15.1571 14.8341C15.3978 15.2915 15.4958 15.8152 15.4374 16.3329C15.379 16.8506 15.1672 17.3366 14.8312 17.724C14.4952 18.1113 14.0516 18.3808 13.5617 18.4952L11.7879 18.9095C11.4523 18.9879 11.1523 19.1825 10.9374 19.4614C10.7224 19.7402 10.6054 20.0867 10.6054 20.4438H16.0599V6.07155C15.2379 7.0684 14.7197 8.29615 14.5709 9.59909L14.0936 13.7794ZM15.0902 15.4113H16.3023V16.6694H15.0902V15.4113Z" fill="#01669C"/>
<path d="M6.63346 9.4572C6.49156 8.20625 6.06293 7.00879 5.38343 5.96516C4.7039 4.92153 3.79333 4.06215 2.72798 3.45898V21.7019H10.0007L10.6068 20.4438C10.6068 19.801 10.396 19.1774 10.0091 18.6754C9.62226 18.1735 9.08233 17.8232 8.47816 17.682L6.70433 17.2678C6.54883 17.2315 6.4018 17.1637 6.27156 17.0683C6.14136 16.9729 6.03053 16.8519 5.94546 16.712C5.86036 16.5721 5.8027 16.4162 5.77576 16.2531C5.7488 16.0901 5.7531 15.9231 5.78836 15.7618C5.82363 15.6005 5.88923 15.448 5.98136 15.313C6.0735 15.178 6.19036 15.0632 6.3253 14.9752C6.46023 14.8871 6.61053 14.8276 6.76766 14.7999C6.9248 14.7723 7.08563 14.777 7.241 14.8139L6.63346 9.4572ZM5.9064 13.7794C5.4552 14.0081 5.08356 14.3767 4.84286 14.8341C4.60216 15.2915 4.50423 15.8152 4.5626 16.3329C4.621 16.8506 4.8328 17.3366 5.1688 17.724C5.50476 18.1113 5.94836 18.3808 6.43826 18.4952L8.2121 18.9095C8.54773 18.9879 8.8477 19.1825 9.06263 19.4614C9.27756 19.7402 9.39463 20.0867 9.39463 20.4438H3.9401V6.07155C4.76206 7.0684 5.28026 8.29615 5.42906 9.59909L5.9064 13.7794ZM4.9098 15.4113H3.69766V16.6694H4.9098V15.4113Z" fill="#01669C"/>
</g>
<defs>
<clipPath id="clip0_265_315">
<rect width="20" height="29" fill="white"/>
</clipPath>
</defs>
</svg>
