<svg width="72" height="88" viewBox="0 0 72 88" fill="none" xmlns="http://www.w3.org/2000/svg">
<path d="M43.9647 0.0300489L71.2302 0L25.4861 45.7244L13.5643 57.5803L-6.10352e-05 43.9982L43.9647 0.0300489ZM43.7109 40.8564C44.0648 40.389 44.7158 40.6194 45.2099 40.5593L71.2068 40.566L47.5135 64.2378L33.879 50.6858L43.7109 40.8564Z" fill="#44D1FD"/>
<path d="M20.2879 64.2609L33.8789 50.6855L47.5134 64.2375L47.5701 64.2976L33.8823 77.8597L20.2879 64.2609V64.2609Z" fill="#1FBCFD"/>
<path d="M33.8823 77.8594L47.5702 64.2973L71.2168 87.9691C62.3097 87.9892 53.4059 87.9624 44.5021 87.9825C43.9946 88.096 43.6808 87.6319 43.357 87.3448L33.8823 77.8594V77.8594Z" fill="#08589C"/>
</svg>
