<svg width="24" height="24" viewBox="0 0 24 24" fill="none" xmlns="http://www.w3.org/2000/svg">
<path d="M7.38827 2.75H16.6113C16.6114 2.75 16.6116 2.75 16.6117 2.75C19.1735 2.75023 21.25 4.82656 21.25 7.38827V16.6113C21.25 19.1732 19.1732 21.25 16.6113 21.25H7.38869C4.82669 21.25 2.75 19.1736 2.75 16.6117V7.38827C2.75 4.82673 4.82638 2.75 7.38827 2.75Z" stroke="#01669C" stroke-width="1.5" stroke-miterlimit="10"/>
<path d="M16.25 12C16.25 14.3472 14.3472 16.25 12 16.25C9.65279 16.25 7.75 14.3472 7.75 12C7.75 9.65279 9.65279 7.75 12 7.75C14.3472 7.75 16.25 9.65279 16.25 12Z" stroke="#01669C" stroke-width="1.5" stroke-miterlimit="10"/>
<path d="M17.9167 6.16659C17.9167 6.21261 17.8794 6.24992 17.8333 6.24992C17.7873 6.24992 17.75 6.21261 17.75 6.16659C17.75 6.12056 17.7873 6.08325 17.8333 6.08325C17.8794 6.08325 17.9167 6.12056 17.9167 6.16659Z" fill="#01669C" stroke="#01669C" stroke-width="1.5"/>
</svg>
