<svg width="125" height="88" viewBox="0 0 125 88" fill="none" xmlns="http://www.w3.org/2000/svg">
<path d="M124.161 41.1175C123.278 40.2008 111.943 25.3822 110.029 22.9379C107.968 20.4936 107.085 20.9519 105.76 21.1047C104.435 21.2574 90.1555 23.8545 88.5362 24.0073C86.9169 24.3128 85.8864 24.9239 86.9169 26.4516C87.8002 27.8265 97.2217 41.5758 99.2827 44.7839L61.7437 54.1029L32.007 2.31402C30.8293 0.480785 30.5349 -0.130293 27.8851 0.0224766C25.2353 0.175246 4.47843 2.00848 3.00631 2.00848C1.5342 2.16125 -0.0851299 2.77233 1.38699 6.43879C2.8591 10.1053 26.4129 62.6579 27.0018 64.1856C27.5906 65.7133 29.3572 68.1576 33.3319 67.241C37.4538 66.1716 51.5861 62.3524 59.3883 60.2136C63.5103 67.8521 71.7541 83.4346 73.3734 85.7261C75.4344 88.7815 76.9065 88.1704 79.998 87.2538C82.5005 86.49 118.567 73.0463 120.187 72.2824C121.806 71.5186 122.837 71.0603 121.659 69.3798C120.776 68.1576 111.354 54.8667 106.349 47.9921C109.735 47.0755 121.953 43.7145 123.278 43.2562C124.75 42.7979 125.045 42.0341 124.161 41.1175V41.1175ZM56.0025 55.6305C55.5608 55.7833 34.5096 60.9775 33.4791 61.283C32.3014 61.5886 32.3014 61.4358 32.3014 60.9775C32.007 60.5192 7.27545 7.35541 6.83381 6.74433C6.53939 6.13325 6.53939 5.52218 6.83381 5.52218C7.12824 5.52218 26.7074 3.68894 27.2962 3.68894C28.0323 3.68894 27.8851 3.84171 28.1795 4.30002C28.1795 4.30002 55.708 53.6445 56.1497 54.4084C56.7385 55.1722 56.4441 55.4778 56.0025 55.6305V55.6305ZM115.182 67.0883C115.476 67.6993 115.918 68.0049 114.74 68.3104C113.709 68.7687 79.2619 80.8375 78.5258 81.143C77.7898 81.4486 77.3481 81.6013 76.4649 80.2264C75.5816 78.8515 64.3935 58.8387 64.3935 58.8387L101.049 48.9087C101.932 48.6032 102.227 48.4504 102.816 49.367C103.405 50.4364 114.887 66.6299 115.182 67.0883ZM117.537 40.2008C116.654 40.3536 103.257 43.8673 103.257 43.8673L92.2165 28.2848C91.9221 27.8265 91.6277 27.3682 92.3637 27.2154C93.0998 27.0627 105.613 24.7711 106.202 24.6184C106.79 24.4656 107.232 24.3128 107.968 25.3822C108.704 26.2988 118.126 38.8259 118.567 39.2842C119.009 39.7425 118.42 40.0481 117.537 40.2008Z" fill="#FB503B"/>
</svg>
