<svg width="16" height="20" viewBox="0 0 16 20" fill="none" xmlns="http://www.w3.org/2000/svg">
<path d="M14.5455 7.85714C14.5455 6.15218 13.8558 4.51705 12.6283 3.31146C11.4008 2.10587 9.73596 1.42857 8 1.42857C6.26404 1.42857 4.59918 2.10587 3.37166 3.31146C2.14415 4.51705 1.45455 6.15218 1.45455 7.85714C1.45455 10.4943 3.60291 13.9314 8 18.0486C12.3971 13.9314 14.5455 10.4943 14.5455 7.85714ZM8 20C2.66618 15.2386 0 11.19 0 7.85714C0 5.7733 0.842855 3.7748 2.34315 2.3013C3.84344 0.827804 5.87827 0 8 0C10.1217 0 12.1566 0.827804 13.6569 2.3013C15.1571 3.7748 16 5.7733 16 7.85714C16 11.19 13.3338 15.2386 8 20Z" fill="#01669C"/>
<path d="M8.00013 9.99993C8.57879 9.99993 9.13374 9.77417 9.54291 9.3723C9.95208 8.97044 10.182 8.42539 10.182 7.85707C10.182 7.28875 9.95208 6.74371 9.54291 6.34184C9.13374 5.93998 8.57879 5.71422 8.00013 5.71422C7.42148 5.71422 6.86652 5.93998 6.45735 6.34184C6.04818 6.74371 5.81831 7.28875 5.81831 7.85707C5.81831 8.42539 6.04818 8.97044 6.45735 9.3723C6.86652 9.77417 7.42148 9.99993 8.00013 9.99993ZM8.00013 11.4285C7.03571 11.4285 6.11079 11.0522 5.42884 10.3825C4.74689 9.71268 4.36377 8.80428 4.36377 7.85707C4.36377 6.90987 4.74689 6.00146 5.42884 5.33169C6.11079 4.66192 7.03571 4.28564 8.00013 4.28564C8.96456 4.28564 9.88948 4.66192 10.5714 5.33169C11.2534 6.00146 11.6365 6.90987 11.6365 7.85707C11.6365 8.80428 11.2534 9.71268 10.5714 10.3825C9.88948 11.0522 8.96456 11.4285 8.00013 11.4285Z" fill="#01669C"/>
</svg>
