<svg width="240" height="240" viewBox="0 0 240 240" fill="none" xmlns="http://www.w3.org/2000/svg">
<path d="M133.179 121.143L220 59.2474L172.409 59.874L168.301 45.4871L133.179 121.143Z" fill="#FFC20E"/>
<path d="M188.177 48.3722C193.003 48.3722 196.915 44.456 196.915 39.6251C196.915 34.7942 193.003 30.8781 188.177 30.8781C183.351 30.8781 179.438 34.7942 179.438 39.6251C179.438 44.456 183.351 48.3722 188.177 48.3722Z" fill="#01669C"/>
<path d="M130.883 103.57L160.71 17.3525L127.857 41.4135L105.412 26.6349L130.883 103.57Z" fill="#01669C"/>
<path d="M128.81 26.9614C132.937 26.9614 136.283 23.6122 136.283 19.4807C136.283 15.3492 132.937 12 128.81 12C124.683 12 121.337 15.3492 121.337 19.4807C121.337 23.6122 124.683 26.9614 128.81 26.9614Z" fill="#FFC20E"/>
<path d="M126.15 115.307L88.5104 26.1782L68.5039 80.4753L126.15 115.307Z" fill="#FFC20E"/>
<path d="M64.2118 59.3776C68.7137 59.3776 72.3631 55.7245 72.3631 51.218C72.3631 46.7116 68.7137 43.0585 64.2118 43.0585C59.71 43.0585 56.0605 46.7116 56.0605 51.218C56.0605 55.7245 59.71 59.3776 64.2118 59.3776Z" fill="#01669C"/>
<path d="M126.645 125.529L30.3945 79.6528L54.0789 120.986L43.5148 131.561L126.645 125.529Z" fill="#01669C"/>
<path d="M28.7382 125.777C33.5641 125.777 37.4763 121.861 37.4763 117.03C37.4763 112.199 33.5641 108.283 28.7382 108.283C23.9122 108.283 20 112.199 20 117.03C20 121.861 23.9122 125.777 28.7382 125.777Z" fill="#FFC20E"/>
<path d="M112.416 136.065L22.6475 151.888L59.6217 168.925L57.6262 195.753L112.416 136.065Z" fill="#01669C"/>
<path d="M40.0073 186.236C44.1346 186.236 47.4804 182.887 47.4804 178.756C47.4804 174.624 44.1346 171.275 40.0073 171.275C35.88 171.275 32.5342 174.624 32.5342 178.756C32.5342 182.887 35.88 186.236 40.0073 186.236Z" fill="#FFC20E"/>
<path d="M124.962 134.511L65.4512 210.754L122.575 201.863L124.962 134.511Z" fill="#FFC20E"/>
<path d="M99.1259 228C103.628 228 107.277 224.347 107.277 219.84C107.277 215.334 103.628 211.681 99.1259 211.681C94.6241 211.681 90.9746 215.334 90.9746 219.84C90.9746 224.347 94.6241 228 99.1259 228Z" fill="#01669C"/>
</svg>
