<svg width="120" height="70" viewBox="0 0 120 70" fill="none" xmlns="http://www.w3.org/2000/svg">
<path d="M46.9162 49.4675C48.2156 49.4675 49.2309 49.0994 49.9621 48.3675C50.6933 47.6355 51.061 46.5905 51.061 45.2282V40.0369H48.9677V45.1478C48.9677 46.032 48.7922 46.6667 48.4329 47.0517C48.0778 47.4409 47.5764 47.6355 46.9288 47.6355C46.2811 47.6355 45.7839 47.4409 45.4246 47.0517C45.0695 46.6624 44.8898 46.0278 44.8898 45.1478V40.0369H42.7715V45.2282C42.7715 46.5863 43.1392 47.6313 43.8703 48.3675C44.6015 49.0994 45.6168 49.4675 46.9162 49.4675Z" fill="#01669C"/>
<path d="M56.4843 45.6723L59.4174 49.3066H61.8867L57.8756 44.1661L61.6652 40.041H59.3129L55.2559 44.365V40.041H53.1543V49.3066H55.2559V46.967L56.4843 45.6723Z" fill="#01669C"/>
<path d="M64.9446 46.7258H66.7872C66.8206 46.7258 66.854 46.7216 66.8875 46.7216L68.6465 49.3066H70.9361L68.8888 46.3366C68.893 46.3323 68.9013 46.3323 68.9055 46.3281C69.4988 46.0616 69.9542 45.6808 70.276 45.1815C70.5977 44.6823 70.7606 44.09 70.7606 43.4003C70.7606 42.7022 70.5977 42.1015 70.276 41.6022C69.9542 41.0987 69.4988 40.7137 68.9055 40.4429C68.3122 40.1722 67.6061 40.041 66.7872 40.041H62.8263V49.3066H64.9446V46.7258ZM68.1367 42.2115C68.4585 42.4949 68.6214 42.8926 68.6214 43.4046C68.6214 43.908 68.4585 44.3015 68.1367 44.5892C67.815 44.8769 67.3262 45.0208 66.6744 45.0208H64.9488V41.7926H66.6744C67.322 41.7884 67.8108 41.928 68.1367 42.2115Z" fill="#01669C"/>
<path d="M74.2218 47.3224H78.4626L79.2732 49.3066H81.496L77.4055 40.041H75.3123L71.2344 49.3066H73.4028L74.2218 47.3224ZM76.3443 42.1438L77.7941 45.6892H74.8861L76.3443 42.1438Z" fill="#01669C"/>
<path d="M84.5694 40.041H82.451V49.3066H84.5694V40.041Z" fill="#01669C"/>
<path d="M95.1322 40.041H93.039V45.6596L88.4889 40.041H86.7383V49.3066H88.8315V43.6838L93.3941 49.3066H95.1322V40.041Z" fill="#01669C"/>
<path d="M99.4191 40.041H97.3008V49.3066H99.4191V40.041Z" fill="#01669C"/>
<path d="M104.467 40.041L100.389 49.3066H102.557L103.372 47.3224H107.613L108.423 49.3066H110.646L106.551 40.041H104.467ZM104.04 45.6935L105.499 42.148L106.948 45.6935H104.04Z" fill="#01669C"/>
<path d="M117.906 40.041V45.6596L113.356 40.041H111.605V49.3066H113.695V43.6838L118.257 49.3066H119.999V40.041H117.906Z" fill="#01669C"/>
<path d="M44.9699 51.9172H42.8516V61.1829H44.9699V51.9172Z" fill="#01669C"/>
<path d="M46.1055 53.6646H49.0344V61.1829H51.1485V53.6646H54.0774V51.9172H46.1055V53.6646Z" fill="#01669C"/>
<path d="M61.0363 53.6392H65.8328V51.9172H58.918V61.1829H61.0363V57.8066H65.273V56.0889H61.0363V53.6392Z" fill="#01669C"/>
<path d="M69.7654 51.9172L65.6875 61.1829H67.856L68.6707 59.1986H72.9116L73.7221 61.1829H75.9449L71.8503 51.9172H69.7654ZM69.3434 57.5697L70.8016 54.0242L72.2514 57.5697H69.3434Z" fill="#01669C"/>
<path d="M85.4548 51.9172L82.083 57.6712L78.6569 51.9172H76.9062V61.1829H78.8909V55.742L81.5733 60.2055H82.5259L85.2208 55.6235L85.2333 61.1829H87.218L87.1929 51.9172H85.4548Z" fill="#01669C"/>
<path d="M91.509 51.9172H89.3906V61.1829H91.509V51.9172Z" fill="#01669C"/>
<path d="M95.798 51.9172H93.6797V61.1829H100.386V59.4355H95.798V51.9172Z" fill="#01669C"/>
<path d="M106.506 51.9172L104.057 56.0297L101.617 51.9172H99.3652L102.908 57.8786V61.1829H105.027V57.9039L108.582 51.9172H106.506Z" fill="#01669C"/>
<path d="M36.2578 35.37L64.0719 15.3114L48.8257 15.5145L47.5096 10.8521L36.2578 35.37Z" fill="#FFC20F"/>
<path d="M53.8775 11.7873C55.4235 11.7873 56.6769 10.5182 56.6769 8.95261C56.6769 7.38705 55.4235 6.11792 53.8775 6.11792C52.3314 6.11792 51.0781 7.38705 51.0781 8.95261C51.0781 10.5182 52.3314 11.7873 53.8775 11.7873Z" fill="#01669C"/>
<path d="M35.5232 29.6754L45.0787 1.73462L34.5539 9.53214L27.3633 4.74278L35.5232 29.6754Z" fill="#01669C"/>
<path d="M34.859 4.84859C36.1812 4.84859 37.2531 3.7632 37.2531 2.4243C37.2531 1.08539 36.1812 0 34.859 0C33.5368 0 32.4649 1.08539 32.4649 2.4243C32.4649 3.7632 33.5368 4.84859 34.859 4.84859Z" fill="#FFC20F"/>
<path d="M34.0066 33.479L21.9484 4.59473L15.5391 22.191L34.0066 33.479Z" fill="#FFC20F"/>
<path d="M14.166 15.3538C15.6083 15.3538 16.7774 14.1699 16.7774 12.7095C16.7774 11.2491 15.6083 10.0652 14.166 10.0652C12.7238 10.0652 11.5547 11.2491 11.5547 12.7095C11.5547 14.1699 12.7238 15.3538 14.166 15.3538Z" fill="#01669C"/>
<path d="M34.165 36.7919L3.33008 21.9246L10.9176 35.3195L7.53332 38.7466L34.165 36.7919Z" fill="#01669C"/>
<path d="M2.79938 36.8723C4.34543 36.8723 5.59875 35.6031 5.59875 34.0376C5.59875 32.472 4.34543 31.2029 2.79938 31.2029C1.25332 31.2029 0 32.472 0 34.0376C0 35.6031 1.25332 36.8723 2.79938 36.8723Z" fill="#FFC20F"/>
<path d="M29.606 40.2061L0.847656 45.3339L12.6928 50.8552L12.0535 59.5497L29.606 40.2061Z" fill="#01669C"/>
<path d="M6.40972 56.4653C7.73194 56.4653 8.80381 55.3799 8.80381 54.041C8.80381 52.7021 7.73194 51.6167 6.40972 51.6167C5.0875 51.6167 4.01562 52.7021 4.01562 54.041C4.01562 55.3799 5.0875 56.4653 6.40972 56.4653Z" fill="#FFC20F"/>
<path d="M33.6255 39.7026L14.5605 64.411L32.8609 61.5298L33.6255 39.7026Z" fill="#FFC20F"/>
<path d="M25.3496 70C26.7918 70 27.961 68.8161 27.961 67.3557C27.961 65.8953 26.7918 64.7114 25.3496 64.7114C23.9074 64.7114 22.7383 65.8953 22.7383 67.3557C22.7383 68.8161 23.9074 70 25.3496 70Z" fill="#01669C"/>
</svg>
