<svg width="20" height="20" viewBox="0 0 20 20" fill="none" xmlns="http://www.w3.org/2000/svg">
<path fill-rule="evenodd" clip-rule="evenodd" d="M1.57392 8.26309C1.57392 4.56877 4.56877 1.57392 8.26309 1.57392C11.9574 1.57392 14.9523 4.56877 14.9523 8.26309C14.9523 11.9574 11.9574 14.9523 8.26309 14.9523C4.56877 14.9523 1.57392 11.9574 1.57392 8.26309ZM8.26309 0C3.69951 0 0 3.69951 0 8.26309C0 12.8267 3.69951 16.5262 8.26309 16.5262C10.2615 16.5262 12.0942 15.8168 13.5231 14.636L18.8871 20L20 18.8871L14.636 13.5231C15.8168 12.0942 16.5262 10.2615 16.5262 8.26309C16.5262 3.69951 12.8267 0 8.26309 0Z" fill="white"/>
</svg>
