<svg width="80" height="88" viewBox="0 0 80 88" fill="none" xmlns="http://www.w3.org/2000/svg">
<path fill-rule="evenodd" clip-rule="evenodd" d="M43.1844 0.938836C41.0222 -0.315764 38.2035 -0.310123 36.0395 0.938836C33.3722 2.45755 30.7048 3.97637 28.0375 5.49522C19.8664 10.148 11.695 14.801 3.52252 19.4513C1.41316 20.5962 -0.00955679 22.9334 0.0131345 25.3592V62.6459C-0.00209664 65.119 1.49398 67.4787 3.65773 68.608C4.83241 69.2527 5.99447 69.9222 7.15646 70.5916C9.07454 71.6966 10.9924 72.8015 12.9665 73.795C16.6281 75.6513 21.2093 76.0619 24.9158 74.126C27.9244 72.5213 29.2607 68.9527 29.2569 65.6731C29.2723 57.9014 29.2697 50.1296 29.2672 42.3578C29.2657 37.8239 29.2642 33.2899 29.2663 28.756C29.3378 28.2091 28.9399 27.6246 28.3617 27.6377C26.9766 27.6152 25.5897 27.6246 24.2046 27.634C23.6811 27.5829 23.1704 28.0314 23.2099 28.5742C23.2001 34.9785 23.2016 41.3838 23.2031 47.7893C23.2044 53.6125 23.2058 59.4359 23.1987 65.2588C23.2288 66.9503 22.1213 68.576 20.5413 69.1474C18.7509 69.8231 16.7556 69.299 15.1305 68.4171C14.1543 67.8612 13.1778 67.306 12.2014 66.7507C10.2926 65.6654 8.38386 64.58 6.47674 63.4896C6.28563 63.3982 6.12686 63.2501 6.02182 63.065C5.91679 62.8799 5.87052 62.6668 5.88925 62.4544C5.88925 58.3537 5.88946 54.253 5.88966 50.1523C5.89008 41.9512 5.89049 33.7503 5.88925 25.5504C5.83672 25.0546 6.13295 24.6079 6.57434 24.4055C12.5853 20.9919 18.5945 17.5735 24.6039 14.1551C29.3943 11.43 34.1849 8.70485 38.9766 5.982C39.1641 5.85281 39.386 5.78386 39.6132 5.78419C39.8403 5.78453 40.062 5.85414 40.2492 5.98388C45.0205 8.69434 49.7911 11.4063 54.5618 14.1184C60.5923 17.5466 66.6228 20.9748 72.6552 24.4001C73.0981 24.6023 73.3816 25.0564 73.3365 25.5504C73.3358 30.0213 73.3361 34.4924 73.3365 38.9637C73.337 46.7934 73.3375 54.6234 73.3328 62.4525C73.3648 62.8878 73.1469 63.3097 72.7528 63.5009C67.188 66.6736 61.6192 69.8395 56.0502 73.0054C50.9736 75.8915 45.897 78.7776 40.8233 81.6689C40.7579 81.7057 40.6909 81.7453 40.6226 81.7858C40.1599 82.0597 39.6358 82.37 39.1174 82.0682C37.5199 81.1566 35.9336 80.2246 34.3473 79.2927C33.1644 78.5976 31.9814 77.9027 30.794 77.2162C30.4919 77.0216 30.1071 76.9382 29.7919 77.1557C29.7164 77.1968 29.6409 77.2379 29.5654 77.279C28.3941 77.9169 27.2171 78.558 25.9425 78.9666C25.7804 79.0329 25.6082 79.0863 25.435 79.1401C24.9647 79.2862 24.4871 79.4345 24.184 79.8464C24.5552 80.3602 25.1014 80.6664 25.6424 80.9697C25.7851 81.0497 25.9275 81.1295 26.0662 81.2129C27.5469 82.0775 29.0288 82.9405 30.5107 83.8036C32.2821 84.8352 34.0536 85.8669 35.8234 86.9014C37.9633 88.2792 40.8385 88.3772 43.0473 87.1038C48.1861 84.1821 53.3241 81.2588 58.4621 78.3353C64.1628 75.0917 69.8637 71.848 75.5662 68.6064C77.7243 67.4709 79.2279 65.1206 79.2126 62.6456V25.3592C79.2335 22.9826 77.8651 20.6871 75.8195 19.5253C69.4505 15.8938 63.0796 12.267 56.7087 8.64008C52.2005 6.07357 47.6922 3.50704 43.1844 0.938836ZM59.5401 28.9342C55.2856 26.5858 50.2242 26.4607 45.4963 26.7675V26.7672C42.0808 27.1154 38.4884 28.0883 35.9998 30.6144C33.4475 33.154 32.892 37.2548 34.1043 40.5701C34.9731 42.9126 37.1599 44.4361 39.4212 45.2419C42.3344 46.3029 45.3939 46.631 48.4544 46.9592C51.2459 47.2585 54.0384 47.5579 56.7214 48.4137C57.8174 48.7886 59.0937 49.3618 59.4295 50.592C59.7394 52.049 59.3996 53.7427 58.2529 54.7551C56.1922 56.4379 53.3978 56.5576 50.8434 56.667C50.7037 56.673 50.5647 56.6789 50.4266 56.6851C50.1566 56.6808 49.8846 56.6778 49.6109 56.6747C46.6253 56.6413 43.4534 56.6057 40.8816 54.9328C39.4268 53.9355 38.7999 52.17 38.545 50.4879C38.5167 49.9636 38.1076 49.4828 37.5559 49.5226C36.1745 49.5057 34.7931 49.5094 33.4118 49.5207C32.9296 49.479 32.4286 49.8329 32.4021 50.3403C32.2915 53.345 33.4062 56.4582 35.6883 58.4562C38.3572 60.8313 41.9549 61.7471 45.4121 62.1445C49.0887 62.5059 52.8458 62.4852 56.4662 61.6713C59.1876 61.0319 61.9162 59.8547 63.7896 57.6918C66.0998 55.0635 66.5539 51.1502 65.5179 47.8762C64.7259 45.4334 62.4623 43.8663 60.1484 43.0602C57.0019 41.947 53.7131 41.5079 50.4228 41.0686C47.8688 40.7276 45.3139 40.3865 42.824 39.7299C42.7818 39.7164 42.7391 39.703 42.6961 39.6894C41.733 39.3854 40.6072 39.03 40.1853 38.0192C39.7178 36.5487 40.1157 34.7227 41.4255 33.8182C43.1317 32.6241 45.2974 32.4482 47.3113 32.3404C47.3834 32.3397 47.4555 32.339 47.5278 32.3383C50.223 32.3113 53.0695 32.2829 55.5334 33.5267C57.1814 34.3783 58.1364 36.1268 58.5305 37.8923C58.6035 38.411 58.9417 38.952 59.5236 38.9294C60.4622 38.9487 61.401 38.9451 62.3396 38.9415C62.7728 38.9399 63.206 38.9382 63.6392 38.9388C64.1104 38.973 64.6264 38.6984 64.7184 38.2007C64.6603 34.5108 62.8341 30.7338 59.5401 28.9342Z" fill="#8CC84B"/>
</svg>
