<svg width="99" height="88" viewBox="0 0 99 88" fill="none" xmlns="http://www.w3.org/2000/svg">
<path fill-rule="evenodd" clip-rule="evenodd" d="M80.8933 28.5223C79.8526 28.1612 78.803 27.8267 77.7456 27.5191C77.921 26.7983 78.0831 26.0743 78.232 25.3475C80.6146 13.6478 79.0568 4.22258 73.7368 1.11995C68.6362 -1.85575 60.2941 1.24689 51.8689 8.66336C51.0387 9.39584 50.2269 10.1494 49.4343 10.9234C48.9036 10.4087 48.3634 9.90409 47.8142 9.40969C38.9843 1.47889 30.1337 -1.86275 24.8194 1.24908C19.7236 4.23309 18.2142 13.0941 20.3592 24.1818C20.5727 25.2798 20.8136 26.3722 21.0819 27.4578C19.8296 27.8176 18.6201 28.201 17.463 28.609C7.11124 32.2597 0.5 37.9817 0.5 43.9165C0.5 50.0464 7.59676 56.1948 18.3795 59.9225C19.2538 60.2234 20.1354 60.5022 21.0235 60.7586C20.735 61.9282 20.4789 63.1057 20.2554 64.2898C18.2103 75.1849 19.8075 83.8358 24.8899 86.8014C30.1394 89.8633 38.9497 86.716 47.529 79.1302C48.2071 78.5305 48.8878 77.8944 49.5693 77.2278C50.4278 78.0656 51.3092 78.8791 52.2124 79.6673C60.5226 86.9008 68.7297 89.8217 73.8078 86.8482C79.0525 83.7771 80.7566 74.4836 78.5436 63.1766C78.3748 62.313 78.1779 61.4309 77.9572 60.5327C78.576 60.348 79.1832 60.1572 79.7756 59.9584C90.985 56.2018 98.2778 50.1283 98.2778 43.9165C98.2778 37.9603 91.4536 32.1997 80.8933 28.5223ZM78.4605 55.9483C77.9261 56.1273 77.3774 56.3002 76.8183 56.4678C75.5808 52.5051 73.9104 48.291 71.8671 43.9378C73.8174 39.6874 75.4228 35.5277 76.6258 31.5903C77.6258 31.8836 78.5969 32.1922 79.5324 32.5183C88.5807 35.6686 94.0997 40.3274 94.0997 43.9168C94.0997 47.7404 88.1389 52.7042 78.461 55.9483H78.4605ZM74.4449 63.9977C75.4232 68.9975 75.563 73.5179 74.9148 77.0517C74.3323 80.227 73.1614 82.3439 71.7135 83.1918C68.632 84.9961 62.0421 82.6507 54.9358 76.4647C54.121 75.7556 53.3001 74.9983 52.4771 74.1973C55.2322 71.1489 57.9857 67.605 60.6729 63.6698C65.4 63.2457 69.8657 62.5519 73.9156 61.6051C74.1147 62.4192 74.2921 63.2172 74.4449 63.9977ZM33.8335 82.8801C30.823 83.9556 28.4253 83.9862 26.9761 83.141C23.8916 81.3419 22.6099 74.3951 24.3585 65.078C24.5665 63.9769 24.8046 62.8819 25.0725 61.7942C29.0774 62.6902 33.5107 63.335 38.2491 63.7237C40.954 67.5744 43.7871 71.1139 46.6422 74.2135C46.0354 74.8072 45.4143 75.3858 44.7793 75.9486C40.9856 79.3034 37.1841 81.6829 33.8339 82.8801H33.8335ZM19.7297 55.9246C14.9619 54.2761 11.0245 52.1339 8.32561 49.7964C5.90061 47.6953 4.676 45.6095 4.676 43.9168C4.676 40.3156 9.98425 35.7216 18.8374 32.5993C19.9486 32.2091 21.0708 31.8519 22.2027 31.5281C23.4265 35.5539 25.0314 39.7632 26.9683 44.0197C25.0063 48.3396 23.3784 52.6158 22.1434 56.6889C21.3328 56.4542 20.5279 56.1994 19.7297 55.9246ZM24.4576 23.3706C22.6198 13.8705 23.8401 6.70441 26.9112 4.90621C30.1826 2.9907 37.4156 5.72214 45.0394 12.5696C45.5266 13.0073 46.016 13.4656 46.5063 13.9397C43.6659 17.0252 40.8588 20.538 38.1772 24.3664C33.5786 24.7976 29.1765 25.4901 25.1297 26.4176C24.8804 25.4077 24.6563 24.3915 24.4576 23.3701V23.3706ZM66.6341 33.9054C65.6783 32.2353 64.687 30.5861 63.6609 28.9591C66.7808 29.3574 69.7697 29.8871 72.5763 30.5354C71.7338 33.2672 70.6836 36.1239 69.4469 39.0523C68.5433 37.3179 67.6055 35.602 66.6341 33.9054ZM49.4346 16.9591C51.3611 19.0703 53.2906 21.4279 55.1885 23.9856C51.3386 23.8016 47.4822 23.8007 43.6322 23.983C45.5318 21.4489 47.4778 19.0948 49.4346 16.9591ZM32.1247 33.9343C31.1655 35.6173 30.2453 37.3228 29.3647 39.0492C28.1484 36.1309 27.1076 33.2615 26.2578 30.4907C29.0476 29.8591 32.0226 29.343 35.1222 28.9512C34.0846 30.5883 33.0851 32.2498 32.1247 33.9343ZM35.2113 59.184C32.0091 58.8224 28.9891 58.3326 26.2002 57.7184C27.0635 54.8986 28.1272 51.9675 29.3695 48.9866C30.2537 50.7143 31.178 52.4208 32.1416 54.1045C33.1248 55.8221 34.1483 57.5157 35.2113 59.184ZM49.5501 71.173C47.5704 69.0119 45.5959 66.6219 43.6672 64.0511C45.5392 64.1255 47.4479 64.1632 49.3878 64.1632C51.381 64.1632 53.3512 64.1181 55.2902 64.0305C53.3862 66.6482 51.4636 69.0417 49.5501 71.173ZM69.4867 48.8347C70.7935 51.848 71.8952 54.7633 72.7702 57.5355C69.935 58.1899 66.8743 58.7169 63.6492 59.1082C64.6827 57.4509 65.6835 55.7729 66.651 54.0752C67.6346 52.3499 68.58 50.6026 69.4867 48.8347ZM63.0326 51.9645C61.5514 54.5672 59.987 57.1205 58.3418 59.6204C55.4408 59.8301 52.4429 59.9382 49.3878 59.9382C46.3453 59.9382 43.3855 59.8423 40.5351 59.6554C38.8473 57.1614 37.2533 54.6036 35.7565 51.9877C34.2668 49.3856 32.8753 46.7272 31.5851 44.0183C32.872 41.3086 34.2593 38.6488 35.744 36.0446V36.0455C37.2282 33.4407 38.8096 30.8939 40.4849 28.4106C43.3929 28.1882 46.3743 28.0718 49.3883 28.0718C52.4156 28.0718 55.401 28.1891 58.3081 28.4132C59.9664 30.8928 61.5378 33.4307 63.0192 36.0223C64.5089 38.6207 65.9147 41.2675 67.2343 43.9584C65.9283 46.6767 64.527 49.3471 63.033 51.9645H63.0326ZM71.6494 4.78058C74.9234 6.69084 76.197 14.3936 74.1398 24.4951C74.0049 25.1532 73.8584 25.8087 73.7001 26.4614C69.6438 25.5146 65.2386 24.8098 60.6266 24.3721C57.9398 20.5021 55.1561 16.9832 52.3615 13.9375C53.0938 13.2233 53.8435 12.5277 54.61 11.8513C61.8287 5.49627 68.5754 2.9872 71.6494 4.78058ZM58.1184 43.917C58.1184 39.0394 54.2096 35.0849 49.3873 35.0849C44.5654 35.0849 40.6561 39.0394 40.6561 43.917C40.6561 48.795 44.5654 52.7495 49.3873 52.7495C54.2096 52.7495 58.1184 48.795 58.1184 43.917Z" fill="#53C1DE"/>
</svg>
