<?xml version="1.0" standalone="no"?>
<!DOCTYPE svg PUBLIC "-//W3C//DTD SVG 20010904//EN"
 "http://www.w3.org/TR/2001/REC-SVG-20010904/DTD/svg10.dtd">
<svg version="1.0" xmlns="http://www.w3.org/2000/svg"
 width="700.000000pt" height="700.000000pt" viewBox="0 0 700.000000 700.000000"
 preserveAspectRatio="xMidYMid meet">
<metadata>
Created by potrace 1.14, written by Peter Selinger 2001-2017
</metadata>
<g transform="translate(0.000000,700.000000) scale(0.100000,-0.100000)"
fill="#000000" stroke="none">
<path d="M3700 6641 c-130 -40 -196 -177 -141 -296 87 -190 364 -163 409 40
35 159 -115 302 -268 256z"/>
<path d="M4414 6294 c-148 -108 -300 -220 -339 -249 -38 -29 -132 -97 -208
-153 l-138 -101 -212 140 c-117 78 -245 163 -285 190 -40 27 -77 49 -82 49 -6
0 -10 3 -10 8 0 4 -14 15 -31 24 -30 18 -30 18 -24 -5 13 -43 646 -1962 655
-1982 4 -11 24 -69 44 -130 19 -60 36 -108 36 -105 0 3 30 91 66 195 36 105
71 208 79 230 7 22 50 146 95 275 45 129 87 253 95 275 7 22 45 132 85 245 40
113 80 230 90 260 10 30 59 172 108 315 50 143 124 358 166 478 41 120 78 222
81 227 3 6 4 10 2 10 -3 0 -126 -88 -273 -196z"/>
<path d="M2572 6210 c-29 -78 -163 -441 -175 -475 -7 -22 -36 -101 -64 -175
-28 -74 -79 -211 -113 -305 -64 -172 -102 -278 -113 -305 -69 -184 -106 -294
-100 -300 4 -4 105 -66 223 -137 224 -136 574 -348 600 -364 33 -20 237 -143
265 -159 17 -9 145 -87 285 -172 141 -85 265 -160 277 -166 19 -11 18 -5 -13
71 -19 45 -41 96 -48 112 -8 17 -37 86 -66 155 -29 69 -64 154 -80 190 -15 36
-58 137 -95 225 -37 88 -73 174 -80 190 -7 17 -75 176 -150 355 -75 179 -144
343 -154 365 -10 22 -75 175 -144 340 -251 597 -244 583 -255 555z"/>
<path d="M5425 6091 c-138 -36 -219 -180 -179 -319 39 -139 208 -221 336 -164
166 73 211 271 94 409 -51 61 -169 95 -251 74z"/>
<path d="M1802 5731 c-74 -25 -110 -58 -143 -129 -72 -154 43 -332 214 -332
138 0 249 123 234 259 -8 68 -22 96 -71 145 -64 65 -150 86 -234 57z"/>
<path d="M4900 5662 c0 -9 -45 -107 -130 -287 -15 -33 -71 -152 -123 -265 -52
-113 -114 -245 -137 -294 -22 -48 -52 -111 -64 -140 -22 -47 -48 -103 -129
-276 -29 -62 -60 -130 -125 -270 -16 -36 -62 -135 -102 -220 -151 -323 -201
-433 -198 -435 3 -2 153 104 860 610 138 99 279 199 312 223 61 43 92 64 397
282 89 63 178 127 198 141 144 102 747 532 751 536 3 3 -231 2 -520 -2 -289
-4 -600 -8 -693 -9 l-167 -2 -19 65 c-11 36 -36 121 -55 188 -20 68 -36 129
-36 137 0 8 -4 18 -10 21 -5 3 -10 2 -10 -3z"/>
<path d="M908 4638 c22 -37 199 -345 229 -398 11 -19 93 -163 183 -320 90
-157 174 -305 188 -330 14 -25 35 -61 48 -81 l22 -36 -149 -149 c-82 -82 -149
-152 -149 -155 0 -4 15 -5 33 -4 17 2 79 6 137 9 58 4 116 9 130 11 14 2 72 7
130 10 58 3 128 8 155 10 28 2 86 7 130 10 44 3 107 8 140 10 33 3 89 7 125
10 58 4 164 11 290 20 25 2 83 6 130 10 47 3 110 8 140 10 107 7 236 16 290
20 113 8 216 16 260 20 43 3 199 15 268 20 18 1 34 4 37 7 3 3 -34 23 -82 46
-49 22 -155 73 -238 112 -82 40 -190 91 -240 115 -84 40 -133 64 -445 212 -63
31 -155 75 -205 98 -49 24 -144 69 -210 100 -66 32 -160 77 -210 100 -49 23
-142 67 -205 98 -63 30 -212 101 -330 157 -118 56 -271 129 -340 162 -155 75
-271 128 -277 128 -3 0 4 -15 15 -32z"/>
<path d="M765 3831 c-174 -56 -237 -272 -120 -408 124 -146 356 -107 430 71 8
19 15 62 15 94 0 140 -112 253 -250 251 -30 -1 -64 -4 -75 -8z"/>
<path d="M3540 2943 c-55 -71 -110 -141 -123 -157 -49 -65 -609 -782 -621
-798 -18 -21 -285 -362 -311 -397 -11 -14 -64 -82 -118 -151 -54 -69 -124
-159 -155 -200 -31 -41 -61 -80 -67 -86 -5 -6 -21 -26 -35 -44 -14 -18 -29
-38 -35 -44 -5 -6 -30 -38 -55 -71 -25 -33 -47 -62 -50 -65 -15 -14 -50 -64
-50 -71 0 -5 6 -6 13 -4 11 4 105 19 287 46 65 10 79 12 180 29 30 5 75 12
100 15 25 3 56 8 70 10 33 6 48 8 310 49 124 19 239 37 255 40 17 2 48 7 70
11 22 3 67 10 100 15 33 5 78 12 100 15 121 18 158 25 164 30 3 4 6 23 7 43 9
230 21 559 29 797 3 94 8 229 10 300 3 72 7 184 10 250 2 66 7 203 11 305 3
102 7 202 8 223 2 20 1 37 0 37 -2 0 -49 -57 -104 -127z"/>
<path d="M3210 3019 c-19 -4 -55 -11 -80 -14 -25 -3 -90 -15 -145 -25 -55 -11
-118 -22 -140 -26 -22 -3 -85 -14 -140 -24 -55 -11 -167 -31 -250 -45 -82 -14
-188 -32 -235 -40 -47 -9 -100 -18 -119 -21 -18 -3 -43 -8 -55 -10 -11 -2 -46
-8 -76 -14 -30 -5 -92 -16 -137 -24 -45 -8 -101 -18 -125 -21 -24 -4 -61 -10
-83 -15 -22 -5 -60 -11 -85 -15 -25 -3 -76 -13 -115 -20 -38 -8 -110 -21 -160
-30 -49 -8 -99 -17 -110 -19 -18 -3 -70 -12 -135 -22 -14 -3 -47 -9 -75 -14
-27 -5 -63 -12 -80 -15 -16 -3 -40 -7 -52 -9 -11 -3 -43 -8 -70 -11 -26 -4
-53 -10 -60 -14 -7 -3 81 -49 195 -101 114 -52 266 -122 337 -155 72 -34 159
-75 195 -91 35 -16 123 -56 195 -90 l130 -60 -1 -35 c-1 -40 -13 -220 -19
-281 -2 -24 -6 -81 -9 -128 -5 -80 -10 -152 -22 -282 l-4 -57 53 57 c83 89
144 155 164 178 10 12 63 70 119 130 56 60 113 123 129 139 96 106 206 226
242 265 23 25 54 59 69 75 15 17 54 60 88 96 34 36 99 107 146 159 47 51 101
111 121 132 20 21 68 73 106 116 80 88 89 97 227 246 56 60 107 115 114 122
22 23 12 26 -48 13z"/>
<path d="M1120 2000 c-137 -37 -207 -181 -149 -305 63 -134 232 -166 348 -66
13 12 33 46 46 77 36 88 20 167 -46 233 -53 53 -135 78 -199 61z"/>
<path d="M2819 814 c-55 -16 -123 -78 -146 -132 -21 -49 -20 -137 2 -190 36
-87 142 -150 237 -140 83 9 135 43 185 121 36 56 39 161 6 223 -54 102 -172
150 -284 118z"/>
</g>
</svg>
