<svg width="81" height="80" viewBox="0 0 81 80" fill="none" xmlns="http://www.w3.org/2000/svg">
<path fill-rule="evenodd" clip-rule="evenodd" d="M55.8652 43.7666C60.4319 46.8666 63.6319 51.0666 63.6319 56.6666V66.6666H76.9652V56.6666C76.9652 49.3999 65.0652 45.0999 55.8652 43.7666V43.7666Z" stroke="#01669C" stroke-width="1.5" stroke-linecap="round" stroke-linejoin="round" stroke-dasharray="0.1 5"/>
<path d="M42.8815 26.6666C42.8815 33.6162 37.2478 39.2499 30.2982 39.2499C23.3486 39.2499 17.7148 33.6162 17.7148 26.6666C17.7148 19.717 23.3486 14.0833 30.2982 14.0833C37.2478 14.0833 42.8815 19.717 42.8815 26.6666Z" stroke="#01669C" stroke-width="1.5"/>
<path d="M4.38281 56.6666C4.38281 54.7254 5.34928 52.9695 7.05659 51.3938C8.76898 49.8133 11.1762 48.4653 13.9075 47.3711C19.3714 45.1823 25.9432 44.0833 30.2995 44.0833C34.6557 44.0833 41.2276 45.1823 46.6914 47.3711C49.4227 48.4653 51.83 49.8133 53.5424 51.3938C55.2497 52.9695 56.2161 54.7254 56.2161 56.6666V65.9166H4.38281V56.6666Z" stroke="#01669C" stroke-width="1.5"/>
<path d="M63.6319 26.6666C63.6319 34.0333 57.6652 39.9999 50.2986 39.9999C48.7319 39.9999 47.2652 39.6666 45.8652 39.1999C48.7336 35.6525 50.2985 31.2286 50.2985 26.6666C50.2985 22.1046 48.7336 17.6806 45.8652 14.1333C47.2652 13.6666 48.7319 13.3333 50.2986 13.3333C57.6652 13.3333 63.6319 19.2999 63.6319 26.6666Z" stroke="#01669C" stroke-width="1.5" stroke-linecap="round" stroke-linejoin="round" stroke-dasharray="0.1 5"/>
</svg>
