<svg width="81" height="80" viewBox="0 0 81 80" fill="none" xmlns="http://www.w3.org/2000/svg">
<path d="M64.9884 33.3178C65.5922 35.494 65.8983 37.742 65.8984 40.0003V40.0003C65.8984 45.5874 64.0268 51.0133 60.5824 55.4123C57.1381 59.8113 52.3194 62.9298 46.8956 64.27C41.4717 65.6103 35.7552 65.095 30.6583 62.8066C25.5615 60.5181 21.3781 56.5883 18.7759 51.6443C16.1736 46.7003 15.3024 41.0272 16.3013 35.5302C17.3002 30.0332 20.1117 25.0292 24.287 21.3169C28.4623 17.6045 33.7608 15.3978 39.3369 15.0488C44.9131 14.6999 50.4454 16.2288 55.0509 19.3916" stroke="white" stroke-width="2.5" stroke-linecap="round" stroke-linejoin="round" stroke-dasharray="0.1 5"/>
<path d="M28.2402 40.2553L37.359 49.4753L65.284 20.6104" stroke="white" stroke-width="1.5" stroke-linecap="square"/>
</svg>
