<?xml version="1.0" encoding="utf-8"?>
<!-- Generator: Adobe Illustrator 26.2.1, SVG Export Plug-In . SVG Version: 6.00 Build 0)  -->
<svg version="1.1" id="Шар_1" xmlns="http://www.w3.org/2000/svg" xmlns:xlink="http://www.w3.org/1999/xlink" x="0px" y="0px"
	 viewBox="0 0 876 584" style="enable-background:new 0 0 876 584;" xml:space="preserve">
<style type="text/css">
	.st0{fill-rule:evenodd;clip-rule:evenodd;fill:#F2F7FA;stroke:#DBEAF1;stroke-miterlimit:22.9256;}
	.st1{fill-rule:evenodd;clip-rule:evenodd;fill:#FFE187;stroke:#DBEAF1;stroke-miterlimit:22.9256;}
	.st2{fill-rule:evenodd;clip-rule:evenodd;fill:#B2D1E1;stroke:#DBEAF1;stroke-miterlimit:22.9256;}
	.st3{fill:#B2D1E1;stroke:#DBEAF1;stroke-miterlimit:22.9256;}
	.st4{fill:#01669C;}
	.st5{fill:#F2F7FA;}
	.st6{opacity:0.2;fill:#3485B0;enable-background:new    ;}
</style>
<path class="st0" d="M602.9,476.8c-0.5-0.5-1.6-1.6-1.2-2.6c0.1-0.1,2.1,0.6,2.5,1c0.8,0.8,1.4,1,1.8,1.9c0.3,0.7-1.1,0.5-1.8,0.7
	c-0.3,0.1-0.6-0.1-0.8-0.2L602.9,476.8z M563.5,583c0.2,0,0.5-0.1,0.7-0.3c0.7-0.4,4.4-1,5.3-1c2.5,0.1,2.9,1.3,5.7-0.5
	c1.5-0.9,3.8-0.9,5.1-2.2c1.1-1,1.7-0.7,2.2-2.4c0.6-2,1.3-0.9,2.3-1.3c3-1.4,2.5-2.5,3-2.8c0.7-0.5,0.4-0.4,1.4-0.6
	c2.1-0.5,1.5-1.4,2.3-2.4c0.4-0.5,0.3-1.6,1.1-2.6c0.3-0.4,0.6-1.3,1.2-1.9c0.9-1.1,0.9-1.7,2.1-2.9c1.3-1.3,1.7-2.2,3.6-2.7
	c0.6-0.1,6.7-3.7,8.3-4.4c1.1-0.4,2.1-1,3.2-1.2c2.3-0.1,2.4,0.1,4.5-0.3c1.8-0.3,3.6-0.8,5.4-1.3c0.9-0.2,3.9-0.1,3.9,1.4
	c-0.1,1.2,0.9,2.2,2.2,1c1.5-1.3,2.1-1,2.5-2.8c0.2-0.9,0.4-0.9,0.5-2.2c0-0.6,0.9-2.3,1.9-2.2c1.3,0.1,2.8-0.7,3-2
	c0.5-2.7,2.9-2.4,4.9-1.6c0.5,0.2,1.3,0.3,0.7-0.6c-1.5-2.1,1.5-1.6,2.2-3c0.4-0.7-3.1-0.9-0.9-3.2c1.3-1.3,4.1-4.4,5.9-4.7
	c2.8-0.4,3.8-0.5,6.6,0.5c2.5,0.9,3.9,1.9,5.9,3.6c1.6,1.3,1.7,4.1,3.3,4c1.8-0.1,0.4-1.8,3.3-0.4c1.6,0.8,3.8-0.5,5-1.6
	c2.2-1.3,2.5-1.1,4.7-1c2.6,0.2,2.7,2.6,5.3,1.1c0.2-0.1,2.9-1.5,3-1.5c3,0,4-0.2,6.9-1.4c1.5-0.6,0.7-2.3,0-3.2
	c-1-1.4,1.1-2.4-2.1-2.8c-1.5-0.2-3-1.2-0.9-1.3c0.5,0,3.6-0.4,2.1-1.3c-2.5-1.5,2.4-3,1.2-5c-0.7-1.1,2.3-1.1,1.6-2.3
	c-0.9-1.5-0.9-1.3-0.4-3.2c0.7-2.8,2.8,1.6,7-0.4c0.9-0.4,1.1-2,1.8-2.7c0.3-0.3-1.3-0.6-1.8-1c-0.8-0.5-0.9-0.8-1.4-1.4
	c-0.3-0.4-2.8-0.8-3.5-1.3c-0.8-0.5-2.5,0.8-4.2,0.3c-1.3-0.4-2-1.5-2.7-1.7c-0.4-0.1-1.2,1.3-2.7,0.7c-0.6-0.2,0.6-2.4-3.9-0.7
	c-1.4,0.5-3.1,0.7-4.5,0.8c-1.4,0.1-2.3,1.4-3,2.5c-0.8,1.2-0.7,2.5-3,2.9c-2.2,0.4-2.2,0.4-4.4-0.5c-1.1-0.5-2.3-1.1-2.3-2.4
	c0-0.8-0.6-2.3-1.4-2.6c-1.8-0.5-0.9-0.2-1.5,1.7c-0.3,1.1-1.1,0.5-1.6,2.1c-0.3,0.8-0.5,1.1-0.6,2.1c0,1.9-3.2,2.4-4.5,3.2
	c-0.8,0.5-1.8,1.3-2.6,1.7c-1.2,0.3-2.1,0.6-3.2,1.1c-1.4,0.7-3.2-2.4-3.2,0.4c0,0.8-2.5,1.1-3.2,1.2c-1,0.2-3-0.4-3.5-0.4
	c-1.6-0.8-2.6-1.2-4-2.2c-0.1-0.1-3.8-1.8-4-1.8c-1.1-0.2-4.2-0.9-4.6-2c-0.6-1.4-3.5-1.1-2.4-3.8c0.6-1.5-0.6-1.6,0.7-1.9
	c1-0.2,2.1-1.4,2.4-2.3c0.8-2.2,0.2-1.8-0.3-3.4c-0.1-0.4-1.2-2.1-1.6-2.4c-0.7-0.6-0.5-2-0.5-2.8c0-0.6-0.9-1.5-1.4-1.9
	c-0.8-0.7-0.6,0.4-1.6-1.3c-1.4-2.5-2.9-0.9-3.8-2.4c-0.2-0.4-0.3-0.5-0.7-0.8c-3.4-1.1-1-1-0.7-2.6c0.1-0.7-1.8,0.2-2.6,0.2
	c-0.5,0-5.1,0.3-3.9-0.9c2.4-2.3,1-2,0.6-4.4c-0.2-1.6-1.9,0-2.9,0.5c-0.4,0.2-2.5,1.7-2.8,0.8c-0.2-0.5,2.1-2,1.7-2.9
	c-0.2-0.4,1.7-2,0.7-2.8c-0.4-0.3-1.9,1.6-2.6,2c-1,0.7-3.5,4-4.4,3.8c-1.8-0.4,1.1-2.4,1.1-3.9c0-1.1,0.4-0.9,1.3-1.9
	c0.7-0.7,1-1.1,1.1-2.2c0.1-0.8-1.6,0.4-2.6-0.6c-1.3-1.3-2.4,2.5-3.8,2c-1-0.4,1-3-0.6-3.6c-0.4-0.2-1.7,1.9-2.7,1.1
	c-0.6-0.5,0.7-1.9-0.3-2.1c-0.7-0.2,0.1-1.6-0.7-2c-0.7-0.4,0.7-2.5-0.6-3.4c-0.6-0.4-1.4,1.4-1.6,1.8c-1.7,0.3-1.3,0.5-1.9-0.4
	c-0.2-0.4-0.4-2.5-1.7-1.3c-0.2,0.2-1.6-1.4-3.1-1.4c-1.2,0-2.1-0.3-3.2-0.6c-0.4-0.1-1.7,0.5,0.1,1.3c1.1,0.4,2.7,2.4,2.4,3.7
	c-0.3,1.4,1.8,1.5-1.1,2.6c-0.8,0.3-2.3-0.3-1.2-1.4c2.2-2.2,0-2.5-0.5-3.6c-0.4-0.9-1.3-0.4-2.1-3c-0.2-0.7-1.6-1.6-2.4-1.8
	c-0.8-0.1-3.1-0.9-3.5,0c-0.9,2-2.7,2-4,0.5c-2.8-2.9-0.8-1.5-2.1-4.9c-1.1-2.9-0.1,1.1-2,1.4c-1.1,0.2-1.3,0.2-2.2-0.6
	c-0.3-0.2-1.1-1.1-1-1.5c0.2-0.9,0.1-1.6,0-2.2c-0.6,0-1.9-0.7-2.5-1c0,0-1.4-0.5-1.4-0.6c-0.4-0.4-1.2-0.5-1.6-0.3
	c-0.1,0.1-0.1,2.4-0.1,2.6c0,1,0,1.3,0.1,2.4c0.3,0.2,0.4,0.7,0.6,1.9c0.1,0.7,0.4,2.5,0.3,3.1c-0.2,1.6,0.3,0.6-0.4,2.4
	c-0.5,1.3-0.3,1.9-0.5,3.1c0.1,1.2-0.1,3,1.2,3c1.2,0,0.6-0.3,1.9,0.2c1.3,0.5,1.3-0.7,3.1,1c1.9,1.8-3.8,0.3-3.1,3.8
	c0.2,0.8,0.4,2.6-1,2.1c-1.1-0.4-0.4,0.1-1.5-1c-1.9-1.9-1.4,0.7-3.6,1.3c-1.2,0.3-2.5-0.7-3.9,0.2c-1.7,1.5-2.8,2.7-4.8,3.8
	c-0.8,0.4-3,1.9-3.7,2.4c-0.7,0.6-2.8,1.5-3.4,0.3c-0.3-0.6-1.8-2-2.3-0.8c-0.1,0.4,1,2.1-0.4,1.9c-1.3-0.2-4.7,1.9-5.9,2.6
	c-0.6,0.3-1.5,1.2-2.4,1.7c-0.7,0.4-3.7,2.5-4.5,3.1c-2.2,1.7-0.9,1.2-1.9,3.6c-0.3,0.8-2.5,1.3-3.4,1c-1.7-0.5-2,1.8-3.9,2.3
	c-2.2,0.6-3.6,1.6-5.1,3.3c-1.2,1.4-2.3,1-4.1,3.6c-0.8,1.1-2.1,2.4-1.6,4c0.3,1.1,1.4,0.4,2.5,1.6c1.2,1.3,3.2,1.8,4.7,0.9
	c2.9-1.6,6.5-3.9,10-2.6c1.3,0.5,3.4,1.1,4.8,0.7c2.2-0.7,3.7-1.2,5.9-2.3c1-0.5,3.6-2.3,2.2,0.2c-0.9,1.6-1.9,0.7-3.2,3.4
	c-0.5,1.1-1.2,1-1.1,2.6c1,2.9,1.3,2,3.2,3.4c1.6,1.2,1.2,1.2,2.3,2.6c1.3,1.8,2.3,0.1,4.5,2.9c1.6,2.1,1.6,1.5,3.4,0.2
	c1.2-0.9,0.4-1.6,2.5-2.2c0.4-0.1,5,1.3,5.4,1.9c1.1,1.5,0.6,1.4,2.2,2.8c2.8,2.6,2.8,6.3,3.7,9.7c0.1,0.5,0.4,2.5,0.2,2.9
	c0.2,1.1,0.5,4.2,0.3,5.5c-0.2,1.3-1.1,1.7-1.8,2.1l0.9,1.2c1,0.7,2.3,1.1,3.5,1.4c0.5,0.1,1.5,1,0.6,1.5c-1.2,0.7-3.2,1.5-2.5,3.3
	c0.4,0.9,2.9,0.4,3.7,0.6c0.4,0.1,0.1,0.1,0.8,0.3c1.1,0.2,1.2,0.3,2.1,1.1c0.6,0.6-0.5,2.2-0.7,2.8c-0.2,0.7-0.8,1.2-0.6,2.3
	c0.3,1.8,1.4-0.2,2.6,0.9c0.2,0.1,0.3,0.7,0.3,0.9c0.1,1.4,0.5,1.9,1.2,3c0.3,0.5,1.5,1.6,2,2.4c1.6,2.4,3,2.7,3,6
	c-0.5,0.6-0.6,0.4-1.2,0.5c-0.7,0.2-1.9,0.1-2.6,0.3c-0.4,0.1-0.9,0.1-1.3,0.2c-0.5,0.1-1.4,0.2-1.7,0.7
	C563.7,582.1,563.5,582.9,563.5,583z"/>
<path class="st0" d="M553.6,553l0.9,1.2c1.1,0.7,2.3,1.1,3.6,1.4c0.5,0.1,1.5,1,0.6,1.5c-1.2,0.7-3.3,1.4-2.5,3.2
	c0.4,0.9,2.9,0.3,3.8,0.6c0.4,0.1,0.1,0.1,0.9,0.3c1.2,0.2,1.3,0.3,2.2,1.1c0.6,0.5-0.5,2.1-0.8,2.8c-0.2,0.7-0.8,1.2-0.6,2.2
	c0.3,1.8,1.4-0.2,2.7,0.9c0.2,0.1,0.3,0.6,0.3,0.9c0.2,1.3,0.5,1.9,1.2,3c0.3,0.5,1.5,1.5,2.1,2.3c1.7,2.4,3.1,2.7,3.1,5.9
	c-0.5,0.5-0.6,0.4-1.3,0.5c-0.7,0.2-1.9,0.1-2.7,0.3c-0.4,0.1-0.9,0.1-1.4,0.2c-0.6,0.1-1.4,0.2-1.7,0.7c-0.1,0.2-0.2,0.9-0.3,1.1
	c-0.8,0-1.2-0.8-1.9-1.2c-2-1.1-1.5,0.5-3.3-2.2c-0.4-0.9-0.7-0.8-0.8-2c-0.1-1.3-2.2-1.8-3.2-1.7c-1.4,0.1-1.7-0.1-2.7-0.1
	c-3.5,0-3.8-1.6-6-3.6c-2.5-2.3,2.1-2.4,3.2-3.3c0.8-0.7,1.1-0.7,1.8-1.2c1.5-1.1,1-0.9,1.8-2.3c0.8-1.4,0.8-4.1,0.4-5.6
	c-0.4-1.9-0.4-3.8-0.2-5.7C552.8,553.5,553.2,553.2,553.6,553z"/>
<path class="st0" d="M207.9,291.8c2.2-1.3,2.3-1.4,3.3,0.8c0.7,1.4,1,4.2,2.4,5.1c0.6,0.4,1,1.1,2.2,0.7c1.5-0.5,0.7-1.6,0.4-2.9
	c-0.1-0.7,0.4-2.2,1.4-1.2c0.7,0.7,5.5,3,3.6-0.8c-1.2-2.4-2-0.7-3.4-2.6c-0.7-0.9,0.7-1,1.6-0.6c0.8,0.5,1.1,0.2,2,1.2
	c0.7,0.8,1.9,0.4,1.4-1.3c-0.1-0.4-0.8-2.1,0.4-1.8c0.7,0.2,1,3.6,2.5,2c1-1.1-0.6-3.9,0.7-3.3c2.1,1,2.6,1,3.1,3.6
	c0.6,2.9,2.4-1.1,3.4-1.4c0.5-0.2,0.7-0.3,1.3-0.5c2.8-0.2,2.2,0.3,4.3,0.9c0.6,0.2,3.6,0.6,4-0.2c1-1.8,3,1.5,4.3,0.2
	c0.9-0.9-1.4-2.1-0.4-3.2c2-2,3.8,2.2,5.9-0.2l1.3-1.1c2.9,0.2,2,0.6,3.1,2.4c0.1,0.1,1.2,2.2,1.2,2.2c0.8,1.8,0.3,3.1,1,4.4
	c0.4,0.7,1.5,1.6,1.8,2.1c-0.3,0.4-1.5,2-1.9,2.3c-1.6,1.3-2.4,3.8-4.3,1.5c-0.7-0.9-1.3-2-2.5-1c-2.8,2.4-0.1,3.7-3.2,4.2
	c-3.6,0.5-2.9-1.5-5.1-0.1c-1.1,0.7-2-0.9-2.4-1.8c-0.5-1.1-2.7-1.5-3.8-1.1c-1.1,0.4,0.8,1.1,0.1,2.4c-0.8,1.5-2,2-3.7,1.6
	c-1.7-0.4-2.8-0.6-3.6-2.4c-1.2-2.4-6.1-0.4-7.8-0.5c-0.5,0,0.7,2.2,1.3,2.7c1.8,1.4,1.4,1.7,2.5,2.8c1.7,1.7,0.4,5.2-4.6,0.2
	c-1.9-1.9-2.1,1.5-2.5,2.4c-0.6,1.4-0.7,1.7-1.3,3.4c-1.4,0.7-3.4,1.9-4.1,2.1c-1.2,0.3-0.4-0.6-1.5,0c-1,0.5-1.3,0.8-1.9,0.6
	c-1.8,0.5-3,1.9-5.2,1.5c-2.3-0.4-3.2,2.2-3.2,4.2c0,3.3-1.7,3.2-2.7,4.9c-1,1.6-2.3,2.4-3.6,3.6c-3.2,2.9-3.6,1.8-7.3,2.7
	c-2.3,0.6-2.1-0.2-4.9,1.2c-0.7,0.1-1.2,0.1-1.9,0.1c-4.5,0-4.5,2.6-9.2,1.7c-3.3-0.6-5.6,0.5-8.8,0.6c-2.2,0-4.4,0.5-6.5,0.9
	c-1.2,0.2-3.5,1.1-4.6,0.7c-1.5-0.5-3,4.5-3.5,5.5c-0.9,1.9-2,4.4-4,5.3c-3.4,1.6-4,2.1-7.9,2.3c-0.4,0-0.8,0.1-1.1,0.1
	c0.2-3,2.1-6.7,2.3-9.7c0.2-2.4-2-1.8-2-5.4c0-0.5-0.8-4-0.9-4.3c-0.5-1.1-0.4-1.1,0-2.1c0.3-0.7,1.4-1.9,1.9-2.6
	c1-1.3,1-0.5,1.7-2.1c0.1-0.2-0.6-2.6,0.7-2.2c1.1,0.4,1.6-1.8,2.5-2.2c2.3-1,0.2-2.7,2.7-2.7c1.2,0-0.8-2.9,0.3-3.7
	c1.2-0.9,1.9,0.4,4.2-3.2c0.6-0.7,1.6-2.9,2.7-3.9c0.2-0.2,0.8-0.9,1-1.2c0.5-0.8,1.1-1.2,1.6-1.9c0.8-1,7-2,8.3-2
	c2.6,0,1.6,1.2,4.5,0.9c2.2-0.2,1.5-2.6,1.1-4c-0.5-1.8-0.2-5.5-0.6-6.8c-0.4-1.3-0.8-3.9-0.9-5.3c-0.2-2.6,0.7-2.7,2.7-4.3
	c2.5-0.4,1.7-0.3,3.4,0.8c3.4,2.1,2.6-2.5,5-0.9c1.6,1.1,0.7,0.1,1.1,1.9c0.1,0.6,1.2,0.8,1.9,2.2c0.7,1.6,2.4,1.1,3.4,0.1
	c1.2-1.2,3.1,1.5,5.4-2.1c0.2-0.3,0.1,0.3,0.4,0.8c0.3,0.5-0.1,1.9,0,2.6c0.1,1,0.4,0.8,0.5,2.2c0.2,1.5,3.1,1.3,2.5-0.2
	c-0.4-0.9-0.3-3.3,0.5-3.7c0,0,0.2,0.9,0.5,1.2c2.1,1.9-0.1,5.5,3.7,4.3c3.3-1.1,3.9,2,6.6,2.3C204.9,294,207.5,292.1,207.9,291.8z"
	/>
<path class="st0" d="M169.8,282.5c2.5-0.4,1.7-0.3,3.4,0.8c3.4,2.1,2.6-2.5,4.9-0.9c1.6,1,0.7,0.1,1.1,1.9c0.1,0.6,1.2,0.8,1.9,2.2
	c0.7,1.6,2.4,1.1,3.4,0.1c1.2-1.2,3,1.5,5.4-2.1c0.2-0.3,0.1,0.3,0.4,0.8c0.3,0.5-0.1,1.9,0,2.6c0.1,1,0.4,0.8,0.5,2.2
	c0.2,1.5,3.1,1.3,2.5-0.2c-0.4-0.9-0.3-3.3,0.5-3.7c0,0,0.2,0.9,0.5,1.2c2.1,1.9-0.1,5.5,3.7,4.3c3.3-1.1,3.9,2,6.6,2.3
	c0.3,0,2.9-1.8,3.3-2.1l-2-1.5c-0.4-0.3-1.6-0.9-1.8-1.3c-0.7-1.3-2.3-2.3-2.8-3.7c-0.5-1.6,0.3-2.8-0.8-3.7c-2.3-2-2.4-5.6-2.6-8.5
	c0.9-2.4,0-3.6,0-5.9c0-2.1,0.1-1.3-0.7-2.8c-0.4-0.8-0.2-2.6,0-3.2c0.4-1.1-1.9-2.5-0.4-4c1.4-1.4-1.2-1.7-0.7-3.4
	c0.3-0.9,0.5-2.6,0.6-3.6c0.1-1.1-0.5-1.7-0.4-2.6c0-1.4-0.2-2.9-0.1-4.3c0-0.6-0.5-2.3-0.4-2.4c2.5-2.8,4.1-0.5,3.1-4.1
	c-0.2-1.7-0.2-7.3-0.9-8.6c-1.1-2.2-1.1-2.2-1.7-4.5c-0.2-0.7-0.8-2-1.1-2.7c-0.5-1-0.4-0.3-0.4-1.4c-0.1-2.9,2.9-2.5,2.7-5.4
	c-0.1-1.8-0.2-3,1.5-4.1c0.1-0.1,0.6-0.8,0.6-0.8c0-1.5-0.1-2.6-1.5-3.5c-1-0.6-0.2-1.5,0.4-2.5l0.1-0.4c0.4-1.5-0.7-3.7-1.5-4.9
	c-1.6-2.2-0.4-4.8-2.3-5.9c-2.4-1.3,0.7-4.5,0-5.5c-0.5-0.7-0.2-0.8,0-1.4c0.3-1.2,2-1.5,2-2.3c0.1-2.4-2.4-0.3,0.1-3.2
	c0.4-0.5,0.2-2.5,0-2.9c-1-1.7,3.1-1,2.4-3c-1-2.7-1.4-0.4-1.3-4l-0.1-0.1c-1-0.5-0.8-1.2-1.3-1.5c-2.6-1.1,0.7-3.7,0.8-4.6
	c0.1-1.8-1.4-0.3-2.5,0.3c-3.6,2-3.1,0.3-3.9,0c-1.1-0.4-1.8,0.6-3.1,1c-0.5,0.2-2.2-0.9-2.5-1.2c-0.8-0.6-3.1,1.3-3.5,2
	c-0.8,1.4-2,2-3.1,3c-0.8,0.7-3.8,1.1-4.6,0.8c-2-0.6-3.6,1.2-5,1.7c-0.6,0.2-2.5-0.1-2.9-0.4c-0.7-0.6,0.3,0.1-1.1,0.8
	c-0.5,0.2-2.7-0.5-2.8-0.7c-1-0.9-1.6,2.7-1.4,3.2c0.3,0.6-0.3,2.4-0.5,3c-0.8,1.7-0.9,1.6-2.1,2.7c-1.9,1.8-1.2,0.2-2.9,2.9l1.5,1
	c0.1,0.1,0.9,0.6,1,0.6c1.6,0.5,0.1,3.4,0.1,4c-0.2,2.8-0.3,1.8-1.6,4.6c-0.4,0.5-3.5,2.2-4.1,2.3c-1.8,0.3-2.6,1.7-4.4,0.7
	c-1.6-0.9-2.1,1.5-3.7,0.7c-1.6-0.8-0.4,2.5-0.8,3.4c-0.6,1.4,0.2,2.1,0.1,2.9c-0.3,1.9-2.6,0.9-3.4,1.1c-0.6,0.1-0.7,1.6-0.8,2.3
	c-0.2,1.1-0.4,2.2-0.9,3.1c-0.8,1.4-1.5,1.2-2.2,1.7c-1,0.8-2.6,0.7-3.4,1.5c-0.8,0.7-5.2,2.7-6.1,2.4c-0.8-0.4-0.7,1.8-0.8,2.3
	c-0.3,1.2-0.2,1.9-0.2,3.2c0.4,2.1,0.8,3.3,1.5,5.3c0.6,1.7,0,3.2,2.2,3.1c0.8,0,2.5,0.4,2,1.5c-0.4,1.2-0.8,1.7-1,3
	c-0.2,1.3,1.2,1,0.9,3.4c-0.2,1.9,0.5,1.3,2.3,2.3c1.1,0.6,2.1,0,0.7,2.3c-1.5,2.4-2.2,2.6-1.4,5.7l0.1,0.3c0.4,0.1,4.5,1.2,4.9,1.7
	c0.1,0.1,0.1,1.8-0.1,1.9c-0.8,0.7-6.2,0-1.8,3.9c0.9,0.8,1.1,0.1,1.9,1.9c0.6,1.5,2.1,1.6,3.6,1.9c2.6,0.6,2.6,0.1,4.1,2.6
	c0.2,0.3-0.7,1-0.3,2.2c0.3,1,0.1,4.8,1.9,2.8c0.6-0.7,2.1-3.1,2.7-3.4c1.1-0.6,0.4,3.4,0.4,4c0,1.7,0.5,0.5,1.9,1.4
	c0.7,0.5,2.4,0.5,3.2,0c1.8-1.2,2,1.7,4.8-0.4c1.7-1.3,0.5,1.8,1.7,2.6c2,1.4,2.4,0.3,4.1,2.4c1.1,1.3,3.7,1.5,3.4,3.9
	c0,0.2,0,0.4,0,0.6c0.5,1.6,0.3,1,0.7,1.9C170.5,279.8,169.9,282.2,169.8,282.5z"/>
<path class="st0" d="M350.5,76.4l1.1,1.5c-0.1,1.1-0.3,1.6-0.2,2.6c0.1,1.5-2.5,1.3-1.9,2.9c0.2,0.4,0.1,1.6-0.4,2
	c-0.9,0.6-2,1.1-3,1.5c0,0.1,0.4,1.4,0.4,1.8c-0.1,1.4,0.3,3.8,0.3,5.3c0,0.5,1,5,1.9,2.5c0.4-1,2.1-2.3,2.6,0.1
	c0.1,0.8,1.3,2.1,2.1,2.4c0.5,0.2,3.6,2.7,3.7,3.2c0.3,1.2-0.4,1.8-1,2.8c-0.2,0.3-0.4,0.5-0.5,0.9c-0.6,2.7-0.5,1.9-2.8,2.9
	c-0.8,0.4-0.6,1.6-0.2,2.2c0.8,1.3,0,0.4,1.3,1.2c2.2,1.4-0.3,2.1,2.8,4.9c1.2,1.1-1.4,2.3,0.4,3.1c2.2,1-0.7,1.4,0.3,2.5
	c0.9,1-1.7,2.2,0.8,2.2c0.2,0,1.9,0.3,2,0.5c0.1,0.3,0.1,1.1,0.3,1.8c0.1,0.3,0.3,2.2,0.1,2.6c-0.8,2.3-1.9,2.2-3.8,3.2
	c-0.9,0.5-1.1,1.5-1.8,2.5c-0.6,0.8,1.3,2.7,1.5,4c0.2,4.4-0.5,1.7-1.8,3.1c-1.1,1.2,1.1,1.7,1.5,3c0.8,2.5-0.6,1.4-1.6,2.9
	c-0.3,0.5,2.4,1,1.4,1.9c-0.1,0.1-1.8,2.2-0.9,2.2c1.6,0,1.7-1.3,3.9-0.4c1.8,0.8,0.4,1.6,1.6,2.6c1.1,0.9,3.2-0.4,2.4,2.2
	c-0.6,1.9,1.2,1.1,2.8,2.2c0.3,0.2-0.8,3.3-0.3,4.4c0,0.1,0.4,2.6,0.2,2.9c-2.6,4.3-0.3,3.2-0.4,5.1c-0.2,2.8-0.1,1.3-1.1,2.8
	c-0.9,1.3,1,2.3,1.2,3.2c0.1,0.6,0.9,0.7,0.2,2.4c-1,2.4,0.3,2.9,0.9,5.3c0.6,2,1.2,2.7-0.4,4.5c-0.7,0.8-2.4,0.7-2.3,3
	c0,1-2.1,2.1-2.7,2.9c-1.4,1.8-3.4,0.4-4.2,1c-1.1,0.8-0.3,1.4-2.4,1.8c-0.8,0.2-1,1.1-0.2,1.7c1.4,1.1-1.5,2.8-0.3,4.3
	c0.7,0.8,2.5-1.9,2.5,3.4c0,0.3,0,0.6,0,0.9l-0.2,0.9c-1.9,0.6-4.3-2.2-6,1.3c-0.6,1.2-2.6,2.1-3.6,1.2c-0.8-0.7-1.8,0.5-1.8,1.3
	c-0.1,2.3-3.3,1-4.7,0.7c-3-0.8-3.5,0-6.1-0.2c-2.9-0.2-2.6-0.2-2.6-2.9c0-2.6-0.3-1.4-0.7-2.8c-0.2-0.6,0.7-2.8,0.8-3.2
	c0.2-0.5,1-1.7,0.6-2.2c-1-1.2-1.9-2.4-2.5-3.9c-0.4-1.1,1.5-3.2,0.3-3.9c-1.6-1-1.2-0.7-2.1-2.3c-0.4-0.8-2.4,0.7-3,1.1
	c-1.2,0.7-1.7,0.7-3.1,1.3l-0.2,0.1c-0.6,0.2-1.7,1.5-1.9,2c-1.1,2.8-2.4,0.5-3,0.3c-1.9-0.7-2.6,1.5-3.2,2.2
	c-1,1.2-1.8,0.1-2.4-0.5c-3.5-4.1-3.4-0.8-5.4-2c-1.9-1.1-2.2,3.1-4.3,2.1c-1.6-0.7-3.7-0.3-4.4-0.5c-1.6-0.5-3.4,1.2-5.3,0.8
	c-0.7-0.1-2.3,0.3-3,0.6c-1.5,0.6-3.5,0-5.1,0c-1.9,0-2,0.4-3.5,0.9c-3,1-2.1,0.4-4.9,2.5c-0.5-0.1-1.1-0.2-1.7-0.3
	c-3.6-0.7-2.2-3.5-2.6-4c-1-1.2-2.4-0.8-3.5-0.8c-0.9,0-1.2-2.3-1.4-3.2c-0.8-2.7,0.7-3.6-2.2-4.6c-1.1-0.4-1.6-1.3-1.1-2.4
	c1.3-3.1-0.2-3.7,0.2-4.9c0.7-2.2,2.6,0.3,3.2-0.9c0.9-1.6,2-0.9,2.3-1.6c0.5-1.5-0.2-2.8-1.6-3.5c-1.6-0.7-0.3-1.5-0.9-2.9
	c-0.2-0.5,0.3-1.5,0.9-1.8c1-0.4,2.3-2.2,1.4-2.8c-1.5-0.9-1.7,0.9-2.5-2c-0.2-0.3-0.1-0.3-0.2-0.6c-0.7-1.7,0.9-0.8-2-2.6
	c-1.5,0-1.4,1.1-2.8,1.2c-0.6,0-2-1.5-2.5-2c-1.1-1.2-1.6-0.7-2.6-2.6c-1.1-2-0.4-1.4-2.3-2.5c-0.3-0.2-1.9-0.7-2-0.8
	c-0.9-1.2,0.3-2.5-1.1-3.5c-1.2-0.8-0.9-0.3-1.4-1.5c-0.4-1,0.6-5.2,1.4-6.1c0.4-0.5-1-1.2-1.4-1.4c-1.7-0.7-2.7-2.8-3.2-4.4
	l0.7-0.7c0.5-0.1,1.3-1.2,0.9-1.9c-0.7-1-0.6-0.8-0.9-1.9c-0.1-0.7-0.5-3.1,0.2-3.6c1.1-0.8,2.5-3.9,2.6-5.2c0.2-3-1.1-0.7-0.3-5.2
	c0-0.7-0.7-2.6-0.9-3.6c-0.3-1.7,0.3-3.7-0.4-4.9c-1.6-3.3,0.5-2.9-1.1-5.9c-0.6-1.2,1.3-3.3,1.9-3.4c1-0.2,2.1-1.1,3-1.8
	c0.9-0.7,2.1-3.2,2.2-4.4c0.2-2.2,1.5-3.6,1.6-4.5c0.2-1.8,1.3-3,2.4-4.5c1.5-1.8,1.8-2.9,0.9-5c-0.3-0.6-0.2-1.6,0.4-1.8
	c1.8-0.6,1.3-1.4,1.9-2.5c0.9-1.7-0.5-2.7-0.5-3.2c-0.1-1.4,0.3-1.6,0.4-3c0.4-3.4,1.8,0.4,3,1c2,1,0.8-2.3,0.9-3.1
	c0.1-1-0.3-1.6,0.4-2.1c1.6-1,0.9,0.2,3-1.8l2.4-0.6c2,3,2.3,2.8,3.9-0.6c0.6-1.2,1.8-0.1,2.1-2.4c0.1-0.5-0.3-1.2-0.1-2.3
	c0.3-1.1-0.4-2.8,1.1-4c0.6-0.5,2.1,1.5,2.4,1.6c1.1,0.1,2.2,0.4,1.8,1.7c-0.4,1.3,0.8,2.4,2.4,1.9c1.4-0.4,1.7-0.6,3.2-0.8
	c1.8-0.3,5.1-3.7,5.5-5.6c0.3-1.5,4.6-2.8,5-2.4c0.7,0.7-1.3,3,0.7,4.2c2.5,1.5,2.2,2.3,3.6,4.7c0.7,1.3,2.6,0.2,3.3-0.8
	c0.6-0.9,2-2.7,3.2-1.9c1.3,0.8,4.5,1.1,6,1.2c4,0.4,1.3,2.4,2.3,5.2c0.7,2.1,0.4,2.3,0.8,4.1c0.1,0.4,0.7,1.9,1.4,1.2
	c2.2-2.6,1.5,2.1,3.3,2.1c1.1,0,0.2-1.6,0.1-2.6c-0.3-2.6-1.4-3,0.7-5.1c1.5-1.5,1.3-2.5,2.2-3.5c0.1-0.1,3.2-1.7,3.2-1.8
	c2.1,0.1,1.4,0.2,2.8,0.5c1,0.2,4-1.5,4.4-2.5c0.2-0.4,2.6-3,2.9-3.1c0.8-0.4,3-0.4,3,0.8c0.1,2.2,0.6,2.8,1.8,4.6
	c0.6,0.8,3,0.1,2.4,3.2c-0.7,3.2,1.6,4.1,2.5,6.7c0.3,0.9,1,4.5,1.3,4.7C349.1,77.1,349.7,76.8,350.5,76.4z"/>
<path class="st0" d="M207.9,291.3c2.3-1.3,2.3-1.4,3.3,0.8c0.7,1.3,1,4.1,2.4,5.1c0.6,0.4,1,1.1,2.2,0.7c1.5-0.5,0.7-1.6,0.4-2.9
	c-0.1-0.7,0.4-2.2,1.4-1.2c0.7,0.7,5.5,2.9,3.6-0.8c-1.2-2.4-2.1-0.7-3.4-2.6c-0.7-0.9,0.7-1,1.6-0.6c0.8,0.5,1.1,0.2,2.1,1.2
	c0.8,0.8,1.9,0.4,1.4-1.3c-0.1-0.4-0.8-2,0.4-1.8c0.8,0.2,1,3.6,2.5,2c1-1.1-0.6-3.9,0.7-3.3c2.1,1,2.6,1,3.1,3.5
	c0.6,2.8,2.4-1.1,3.4-1.4c0.5-0.2,0.7-0.3,1.3-0.4c2.8-0.2,2.2,0.3,4.3,0.9c0.6,0.2,3.6,0.6,4-0.2c1-1.8,3.1,1.5,4.3,0.2
	c0.9-0.9-1.4-2.1-0.4-3.1c2-2,3.8,2.2,5.9-0.2l1.3-1c0,0,0.2-1.2,0.2-1.3c-0.1-2.8,2.4-4.5,1.7-5.9c-1.6-3.3,0.9-3.1,0.4-5
	c-0.3-1.1-0.2-2.4-0.2-3.5c0-1.6-1.3-5.4-1.2-5.8c0.4-1.4,0.5-1.1,0.8-3v-0.1c0-1.8-1.4-3.4-1-4.1c0.4-0.8,0.6-0.2,1.3-1.8
	c0.8-1.8,1-1.7,2.7-1.7c2.7,0-1.2-3.2,1.7-3.9c1.4-0.3,1-0.8,2.1-0.8c0.5,0,2.1,1.8,2.1-1.3c0-1.3,3.7-0.9,4.3-0.6
	c2.1,1.1,1.9,2,3.7,0.4c1.2-1,1.7-2.3,3-3c0.2-0.1,2.2,2.5,3.1,1.3c1-1.4,0.1-2.6-0.8-3.6c-1.3-1.5-0.2-3.1-0.6-4
	c-0.3-0.7-0.4-2.4-0.4-3.2c0-1.8-0.6-1.9-1.4-3.1c-0.3-0.5,0.3-2.4,0.4-2.8c0-0.2,0-0.6,0-0.8c0.5-1.3-2.2-2.1-3.1-2.1
	c-0.9,0-0.9-1.5-0.7-2c0.2-0.5,1.7-2.1,0.2-2.2c-1-0.1-0.4-0.2-0.8-0.7c-0.5-0.7,0.3-2.2,0.9-1.9c1.4,0.6,1.4-1.9,0.4-2.9
	c-0.9-0.9,0.9-4.7,1.3-4.8c0.9-0.3-0.4-1.6-0.8-1.8c-1.1-0.5,0.6-0.9-0.6-1.8c-0.9-0.7-0.2-1.4,0.5-1.5c1.5-0.4,1.4-0.7,1.7-2.3
	c-0.5-0.1-1.1-0.2-1.7-0.3c-3.6-0.6-2.2-3.5-2.6-4c-1-1.2-2.4-0.8-3.5-0.8c-0.9,0-1.2-2.3-1.4-3.1c-0.8-2.7,0.7-3.6-2.2-4.6
	c-1.1-0.4-1.6-1.3-1.1-2.4c1.3-3.1-0.2-3.7,0.2-4.9c0.7-2.2,2.6,0.3,3.2-0.9c0.9-1.6,2-0.9,2.3-1.6c0.5-1.5-0.2-2.8-1.6-3.5
	c-1.6-0.7-0.3-1.5-0.9-2.9c-0.2-0.5,0.3-1.5,0.9-1.7c1-0.4,2.3-2.2,1.4-2.8c-1.5-0.9-1.7,0.9-2.5-2c-0.2-0.3-0.1-0.3-0.2-0.6
	c-0.7-1.7,0.9-0.8-2-2.6c-1.5,0-1.4,1.1-2.8,1.2c-0.6,0-2-1.5-2.5-2c-1.1-1.2-1.6-0.7-2.6-2.5c-1.1-2-0.4-1.4-2.3-2.5
	c-0.3-0.2-1.9-0.7-2-0.8c-0.9-1.2,0.3-2.5-1.1-3.5c-1.2-0.8-0.9-0.3-1.4-1.5c-0.4-1,0.6-5.2,1.4-6.1c0.4-0.5-1-1.2-1.4-1.4
	c-1.7-0.7-2.7-2.8-3.3-4.4l-2.5,0.1c-0.7-0.4-0.9-1.3-0.7-2c0.6-2.2-2.6,1-3,1.6c-1.2,2-1.3,0.7-1.8,0.8c-2.4,0.4-1.6,3.4-4.4,1.8
	c-3.1-1.7-3.4,1.1-5.2,1.5c-1.5,0.3-1.2,0.8-2.1,1.4c-1.4,0.9-2.6,3.3-3.3,4.8c-0.3,0.8-3,3.3-3.2,3.7c-0.5,0.8-2.3,1.4-3.4,2.4
	c-0.6,0.6-1.9,2.9-2.5,3.6c-1.4,1.6-3.6,3.1-5.7,3.5c-2.6,0.5-1.4,0.4-3.6,1.8c-1,0.7-1.5,1.9-2.1,2.5c-1.3,1.3-0.9,1.7-3.5,1.6
	c-0.1,3.6,0.4,1.3,1.3,3.9c0.7,2-3.5,1.2-2.4,2.9c0.2,0.3,0.4,2.4,0,2.9c-2.5,2.9,0,0.9-0.1,3.2c0,0.8-1.7,1.1-2,2.3
	c-0.2,0.6-0.6,0.7,0,1.4c0.7,0.9-2.3,4.1,0,5.4c1.9,1.1,0.7,3.8,2.3,5.9c0.9,1.1,1.9,3.4,1.5,4.9l-0.1,0.4c-0.6,1-1.5,1.9-0.4,2.5
	c1.4,0.9,1.5,2,1.5,3.5c0,0-0.5,0.7-0.6,0.8c-1.7,1.1-1.6,2.3-1.5,4.1c0.2,2.9-2.8,2.5-2.7,5.4c0,1.1,0,0.4,0.4,1.4
	c0.4,0.8,1,2,1.2,2.7c0.6,2.3,0.6,2.3,1.7,4.5c0.7,1.3,0.6,6.8,0.9,8.6c1,3.7-0.6,1.3-3.1,4.1c-0.1,0.1,0.4,1.9,0.4,2.4
	c-0.1,1.3,0.2,2.9,0.1,4.2c0,0.9,0.6,1.5,0.4,2.6c-0.1,1-0.4,2.7-0.7,3.6c-0.5,1.8,2.1,2.1,0.7,3.4c-1.6,1.5,0.8,2.9,0.4,4
	c-0.3,0.7-0.4,2.4,0,3.2c0.7,1.5,0.7,0.7,0.7,2.8c0,2.2,0.9,3.5,0,5.9c0.2,2.9,0.4,6.4,2.6,8.5c1,0.9,0.3,2.1,0.8,3.7
	c0.5,1.4,2,2.4,2.8,3.7c0.2,0.4,1.5,1,1.8,1.3L207.9,291.3z"/>
<path class="st0" d="M509.6,225.4c0.8,2.8,0.9,1.5,1.5,3.2c0.4,1,0.5,1.4,1.1,2.4c0.6,0.9-0.4,1.3-1.3,1c-0.8-0.2-1.9-0.2-2.8-0.7
	c-0.7-0.4-0.4,0.4-1.8-1c-0.8-0.9-2.6,0.3-3.8-1.4c-0.8-1.3-1.1,0.5-1,1.1c0,0.9-1.2,2.2-0.4,3.5c1.2,1.9,1.3,1.5,3.5,2.4
	c2.5,1.1,1.2,3.5,3.9,2.9c3-0.6,1.3,1.6,4.6,0.8c0.9-0.2,2.3,0.1,3.3,0.1l3,0.6l-0.2,0.2c-1.7,2.4-3.8,2.1-3.8,5.3
	c0,1.9,1.1,1.8,2.8,2.3c1.2,0.3,1.8,0.3,1.8,1.4c0,3.4-4.1,2.7-3.5,4.8c0,0,2.2,3.5,2.3,3.6c1,1.1,0,1.8-0.8,1.8
	c-1.8,0.1-2.5,0.9-3.6,1.1c-1,0.2-2.8-1-3.7-0.7c-1.3,0.5-0.2,0.5-2.7,0.9c-0.7,0.1-1,0.2-1.6,0.1c-1.9-0.3-4.7,1.4-4.4-0.9
	c0.3-2,0.1-1.4-1.2-2.7c-1.3-1.3-0.1-2.9-1.6-2.3c-4.7,1.9-1.3-2-4.2-2.6c-2.3-0.5-2.2-1.5-4.3,0c-1.8,1.3-0.6,3.7-1.6,4.8
	c-0.8,1-2.6,2.7-3.9,2.9c-1.1,0.1-0.5,2.1-0.2,2.6c0.5,0.9-1.3,1.7-1.8,1.5c-1.3-0.4-3.6,0.2-4.5-0.2c-1.7-0.9-4.2,2.5-4.8,1.4
	c-0.7-1.2-1.6-0.8-1.5-1.6c0.1-1.7-3-1.7-4.2-1.1c-2.3,1-2.4-0.3-3.3,0.6c-2,2.1-1.5,1.8-4.8,1.7l-0.1,0.1c-1.9,1.5-3,1.8-3.7,4.4
	c-0.3,1-1.6,3.3-2.8,3.5c-2.8,0.5-3.5,3-5,4c-2.9,2-2.5-0.8-4.2-1.1c-2.4-0.5-4.1-0.9-6.3,0.5c-2.8,1.7-5.6-1-8.8-1.1
	c-1.3-0.1-2.1-0.6-3.5,0c-1.4,0.6-1.4,0.2-2.2,0.5c-0.5,0.2-3.8-0.1-4-0.2c-1.8-0.7-1.3-0.3-2.8-0.5c-2.1-0.3-1.2-0.1-3,0.5
	c-1.2,0.4-2.3,2.3-2.5,3.5c-0.2,1.2-0.2,2.2-0.9,3.3c-1.8,2.8-3.2,0.8-1.2,4.2c0.6,1.1-0.3,2.9-0.9,2.9c-1.9-0.1-1.1-0.4-3.8-0.2
	c-2.3,0-3.5,3.5-4.8,3.5c-1.4,0-1-0.1-2.1,0.4c-1.4,0.7-2.2,2.1-3.6,2.8c-0.7,0.4-3.9-1.1-4.9,0c-3.8,3.7-3.4,1-5.7,0.3
	c-0.9-0.3-1.3,0.3-2.5,1c0-0.1,0-0.2,0.1-0.3c0.2-1.3,0.3-1.6,0.5-2.7c0.3-1.5,3.1-2.5-0.3-5.9c-2.8-2.8,3.6-1.6-1.3-4.9
	c-1-0.7-3.2-3.4-3.4-3.4c-2.7-1.1,0.4-2.6-1.3-4.4c-2-2.1-3.8-0.1-3.8-3.3c0-0.8-0.4-1.8-1.1-2.3c-1.4-1.1-1.4-2.6-1.9-4.2
	c0-0.1,0-0.2,0-0.2c-1.3-3.5-1.7-1.6-2.7-3.5c-0.2-0.4,0.7-4,0.9-4.6c0.4-0.9-0.3-1.7-1.3-0.9c-1.6,1.4-2.6-4.5-0.6-4.7
	c1-0.1,1.9-0.8,1.9-1.8c0-1.6,2.6-0.6,2-2.9c-0.5-1.7-0.6-2.3,0-4.2c2.1,1,4.6,2.6,6.8,1.1c2.3-1.5,2.2-1.8,3.4-4.1
	c0.6-1.1,0.7-3.9,1.7-4.5c0.7-0.4,1.5,0.1,3.1-1.3c0.7-0.6,2.2-1,2.1,0.6c-0.1,1,0,3.1,1.5,2.5c2.8-0.9-0.2-3.5,2.9-3.5
	c2,0,1.4-0.2,1.4,2.5c0,1.8,2.1,0.5,4,1.3c1.2,0.5,4.3,3.2,4.6,0.6c0.1-1.1,1.4-3.1,2.1-3.9c0.1-0.1,0.2-0.3,0.2-0.4
	c1-1.3,0.8-0.9,1.4-2c0.1-0.2,1.4-0.4,1.5,0.6c0.2,1.2,1.7,1.1,2.5,0.6c1.2-0.7,1.6-1,2.7-1.9c0.8-0.7,2,0.3,2.9,0.4
	c1.3,0.2,2,0.2,3.1,0.9c0.7,0.5,3.2-0.7,4.6-0.7c0.8,0,4.2-0.5,4.7-1.1c2.2-2.2,1-3.1,1.4-3.8c0.1-0.2,3.6-0.6,3.6-1.9
	c-0.1-1.7,4-3.2,4.1-5.1c0-0.8,0.5-1.4,0.2-2.5c-0.2-0.8,2.3-0.8,1.8-3c-0.5-2,0.2-2.2,1.2-4.1c0.9-1.8,1.9-2.5,1.9-4.7
	c0-0.7,0.3-1.5,0.4-2.5c0.2-1.3,0.4-2.1,0.2-3.3c0-0.2,0.2-4.1,0.2-4.3c0.4-1.6,1.5-1.1,3-2.3c1.7-1.4,3.6-1.7,2.9-4.5
	c0,0-0.8-1-1-1.1c-0.3-0.2-3-2.5-1.8-2.4c1.9,0.1,3.8-1,6.1-0.5c0.9,0.2,1.2-0.3,0.5,1.7c-0.6,1.6-0.7,3.3,0.3,4.7
	c0.4,0.6,0.1,0.5,0.7,1.1c1,1,0.6,1.1,1.8,1.8c1,0.5,1.2-0.9,2.6-1.3c0.8-0.2,3.1-3,2.9-0.9c-0.1,0.6-0.1,2.2,0.9,1.9
	c1.2-0.3,3.9,1.3,4.7,0.1c0.2-0.3,2.4-2.7,2.8-3c1.2-0.8,1.8-5,4.6-4.4c0.9,0.2,1.1,0.4,1.4-0.1c0.7-1.4,0.7-4.1,0.9-4.4
	c0.5-0.7,2.3-2,2.4-2.2c0.3-0.8-4.1,0.3-2.4-3.1c0.1-0.2,0.2-0.4,0.3-0.6c0,0,2.3-1.5,2.5-1.7c0.4-0.6-1.9-2.1,0.5-2.7
	c0.8-0.2,1.7-1,1.3-1.9c-1-2.6,2.6,1.3,3.8-2.1c0.1-0.2,0.7-0.8,0.7-1c1,1.2,1.5,2.2,2.5,3.3c1,1.2,1.3,1.5,3,1.7
	c0.3,0,3,1.1,3.2,1.3c1.2,1.5-1.7,1.3-1.4,3.1c0.1,0.4,1.2,0.9,1.3,2c0,0.4,0.4,2.3,1.3,1.8c0.4-0.2,0.7-0.3,1-0.2
	c0,0,0.6,0.5,0.6,0.9c0.1,1.1,1.4,3.6,2,4.5c1.1,1.6,2.1,3.7,1.4,5.6c-0.3,0.9-0.9,0.8-1.2,2.4c-0.1,0.4-0.3,1.2,0,1.6
	c1.8,1.8,0.9,1.4,1.9,2.7c1,1.3,3.6,0.3,3.5,1.7c-0.1,2.5,2.2-0.2,2.2,3.6c0,2.2,2.5,3,4.2,4.3c1.4,1.1,1.9,1,2.8,3
	c0.8,1.8,0.5,1.8,1.9,3.6c1.4,1.9,1.2,5.5-1.2,6.5c-1.6,0.7-2.1,3-2.2,4.6c0,0.3-0.1,0.6-0.2,0.9L509.6,225.4z"/>
<path class="st1" d="M254,285.5c2.9,0.2,2,0.6,3.1,2.4c0.1,0.1,1.2,2.2,1.2,2.2c0.8,1.8,0.3,3.1,1,4.4c0.4,0.7,1.5,1.6,1.8,2.1
	c1.1,0.8,1-0.2,1.9-1.1c1.5-1.5,1.5,2,2.4,2.6c1.1,0.8,0.8,1.1,2.6,0.5c1.7-0.5,1.6-0.5,3.3-0.7c0.9-0.1,2-0.2,2.7,0.3
	c0.4,0.2,0.9,1.9,1.2,2.2c0.8,0.8,2,0.6,2.4,2.2c0.2,0.9,1.6,2.4,2.3,3c1.2,0.8,0.8,1.4,3,1.7c2.3,0.3,2.4-0.3,4.4,0.4
	c2,0.8,0,3.3,1.6,6.1c1.2,2.2,2.9-2.7,4.4-0.1c0.6,1.1-0.2,4.1,3.7,1.4c1.4-1,6.6-3.5,5.4,0.7c-0.4,1.2-4.6,6-1.5,6.1
	c1.5,0,4.5-4.4,5-1.6c0.1,0.8-0.9,6.1,1.3,5.2c0.2-0.1,0.6-0.7,1.2-1.3c0.3-1.9,0.5-2.9,1.6-4.3c0.9-1.2,1.1-1.2,2.6-0.3
	c1.7,1,2.7,0,4.1,1.5c0.3,0.3,2,1,2.4,1c2,0,3-0.3,5,0.4c1.9,0.7-0.1,3.6,1,4.5l3-2.2c1.7-1.4,0.9-0.9,1.3-2.4
	c0.6-2.5,2.1-2.6,3.7-0.9c1.2,1.2,2.4-1.2,2.5-2.4c0.1-0.6,1-2.7,1.7-1.2c0.3,0.7,2.3,2.1,3.2,2.2c1,0.1,1,1.6,2.7,0.9
	c1.1-0.5,0.3,1.3,0.7,1.9c0.9,1.3,1.4,0.4,2.7,1.1c0.4,0.2,0.6-0.1,1.7,0.6c0.9,0.6,2.7,0,3.5-0.8c2.1-2.2,4.2,1.3,8-0.6
	c2.2-1.1,5.8,1.1,6.5-0.8c0.3-0.8-2.6-3.4,0.2-4.5c1.3-0.5,0.5-0.4,2-0.5c0.5,0,1.5-0.6,1.8-1c0.5-2.2,0.5-1.6,0.3-3.2
	c-0.1-1.1-0.6-1.5-0.7-2.7c-0.2-1.5-0.3-1.2,0.5-2.4c1.3-2,1.1-2,1.7-4.1c0.4-1.3,2.5-3,3.7-3.5c0.5-0.2,1.4-1,1.9-1.2l2.2-1.7
	c0-0.1,0-0.2,0.1-0.3c0.2-1.3,0.3-1.6,0.5-2.7c0.3-1.5,3.1-2.5-0.3-5.9c-2.8-2.8,3.6-1.6-1.3-5c-1-0.7-3.3-3.4-3.4-3.4
	c-2.7-1.1,0.5-2.6-1.3-4.4c-2-2.1-3.8-0.1-3.8-3.3c0-0.8-0.4-1.8-1.1-2.3c-1.4-1.1-1.4-2.6-1.9-4.2c0-0.1,0-0.2,0-0.2
	c-1.3-3.6-1.7-1.6-2.7-3.5c-0.2-0.4,0.7-4,1-4.6c0.4-0.9-0.3-1.8-1.3-0.9c-1.6,1.4-2.6-4.6-0.6-4.7c1-0.1,1.9-0.8,1.9-1.9
	c0-1.6,2.7-0.6,2-2.9c-0.5-1.7-0.6-2.3,0-4.2c-0.3-0.2-2.5-0.8-0.6-1.8c1.6-0.8-0.8-1.6-1.6-1.6c-4.9,0.2-2.1-4.3-3.6-5.1
	c-2.4-1.2-1.7,1-4.3-1.9c-0.5-2.3-1.9-3.2,1-4.4c1.5-0.6,2.4-3.8,1.4-4.9c-1.7-1.9,0.2-1.9-0.6-2.9c-1.2-1.3-1.3-3.9-1.4-5.5
	c0-0.7-1.2-1.6-0.9-2.2c0.8-2.1,1.8-1.2-0.5-3.5c-1.9,0.6-4.3-2.2-6,1.3c-0.6,1.2-2.6,2.1-3.6,1.2c-0.8-0.7-1.8,0.5-1.9,1.3
	c-0.1,2.3-3.3,1-4.7,0.7c-3-0.8-3.5,0-6.1-0.2c-2.9-0.2-2.6-0.2-2.6-2.9c0-2.6-0.3-1.4-0.7-2.8c-0.2-0.6,0.7-2.8,0.8-3.2
	c0.2-0.5,1-1.7,0.6-2.2c-1-1.2-1.9-2.5-2.5-3.9c-0.4-1.1,1.5-3.2,0.4-3.9c-1.6-1-1.2-0.7-2.1-2.3c-0.4-0.8-2.4,0.7-3,1.1
	c-1.2,0.7-1.7,0.7-3.1,1.3l-0.2,0.1c-0.6,0.2-1.7,1.5-1.9,2c-1.1,2.8-2.4,0.5-3,0.3c-1.9-0.7-2.6,1.5-3.2,2.2
	c-1,1.2-1.8,0.1-2.4-0.5c-3.5-4.1-3.4-0.8-5.4-2c-1.9-1.1-2.2,3.1-4.3,2.1c-1.6-0.7-3.7-0.3-4.4-0.5c-1.6-0.5-3.4,1.2-5.3,0.8
	c-0.7-0.1-2.4,0.3-3,0.6c-1.5,0.6-3.5,0-5.1,0c-1.9,0-2,0.4-3.5,0.9c-3,1-2.1,0.4-5,2.5c-0.3,1.7-0.2,2-1.7,2.4
	c-0.7,0.2-1.4,0.9-0.5,1.6c1.1,0.8-0.5,1.3,0.6,1.8c0.4,0.2,1.7,1.5,0.8,1.8c-0.4,0.1-2.2,4-1.3,4.9c1,1,0.9,3.5-0.4,2.9
	c-0.6-0.3-1.4,1.2-0.9,1.9c0.4,0.6-0.2,0.6,0.8,0.7c1.5,0.2,0,1.7-0.2,2.2c-0.2,0.6-0.3,2,0.7,2c0.8,0,3.6,0.8,3.1,2.1
	c-0.1,0.2,0,0.6,0,0.8c-0.1,0.4-0.8,2.3-0.4,2.8c0.8,1.1,1.4,1.3,1.4,3.1c0,0.9,0.1,2.5,0.4,3.3c0.4,0.9-0.7,2.5,0.6,4
	c0.9,1,1.8,2.2,0.8,3.6c-0.9,1.2-2.8-1.4-3.1-1.3c-1.2,0.7-1.8,2-3,3c-1.9,1.6-1.7,0.8-3.7-0.4c-0.6-0.3-4.3-0.7-4.3,0.6
	c0,3.2-1.6,1.3-2.1,1.3c-1.2,0-0.7,0.5-2.1,0.8c-2.9,0.7,1,3.9-1.7,3.9c-1.7,0-1.9-0.1-2.7,1.7c-0.7,1.6-0.9,1-1.3,1.9
	c-0.4,0.7,1,2.3,1,4.1v0.1c-0.3,2-0.4,1.7-0.8,3c-0.1,0.4,1.2,4.3,1.2,5.8c0,1.2-0.2,2.4,0.2,3.6c0.6,1.9-1.9,1.7-0.4,5
	c0.7,1.4-1.8,3.2-1.7,5.9C254.2,284.3,254,285.5,254,285.5z"/>
<path class="st0" d="M618.9,172.2c3-1.2,1.4-0.6,2.7-2.1c0.7-0.8,1.8,1.6,3.2,0.2c0.4-0.4,0-1.8,2.9-2.6c1.2-0.3,1.9-1.9,3.7-1.4
	c0.9,0.2,3.4-0.2,4.2-1c1-1,0.2-0.9,2-1.6c1.9-0.8-0.4-2.1,1.7-3.7c0.9-0.7,2.2,2.7,3.5-0.7l0.1-0.1c2.7,0.7,1.5,0.5,2.7,1.8
	c1.4,1.5,2.3-1.5,4.7-1.7c0.8-0.1,2-0.1,2.7,0.1c1.9,0.8,1.6-0.2,2.4-0.3c0.3-0.8,0.8-1.7,0.8-2.4c-2-0.5-2.2,0-3.9-1.7
	c-0.3-0.3-1.2-3.6-1.2-4.3c0-2.1-0.9-2.4-3-2.6c-3.3-0.4-3-4.7-4.8-6.6c-3.3-3.5,1.1-4.5-0.8-5.8c-1.3-0.9,0-1.4,0.9-2.1
	c1.3-1,2.5-0.2,2.6-0.9c0.6-3.3-1.6-2.3-0.4-6.9c1.6-3.4-3.4-1.3-2.9-4.7c0.5-3.6-0.8-2.5-1.3-3.9c-0.9-2.5,1.4-3.7-1.2-4.4
	c-2.6-0.7-0.6-4.2-0.9-4.6c-1.7-1.9,0.8-1.7,1.7-2.4c2-1.5-0.7-2.6-1.4-3.5c-0.6-0.8-3.9,0.2-4.4,0.3l-0.7,0.1
	c-3,0.5-3.8-0.2-3.2-3.1c0.5-2.1-2.3-3.7-2.6-4.9c-0.4-1.4,1.5-5.9-1.5-5.2c-1,0.2-3.3,2.7-4.4,0.9c-1.4-2.2-2.7,1.6-4.8,1.2
	c-1.7-0.4-3.4,2.6-5.1,1.9c-2.3-1-2.6,0.6-4.1,0c-1.5-0.6-2.3-3.5-2.4-4.9c-0.1-1.3-2.6-0.8-3.3-0.5c-3.5,1.5-2.9-1.1-4-0.8
	c-1.3,0.3-3.1,0.9-4.2-0.1c-0.3-0.2-2.3-0.6-2.5-0.6c-2.8,0.8-1.7,4.2-7.2-0.6c0.4-0.7,0.9-1.5,2.1-2c2-0.7,1.7-1.7,2.4-3.3
	c0.3-0.7,0.4-1,0.6-1.3c-1-0.8-4.1-2.9-4.5-4c-0.5-1.4,1.5-4.9,2-6.6c0.6-2-2.1-3.6-1.7-5.3c0.5-2.1-3.4-2.1-3.8-3.3
	c-0.5-1.6,1.4-1.2-1.7-3.5c-0.2-0.2-1.7-1-1.8-1c-0.9-1.3,10-2.6,10.9-3.5c0.5-0.4,2.7-0.6,3.4-0.7c3.7-0.4,1.4-4.7,0.7-6.6
	c0.2-2,0.4-3-1.6-4c-1.6-0.8-2-2.1-4-2.1c-2.3,0-1.9-1.3-2.6-3.2c-0.6-1.5-0.2-1-1.4-2.2c-1.7-1.9-2.5-0.6-2.8-2.3
	c-0.6-3-1.9-0.7-2-2.7c-0.1-2.3-0.9-1.8-1.4-3.2c-0.2-0.7,0.4-4.3,0.9-5c1.2-1.6-1.1-2.8-1.5-4.2c-1.1-3.5-2.3-2.5-3-3.3
	c-0.8-0.9,0.4-0.2-1.4-2.1c-0.5-0.3-0.7-0.4-1.1-0.9c-0.1-0.2-1.2-3-1.3-3.5c-0.2-1-1.5-2.1-2.3-2.1c-3.8,0.1-0.2-3-2.6-3
	c-3.2,0-6.1,0.3-9.2,1c-1.2,0.3-4.4,2.5-5.3,2.4c-2.7-0.4-0.8-3.1-1-3.5c-0.5-1.3-2.5,0.9-3.9,1.2l-1.3,3.3
	c-0.4,1.7-0.2,2.5-1.3,3.7c-1.1,1.2,0.3,1.2-1.5,2.9c-1.1,1.1-0.7,3.1-0.6,4.4c0.2,2.2,2.9,1.9,4,3c0.6,0.6,0.8,0.5,1,1.5
	c0.2,0.8,2.2,1.1,2.9,1.1c1.2,0,0.9,2.4,0.3,2.8c-1.1,0.7-2.5,2.6-3.6,1.5c-0.4-0.4-1.5-1.4-1.9-0.5c-0.5,1-4.7,0.8-3,2.5
	c1.6,1.6,1.9,0.4,2.1,2.8c0.1,0.7,1,1.7-0.4,2.7c-1.8,1.3-2.8-0.1-5,1.8c-0.6,0.5-2-0.1-2.7,0.6l-0.1,0.1c-0.2,0.4-1.1,1.8-1.6,2.3
	c-0.8,0.8-1.3,0.8-1.4,0.9c-0.6,0.6,0.4,2.3,0.1,3.4c-0.1,0-0.6,0.8-0.8,0.9c-2.2,2.2-0.3,4.1,0.3,6.5c0.3,1.2,1.6,2,1,3.3
	c-0.3,0.7-0.6,2.3-0.1,3c1.7,2-0.3,2.6,1.4,3.9c1.8,1.4-1,2.8,0.8,4.6c0.1,0.1,0.3,0.4,0.4,0.6c-0.4,3.3-0.5,2-2.4,2.9
	c-0.7,0.4-1.2,3.7-0.9,4.4c0.2,0.4-0.5,4.1-0.9,4.6c-2.2,2.2-3-3.4-4.3-1.5c-0.5,0.8-0.6,2.9,0.6,3.4c2.4,1.1,0.8,3.2,0.9,4.8
	c0,0.5-0.3,1.2,0,2c0,0.1,0.2,1.7,0,2c-1.1,1.6,0.1,2.4-2.7,2.9c-1.5,0.2-1.1,1.7-1,2.6c0.2,2.4,0.3,2.6-0.8,4.7
	c-1.3,2.5,1.5,1.6,2.6,2.1c1.3,0.6,2.3,0.7,2.5,2.4c0.2,1.4,0.3,0.6-0.2,2.2c-0.3,0.8-0.4,3.7,1.3,2.3c1-0.8,2.1-1,2,0.5
	c-0.1,2.1,0.8,1,1.9,1.5c1.4,0.6,0.2,1.3,1.2,3.2c0.4,0.7-0.9,1.5-0.9,3c0,0.2-0.1,1.4-0.1,1.9c0,0.5-0.1,1.5-0.3,1.9
	c-0.3,2-1,5.1,0.9,6.6c0.6,0.4,2.7,1.4,0.9,2c-0.6,0.2-3,1.2-3.1,1.9c-0.5,2.8,0.8,1.5-1.2,4.2c-0.5,0.7-0.8,2.1-0.6,3
	c0.3,1.2-1.2,2.7-2,3.4c-0.5,0.4-0.4,0.8-0.4,1.3l0.9,1.5c1.3,0.7,1.6,1.2,2.7,1.1c1.3-0.1,1.3-0.1,2.6,0.4c1.4,0.6,2.7-2.3,2.9-2.4
	c2.5-1.7,1.4,0.3,3,0.4c1,0.1,3.3,2.3,4.5,2.8c1.7,0.8,3.5,0.4,5.4,0.5c2.9,0.2,3.7,0.7,6.3,1.3c1.4,0.3,5.8,1.3,7,0.3
	c0.9-0.8,3.4-0.9,2.6-2c-1.5-2.1,0-1.9,1.8-2c0.6,0,0.3,0.6,1.8-0.6c1.1-0.8,2.4-0.7,3.4,0.3c2.8,2.8,1.7-0.2,4.2,1.2
	c0.6,0.4-0.1,2.9,2.5,0.7c0.8-0.6,1.4-1.5,2.5-1.6c1.6-0.4,3.7-0.8,3.5,1.4c-0.1,0.9-0.5,1.2-0.5,2.9c0,1.1,0.9,2.7,1.7,3.4
	c1,1,2.6,1.6,3.8,2.2c1.4,0.6,1.7,1.4,1.3,2.8c-0.2,0.9,0.2,2.5,0.9,3.3c2.3,1.5,2.6,2.5,5.4,2.4c2.1-0.1-0.2,1.7,1.6,3.1
	c2.5,1.9-2.4,3.6-0.9,6.4c0.7,1.3,2.3,2.1,3.7,2.4c3.4,0.9,2.4,1,4.5-1.6c0.6-0.7,1.6-1,2.4-0.5c1.3,0.9,2.7-1.6,5.2-0.8
	C616.5,171.9,617.8,172.2,618.9,172.2z"/>
<path class="st0" d="M485.7,156.5c3.1,0,1.8,0.3,3.1,0.4c0.7,0.1,2.1-1.4,2.3-2.2c0.2-0.6,2-0.7,2.5-2.5c0.1-0.4,1.8-0.9,2.5-0.2
	c1,0.9,1.7,1.1,3,1.2c3,0.2,2.3,0.5,3.1,3c0.4,1.3,2.6-0.2,3.9,0.2c0.2,0,1.9,0.2,2.1,0.2c0.8-0.1,1-1,2.6-0.1
	c0.7,0.4,2.5-0.1,3.1-0.1c2.9-0.3,2.3-0.8,4.1-1.2c1.4-0.3,2.9-0.9,4.1-1.8c1.6-1.3,0.2-3.8,4-5.2c1.5-0.6,2.4-3.4,3.8-4.4l-0.9-1.5
	c0-0.5-0.1-0.9,0.4-1.3c0.8-0.7,2.3-2.2,2-3.4c-0.2-0.8,0.1-2.3,0.6-3c2-2.6,0.7-1.3,1.2-4.2c0.1-0.7,2.5-1.8,3.1-1.9
	c1.8-0.5-0.3-1.5-0.9-2c-1.9-1.5-1.3-4.6-0.9-6.6c0.2-0.4,0.3-1.4,0.3-1.9c0-0.5,0.1-1.7,0.1-1.9c-0.1-1.5,1.2-2.3,0.9-3
	c-1-1.9,0.2-2.6-1.2-3.2c-1.2-0.5-2.1,0.6-2-1.5c0.1-1.5-1-1.3-2-0.5c-1.7,1.4-1.6-1.5-1.3-2.3c0.5-1.5,0.4-0.8,0.2-2.2
	c-0.2-1.7-1.2-1.7-2.5-2.4c-1-0.5-3.9,0.3-2.6-2.1c1.1-2,1-2.3,0.8-4.7c-0.1-0.9-0.4-2.3,1-2.6c2.7-0.4,1.6-1.3,2.7-2.9
	c0.2-0.3,0-1.9,0-2c-0.3-0.8,0-1.5,0-2c-0.1-1.6,1.5-3.6-0.9-4.8c-1.2-0.6-1.1-2.6-0.6-3.4c1.3-1.9,2.1,3.7,4.3,1.5
	c0.4-0.4,1.1-4.1,0.9-4.5c-0.3-0.7,0.2-4,0.9-4.4c1.9-0.9,2,0.5,2.4-2.9c-0.1-0.2-0.3-0.4-0.4-0.6c-1.9-1.8,1-3.1-0.8-4.6
	c-1.7-1.3,0.3-1.9-1.4-3.9c-0.6-0.7-0.2-2.2,0.1-2.9c0.6-1.4-0.7-2.1-1-3.3c-0.6-2.4-2.5-4.3-0.3-6.5c0.1-0.1,0.7-0.9,0.8-0.9
	c0.3-1.1-0.7-2.8-0.1-3.4c0.2-0.2,0.6-0.1,1.5-0.9c0.5-0.4,1.3-1.9,1.6-2.3l0.1-0.1c0.6-0.6,2.1-0.1,2.7-0.6c2.2-1.9,3.2-0.5,5-1.8
	c1.4-1,0.5-2,0.4-2.7c-0.2-2.4-0.5-1.2-2.1-2.8c-1.7-1.7,2.6-1.4,3-2.4c0.4-0.9,1.5,0,1.9,0.4c1,1.1,2.5-0.8,3.6-1.5
	c0.6-0.4,0.8-2.8-0.3-2.8c-0.7,0-2.8-0.3-3-1.1c-0.2-0.9-0.5-0.9-1-1.5c-1-1.1-3.8-0.8-4-3c-0.1-1.3-0.6-3.4,0.6-4.4
	c1.8-1.6,0.4-1.7,1.5-2.9c1.1-1.2,0.9-1.9,1.3-3.7l1.3-3.3c-0.4,0.1-0.8,0-1.1-0.6c-0.5-1-1.5-1.4-2.7-1.1c-2.1,0.7-1.1,0.8-3.4,0.8
	c-0.3,0-3.1-1-3.3-1.1c-0.9-0.7-2.2,1-2.6,1.7c-0.5,0.7-2.4,2.6-3.3,2.2c-1.9-0.9-2.6,1.9-3.9,2.4c-2,0.7-1.9,0.7-3.6,2.1
	c-3.7,3-1.1-1.9-5.7-0.3c-3.2,1.1-2,0-3.4,0c-2.1,0.1-1.6,0.2-3.8-1.3c-0.7-0.4-2.8-1.6-3.4-2c-0.9-0.6-4.3-1.6-5.4-1.4
	c-3,0.5-2.3-1.5-2.9-1.4c-1.1,0.3-1.6,1.6-1.8,2.5c-0.7,2.4,0.2,3.4,0,4.6c-0.5,2.8-3.3,2.1-2.2,3.7c1.5,2.3,1.7,2.9,0.2,5.2
	c-0.8,1.2-3.1,2.7-4.4,3.5c-1,0.6-4.5,2.3-5.1,2.9c-2.8,2.6-4.1,0.6-6.8,0.3c-0.7-0.1-4.3,0.9-3.2-0.9c1.4-2.4-0.6-1.9-1.2-2.4
	c-1.1-0.9-1.5-0.7-2.7-1c-1.7-0.4-0.5,0.5-3-0.4c-2,0.4-4.7,1.8-6.5,0.2c-1.7-1.5-2.7-0.2-5-0.7c-2.1-0.4-3.8,1.1-5.4-0.6
	c-0.8-0.9-2.3-0.5-2.8,0.3c-1.1,1.8-2.7,1.5-2.9,1.9c-0.7,1.7-0.1,1.6-1.3,3.4c-1.7,2.5-5-1.9-6.6-1.8c-1.7,0-0.4-1.8-2.8-0.9
	c-1.7,0.7-2.3,0.6-3.8,1c-0.9,0.3-3.4,0.3-3.9,0.6c-0.3,0.2-0.8,2.9-0.9,3.3c-0.4,2.1-2,2.8-2.6,3.9c-1,2-0.6,1.8-3.1,2.9
	c0.2,0.3,0.5,2.8-0.9,3c-0.3,0-0.7,0.3-1.2,0.1c-0.8-0.3-1.6,1-1.8,1.6c-0.6,1.7-1.5,0.5-2.2,3c-0.3,0.9,0.7,1.6-0.4,2.5
	c-1.9,1.6,0.9,1.7-1.8,2.7c-0.8,0.3-2.1,2.1-1.3,2.1c1.3-0.1,2,1.3,1.1,2.6c-1.1,1.7-0.8,0.6-2.4,0.8c-0.9,0.1-0.6,1.7-0.3,2.2
	c0,0,0.1,0.1,0.1,0.1c0,3.1-0.8,2.3-2.2,4.6c-0.7,1.1-1,1.9,0.2,2.8c1.6,1.2-0.6,1.7,1,4.4c0.9,1.4,1.8,0.5,1.6,3.4
	c0,0.7,1.1,0.5,0.4,1.8c-0.9,1.6,0,2.3,1.3,2.9c1.4,0.6,1.4,2.1,1.6,3.4c0.2,1.6-0.1,1.3-0.6,2.4c-0.2,0.4-3.5,1.1-2,3
	c1.1,1.5-0.7,2.5-1.9,3.4c-0.4,0.3-1,0.2-1.2,0.5l0.1,1.6c-1.6,0.9-1.4,0.5-1.2,1.7c0.2,1.1,0.3,3.2-1.2,3.3c-1.2,0.1,0,2.9,0,3.9
	c0,0.9,0,1.6-0.3,2.5c-0.2,0.4,0.7,1.4,0.2,2.5c-0.2,0.6-0.2,2.6,0.9,2.5c1.5-0.3,2.9,0,4.2,0.8c0.9,0.5,1.3,0.3,1.4,1.9
	c0,0.1,0.5,1.5,0.5,1.6c0.3,2.8,0.5,3.6,2.5,5.3c1.8,1.6,4.3,1.4,2.9,5c-0.7,1.8-0.7,1.4-0.1,3.3c0.4,1.3,2.3,0.4,2.7,1.6
	c0.5,1.4,0.7,2.7,1.8,1.1c2-2.8,2.4-0.9,3-0.7c1.6,0.4,5.2,0.1,6.7-0.5c0.3-0.1,3-0.9,3-0.1c-0.1,2.5,1.2,1,2.8,3.3
	c0.7,1,1.9,0.8,2.2,3.1c0.1,0.4,0.1,1,0.3,1.3c0.1,1.3,0.1,1.9,0.4,3c0.3,1.1-2.1,0.8-2.5,2.5c-0.5,0.1,2.1,2.1,2.4,2.4
	c0.7,0.8,1.7,1,2.2,1.7c0.1,0.2,2.6,2.4,2.7,2.5c1.6,0.8,0.9-1.4,2-0.7c0.3,0.2,2.5,1.3,2.7,1.4c1.4,0.3,1.8-1,3.5-1.1
	c1-0.1,1-0.3,2.5-0.3c1,0,3.9-0.1,4.2-1.4c0.2-1,3.5-0.7,4.9-1.4c1.3-0.7,2-1.7,3.1-2.6c1-0.8,1.5-3,3.6-3c0.4,0,0.5,1.2,1.1,2
	c0.9,1.4,1.9,4.3,3.2,5.4c0,0,4.8-0.7,4.8-0.1c0,0.6-0.5,2.5-1.3,2.7c-0.4,0.1-4,1.2-2.6,2c0.1,0.1,1.6,1.3,1.7,1.5
	c0.6,0.9-0.3,4.1,1.2,3.5c1.9-0.7,1.4,2.6,2.4,2.1C483.4,154.6,485.2,155.8,485.7,156.5z"/>
<path class="st2" d="M485,156.4c-0.2,1.8-0.3,2.6-1.4,3.9c-1.6,1.8-1.6,2.3-1.6,4.6l0.4,1.8c1,1.2,1.5,2.2,2.5,3.3
	c1,1.2,1.3,1.6,3,1.7c0.3,0,3,1.1,3.2,1.3c1.2,1.5-1.7,1.3-1.4,3.1c0.1,0.4,1.2,0.9,1.3,2c0,0.4,0.4,2.3,1.3,1.8
	c0.4-0.2,0.7-0.3,1.1-0.2c0,0,0.6,0.5,0.6,0.9c0.1,1.1,1.4,3.6,2.1,4.5c1.1,1.6,2.1,3.7,1.5,5.6c-0.3,0.9-0.9,0.8-1.2,2.4
	c-0.1,0.4-0.3,1.2,0,1.6c1.9,1.8,0.9,1.4,1.9,2.7c1,1.3,3.6,0.3,3.5,1.7c-0.1,2.5,2.2-0.2,2.2,3.6c0,2.2,2.5,3,4.2,4.3
	c1.5,1.1,1.9,1,2.8,3c0.8,1.8,0.5,1.8,1.9,3.7c1.4,1.9,1.2,5.5-1.2,6.5c-1.6,0.7-2.2,3-2.2,4.6c0,0.3-0.1,0.6-0.2,0.9l0.1-0.4
	c0.8,2.8,0.9,1.5,1.6,3.2c0.4,1,0.5,1.4,1.2,2.4c0.6,0.9-0.4,1.3-1.4,1c-0.8-0.2-1.9-0.2-2.8-0.7c-0.7-0.4-0.4,0.4-1.8-1
	c-0.8-0.9-2.6,0.3-3.8-1.4c-0.9-1.3-1.1,0.5-1.1,1.1c0,0.9-1.3,2.2-0.4,3.5c1.2,1.9,1.3,1.5,3.5,2.4c2.6,1.1,1.2,3.5,3.9,2.9
	c3-0.6,1.3,1.7,4.6,0.8c0.9-0.2,2.3,0.1,3.3,0.1l3,0.6c2.8,1.7,1.9,0.8,4.5,0.6c1.9-0.2,0.3,1.8,2,2.4c0.9,0.3,1.9,0.2,3.1,0.8
	c3.1,1.5,2,0.9,3.8,3.6c0.7,1,1.1,2.3,2.1,3.1c0.8,0.6,1.9,1.7,3,0.4c0-0.1-0.4-1-0.4-1.5c0-1.1,1.7-2.8,1.5-1.8
	c-0.3,1.4,1.4,0.2,0.5,2.5c-0.3,0.8,0.7,2,1.3,2.5c1.2,0.9,0.7,2.8,1.3,4.5c0.1,0.2-0.1,2.3,0.1,3.1c0.2,0.9,2.2,3,3.7,2
	c0.6-0.4,2.7-1.5,2.8-0.1c0.1,0.8,0.8,1.5,1.7,1.2c3.2-0.9,2.5,0.9,4.1,0.4c0.3-0.1,1.1-1.6,1.7-2.2c1.2-1.2,1.3-2.5,3.4-0.5
	c1,1,0.9,1.6,2.8,1.7c2-0.1,3-0.1,4.6,1.2c0.8,0.6,1.5,1.5,2.5,1.8c0.1,0,0.2,0,0.2,0.2c2.5,2,1.7,1.1,4.3,1.8
	c2.6,0.7,0.4,0.7,2.6,2c1,0.6,2.8,0.3,3.5,2.6c0.5,1.7,3.2,1.9,4.8,2.9c1,0.6,2.5,0.5,4.1,1.6c0.9,0.6,2.4-1.1,2-1.7
	c-1-1.5-2-2.2-0.2-3.9c0.2-0.1,0.5-2.1,0.1-2.7c-0.9-1.4-1.1-1.5-1-3.2c0.1-1.7,2.3-4.4,1.3-6.3c-0.7-1.5,1.8-2.5,2.4-4
	c0.4-1,0.9-3.6,2.4-2.5c1,0.8,2,0.6,2.9,1.2c1.6,1,3-1.7,4-2.7c1.3-1.3,2.4-1.6,4-2.1l0.3-0.1c2.9-1,3.1-0.8,5.1-2.9
	c0.6-0.6,2.5-1.9,3.4-1.4c1.1,0.6-0.1,3.4,2.5,1.1c0.5-0.5,2.2-1.2,3-1.2l1.9,1.3c0,0,0.1-1.2,0.1-1.2c0.4-1.3-0.3-2.3-0.4-3.2
	c-0.5-3.7,1-2.8,1.3-6.2c0.2-2.9,1.1-0.9,2.3-0.5c0.8,0.2,4.5,2,4.8,1.7c0.3-0.3,4.1-0.2,4.5-0.1c1.7,0.5,1.8-1.9,2.1-3
	c0.5-0.7,3.3-3.8,2.8-4.7c-1.3-2.2,0-2.6,0-3.1c0-1-1.2-0.1-1.2-2.4c0-2.7,0.7-1.5,3.1-1.6c0.8,0,3.8,0.2,4.2-0.2
	c1-0.8,0.3-1-0.2-1.2c-0.4-0.2-3.4-2.8-3.3-3c0.1-0.9,2.3-0.6,2.9-2.1c0.7-1.7-1.3-4.2-1.4-5.1c-0.1-1.7-1.7-1.7-2.9-1.7
	c-4.4,0.3-4-1.5-5.9-1.5c-1.7,0-1.2-2.2-0.9-3.2c0.4-1-1.2-0.4-1.6-0.9c-0.2-0.3-0.7-3.5-0.7-3.5c0.2-0.5,0.3-1.3,0.4-1.7
	c0.5-1.7-1.5-2.1-2.6-2.6c-1.1-0.4-4-0.6-4.3-1.4c-0.4-0.9-2-1.5-2.9-1.3c-3,0.7-2.5-1.3-4.3-2.4c-0.6-0.3-0.9-0.9-1.1-1
	c-2-1.1-0.8-5.8,0.3-7.3c0.5-0.6,2.9-3.2,2.8-4c-0.3-1.9-0.8-1.4-1-2c-0.3-1.2-0.2-1.7-0.5-3.1c-1.1,0-2.4-0.3-3.5-0.6
	c-2.4-0.8-3.8,1.7-5.2,0.8c-0.9-0.6-1.9-0.2-2.5,0.5c-2.1,2.5-1.2,2.5-4.6,1.6c-1.4-0.4-3-1.1-3.7-2.5c-1.5-2.8,3.5-4.6,0.9-6.4
	c-1.8-1.3,0.5-3.1-1.6-3.1c-2.8,0.1-3.1-0.9-5.4-2.4c-0.7-0.7-1.1-2.4-0.9-3.3c0.3-1.4,0-2.2-1.4-2.8c-1.3-0.6-2.9-1.3-3.9-2.2
	c-0.8-0.7-1.7-2.3-1.7-3.4c0-1.7,0.4-1.9,0.5-2.9c0.2-2.3-1.9-1.8-3.5-1.4c-1.1,0.1-1.8,1-2.5,1.6c-2.7,2.2-1.9-0.3-2.6-0.7
	c-2.5-1.4-1.4,1.6-4.2-1.2c-1-1-2.3-1.1-3.4-0.3c-1.5,1.1-1.2,0.5-1.8,0.6c-1.8,0.1-3.3-0.1-1.8,2c0.8,1.1-1.7,1.2-2.6,2
	c-1.1,1-5.6,0-7-0.3c-2.6-0.6-3.4-1.1-6.3-1.3c-1.9-0.1-3.7,0.3-5.4-0.5c-1.2-0.6-3.6-2.7-4.5-2.8c-1.7-0.1-0.5-2.1-3-0.4
	c-0.2,0.1-1.4,3-2.9,2.4c-1.3-0.5-1.3-0.5-2.6-0.4c-1.1,0.1-1.4-0.4-2.7-1.1c-1.5,1-2.3,3.8-3.8,4.4c-3.8,1.5-2.4,4-4,5.3
	c-1.1,0.9-2.7,1.5-4.1,1.8c-1.8,0.4-1.1,0.9-4.1,1.2c-0.6,0-2.5,0.4-3.1,0.1c-1.7-0.9-1.9,0-2.6,0.1c-0.2,0-2-0.1-2.1-0.2
	c-1.3-0.4-3.5,1.1-3.9-0.2c-0.8-2.5-0.1-2.8-3.1-3c-1.4-0.1-2-0.3-3-1.2c-0.8-0.6-2.4-0.2-2.5,0.2c-0.6,1.8-2.4,1.9-2.5,2.5
	c-0.2,0.8-1.6,2.3-2.4,2.2C486.9,156.7,488.2,156.4,485,156.4z"/>
<path class="st3" d="M404.7,86.9c0.6,0,1.9,0.4,2.4,0.7l0.1,1.7c-1.6,0.9-1.4,0.5-1.2,1.7c0.2,1.1,0.3,3.2-1.2,3.3
	c-1.2,0.1,0,2.9,0,3.9c0,0.9,0,1.6-0.3,2.5c-0.2,0.4,0.7,1.4,0.2,2.5c-0.2,0.6-0.2,2.7,0.9,2.5c1.5-0.3,2.9,0,4.2,0.8
	c0.9,0.5,1.3,0.3,1.4,1.9c0,0.1,0.5,1.5,0.5,1.6c0.3,2.8,0.5,3.6,2.5,5.4c1.8,1.6,4.3,1.4,2.9,5c-0.7,1.8-0.7,1.4-0.1,3.3
	c0.4,1.3,2.3,0.4,2.7,1.6c0.5,1.4,0.7,2.7,1.8,1.1c2-2.8,2.4-0.9,2.9-0.7c1.6,0.4,5.2,0.1,6.7-0.5c0.3-0.1,3-0.9,3-0.1
	c-0.1,2.5,1.2,1,2.8,3.4c0.7,1,1.9,0.8,2.2,3.1c0.1,0.4,0.1,1,0.3,1.3c0.1,1.3,0.1,1.9,0.4,3c0.3,1.1-2.1,0.8-2.5,2.5
	c-0.5,0.1,2.1,2.1,2.4,2.4c0.7,0.8,1.7,1,2.2,1.7c0.1,0.2,2.6,2.4,2.7,2.5c1.6,0.8,0.9-1.4,2-0.7c0.3,0.2,2.5,1.4,2.7,1.4
	c1.4,0.3,1.8-1,3.5-1.2c1-0.1,1-0.3,2.5-0.3c1,0,3.9-0.1,4.2-1.4c0.2-1,3.5-0.7,4.9-1.4c1.3-0.7,2-1.7,3.1-2.6c1-0.8,1.5-3,3.6-3
	c0.4,0,0.5,1.2,1.1,2c0.9,1.4,1.9,4.4,3.2,5.4c0,0,4.8-0.7,4.8-0.1c0,0.6-0.5,2.5-1.3,2.8c-0.4,0.1-4,1.2-2.6,2
	c0.1,0.1,1.6,1.3,1.7,1.6c0.6,0.9-0.3,4.1,1.2,3.6c1.9-0.7,1.4,2.6,2.4,2.2c1-0.4,2.7,0.8,3.2,1.6c-0.2,1.8-0.3,2.6-1.4,3.9
	c-1.6,1.8-1.6,2.3-1.6,4.5v0.1l0.4,1.8c0,0.1-0.6,0.8-0.7,1c-1.3,3.3-4.9-0.6-3.9,2.1c0.4,1-0.6,1.7-1.3,1.9
	c-2.4,0.6-0.1,2.1-0.5,2.7c-0.2,0.2-2.5,1.7-2.5,1.7c-0.1,0.2-0.2,0.4-0.3,0.6c-1.7,3.4,2.7,2.3,2.4,3.1c-0.1,0.2-1.9,1.5-2.4,2.2
	c-0.2,0.3-0.2,3.1-0.9,4.4c-0.3,0.5-0.5,0.3-1.4,0.1c-2.9-0.6-3.4,3.6-4.7,4.4c-0.4,0.2-2.6,2.6-2.8,3c-0.8,1.2-3.4-0.4-4.7-0.1
	c-1,0.2-0.9-1.4-0.9-1.9c0.2-2.1-2.1,0.7-2.9,0.9c-1.4,0.5-1.6,1.8-2.6,1.3c-1.2-0.6-0.8-0.8-1.8-1.8c-0.6-0.6-0.3-0.5-0.7-1.1
	c-1-1.5-0.9-3.2-0.3-4.8c0.8-1.9,0.4-1.5-0.5-1.7c-2.2-0.5-4.2,0.5-6.1,0.5c-1.3-0.1,1.5,2.3,1.8,2.4c0.2,0.1,1,1.1,1,1.1
	c0.6,2.8-1.2,3.2-3,4.5c-1.5,1.2-2.7,0.7-3,2.3c-0.1,0.2-0.3,4.1-0.2,4.3c0.2,1.2,0,2-0.2,3.3c-0.1,1-0.4,1.8-0.4,2.6
	c-0.1,2.2-1,2.9-1.9,4.7c-1,1.9-1.7,2-1.2,4.1c0.5,2.2-2.1,2.2-1.8,3c0.3,1.1-0.2,1.7-0.2,2.5c-0.1,1.9-4.2,3.4-4.1,5.2
	c0.1,1.3-3.5,1.8-3.6,2c-0.4,0.7,0.8,1.6-1.4,3.8c-0.6,0.6-4,1.1-4.8,1.1c-1.4,0-3.9,1.2-4.6,0.7c-1.1-0.7-1.8-0.6-3.1-0.9
	c-0.9-0.2-2.1-1.2-2.9-0.4c-1.1,0.9-1.5,1.2-2.7,1.9c-0.9,0.5-2.4,0.6-2.5-0.6c-0.1-0.9-1.4-0.8-1.5-0.6c-0.7,1.1-0.4,0.8-1.4,2
	c-0.1,0.1-0.2,0.3-0.2,0.4c-0.7,0.9-2,2.8-2.1,3.9c-0.3,2.6-3.4-0.1-4.6-0.6c-2-0.8-4,0.5-4-1.3c0-2.7,0.6-2.5-1.4-2.5
	c-3.1,0-0.2,2.5-2.9,3.5c-1.5,0.5-1.6-1.5-1.5-2.6c0.1-1.6-1.4-1.2-2.1-0.6c-1.6,1.3-2.3,0.8-3.1,1.3c-1,0.6-1.1,3.4-1.7,4.5
	c-1.2,2.2-1.1,2.6-3.4,4.1c-2.3,1.5-4.7-0.2-6.9-1.1c-0.3-0.2-2.5-0.8-0.6-1.8c1.6-0.8-0.8-1.6-1.6-1.6c-4.9,0.2-2.1-4.3-3.6-5
	c-2.3-1.2-1.7,1-4.3-1.9c-0.5-2.3-1.9-3.1,1-4.3c1.5-0.6,2.3-3.8,1.4-4.9c-1.7-1.9,0.2-1.9-0.6-2.8c-1.2-1.3-1.3-3.8-1.4-5.5
	c0-0.7-1.1-1.6-0.9-2.2c0.8-2,1.8-1.2-0.5-3.5l0.2-0.9v-0.9c0-5.3-1.8-2.6-2.5-3.4c-1.3-1.5,1.7-3.2,0.3-4.3
	c-0.8-0.6-0.6-1.5,0.2-1.7c2-0.5,1.2-1,2.4-1.8c0.8-0.5,2.7,0.8,4.2-1c0.6-0.8,2.8-1.9,2.7-2.9c-0.1-2.3,1.6-2.2,2.3-3
	c1.6-1.9,1-2.6,0.4-4.5c-0.7-2.3-2-2.9-0.9-5.3c0.7-1.7-0.1-1.8-0.2-2.4c-0.1-1-2-2-1.2-3.2c1-1.5,0.9,0,1.1-2.8
	c0.1-1.9-2.1-0.8,0.4-5.1c0.2-0.4-0.2-2.8-0.2-2.9c-0.5-1.1,0.6-4.2,0.3-4.3c-1.6-1.1-3.3-0.3-2.8-2.2c0.8-2.6-1.3-1.3-2.4-2.2
	c-1.1-1,0.3-1.8-1.6-2.6c-2.2-0.9-2.3,0.4-3.8,0.4c-0.8,0,0.9-2.1,0.9-2.2c0.9-0.9-1.8-1.4-1.4-1.9c1-1.5,2.5-0.5,1.6-2.9
	c-0.4-1.3-2.6-1.8-1.5-3c1.3-1.5,2,1.2,1.8-3.1c-0.2-1.3-2.1-3.2-1.5-4c0.7-0.9,0.9-2,1.8-2.5c1.9-1,3-0.9,3.8-3.2
	c0.2-0.5,0-2.3-0.1-2.6c-0.3-0.7-0.2-1.5-0.3-1.8c-0.1-0.2-1.7-0.5-2-0.5c-2.6,0.1,0-1.2-0.8-2.2c-1-1.1,1.9-1.5-0.3-2.5
	c-1.8-0.8,0.7-2-0.4-3.1c-3-2.9-0.5-3.5-2.8-4.9c-1.3-0.8-0.4,0.1-1.3-1.2c-0.4-0.6-0.6-1.9,0.2-2.2c2.3-0.9,2.1-0.2,2.8-2.9
	c0.1-0.3,0.3-0.6,0.5-0.8c0.6-1,1.3-1.6,1-2.8c-0.1-0.5-3.3-3-3.7-3.2c-0.7-0.3-1.9-1.6-2.1-2.4c-0.4-2.3-2.2-1.1-2.6-0.1
	c-0.9,2.5-1.9-2.1-1.9-2.5c0-1.5-0.4-3.9-0.3-5.3c0-0.4-0.4-1.7-0.4-1.8c1-0.4,2.1-0.9,3-1.5c0.6-0.4,0.6-1.6,0.4-2
	c-0.7-1.6,1.9-1.4,1.9-2.8c0-1,0.1-1.5,0.2-2.6l-1.1-1.5c0.9-0.4,2-0.9,3-0.9c1.1,0,1.8,0,2.9,0.2c2.5,0.6,1-5.1,3.3-4.7
	c1.9,0.4,2.3,0.4,3.2-1.5c0.5-0.9,1.7-1,2.8-1.7c0.9-0.6,3.4-2,3.3,0.1c0,1.2-0.4,3.4,0.9,4.1c1.1,0.6,1.1-0.9,3.4-0.1
	c0.8,0.3,2.2,0.2,2.4-0.9c0.7-3.2,1.9,0.9,5.1-1.3c1-0.7,2.6-1.2,3.8-1.3c3.3,1.3,1.8,0.4,4.2-0.4c2.6-0.8,1.7,0.3,3,1.3
	c0.8,0.6,0.7,0.6,1.6,1.1c0.4,0.2,3,3.5,3.3,4.1c2.2,4-1.1,3.8,1.7,6.2c0.3,0.2,0.7,0.8,0.9,1.1c2.5,2.8,1.2,0.9,3.6,2
	C404,84.8,402.1,87.1,404.7,86.9z"/>
<path class="st0" d="M530.6,361.5c-0.3,4,0.1,2,1.9,2.2c0.2,0-0.1,1.5,0.1,2c0.2,0.4,0,4-0.2,4.5c-0.2,0.5,0.4,1.2-1,2.4
	c-1.4,1.3-1.6-4.6-2.6-3.7c-0.5,0.5,0.9,1.7-0.4,3.4c-0.5,0.6,0.1,3.1,1.4,2.7c2.5-0.7,1,2,1.9,3c1,1.2-1.3,1.8-0.2,3.7
	c0.1,0.2,1,0.7,1.5,1.4c0.7,1,1.8,1.7,0.5,2.8c-1.1,1-0.7,2.8-3,0.9c-1-0.8-1,1.7-1.6,2.1c-3.4,2-3.5-1.7-4.7,1.3
	c-0.1,0.3-1.7,2-1.9,2.2c-0.5,2.2,0.2,2.2,1,4.3c0.4,1,0,1.8,1.9,1.8c1.3,0,2.8-0.8,3.8-1.5c0.8-0.5,1.5-5.7,3.1-3.8
	c0.4,0.4,1.6,0.1,0.9,1c-0.6,0.7-1.8,3.7-2.5,4.8c-1.3,2.1-2.1,4.6-5.2,4.3c-0.4,0-2-1.4-2.1,0.2c0,0.6,0.9,2,1.3,2.5
	c0.6,0.8-1.5,1-2.3,1.9c-0.9,1.1-2.1,1.9-3.5,2c-0.8,0.1-0.6,0.7,1.1,0.7c1.1,0,3.5,1.5,0.3,1.9c-0.7,0.1-2.3,0.7-2.9,1.2
	c-1.1,0.8-2.5,0.2-4,0.8c-1.9,0.7-1.6-3.2-2.4-2.2c-0.4,0.5-3.9,0-4.5-0.4c-3-2.1-1.6,0.3-3.5,2.7c-1,1.2-2.4,0.3-2.9-1
	c-0.4-1-0.5,0-1.1,0c-0.5,0-2.2,0.5-2.2,1.2c0.1,1-2.5,0.5-3.2,0.5c-1,0-1.9-2-2.8-0.5c0,0.1-0.9,0.3-1.4,0.5
	c-0.1,0-0.4,0.2-0.5,0.3c-0.5,1-0.7,1.4-1,2.3c-0.4,1.1-1.3,0.4-2.2,1.3c-1.6,1.6-5.2-0.4-4.7,1.2c0.1,0.2,1.6,1.3,1.1,2.8
	c-0.1,0.5-4.3,2.3-4.7,2.5c-0.2-0.9-0.2-1.9-2-3.6c-1.3-1.3-0.9-3.4-0.4-4.9c0.6-1.8,1.2-2.9,1.7-4.8c0.5-1.8-1.7,1.2-1.8,1.3
	c-2.1,2.1-1.5,4.6-2.1,5.2c-0.9,0.9-0.6,2.1,0.1,3c0.8,0.9,0.2,2.6-0.2,3.6c-0.5,1.5,0.3,1-0.3,2c-0.8,1.4-3.5,1.9-5,1.2
	c-1.5-0.7-3.2-0.7-4.2-1.1c-0.9-0.3-1.5-0.3-2.3-0.5c-5.2-1.1-4.2,3.4-5.3,2.4c-0.6-0.5-2.6-1.3-3.3-1.3c-1.2,0,1-1.9,1.2-2.5
	c0.6-1.3,1.1-2.2,1.6-3.6c0,0,0.8-2.8,0-1.7c-0.4,0.6-2.4,2.2-2.3,2.6c0.1,1.3-0.8,1.1-1.2,2.3c-0.2,0.6-1.3,1.4-1.7,2.1
	c-0.6,1-1.4,1.2-2.3,1.8c-1.9,1.3-5.4-0.1-7.3-0.7l-0.9-0.1c-0.6-0.1-1.1-0.1-1.4-0.2c0.1-2,0.7-4.6-0.2-6.6c-0.5-1.1-0.3-2-0.5-2.4
	c-1.4-2.9,0.1-4.3-0.3-5c-1-1.9-2.1-0.3-2-2.7c0-0.4-1.6-1.9-1.8-2c-1.3-0.7-1.5-2.4-2.2-3.3c-1.9-2.4,1.5-1.9,2.1-2.1
	c2-0.7,0.1-1.3,3.2-0.9c0.9-0.4,1.6-0.5,2.6-0.4c3.2,0.5,1.3-2.7,3.4-2.3c1.5,0.3,1.3-2.8,1.3-3.8c0-2.6-0.8-3.6-0.7-6.5
	c0.1-1.6-4.3-0.1-4.9,0.2c-1.8,1-3.4,0-2.7-0.8c0.3-0.4,1.9-0.4,1.5-1.6c-0.4-1.5,0.6-2.9,1-4.2c0.6-1.9-3.6-0.1-4.2-0.1
	c-2,0.2-3.4,2-4.3-0.4c-1.8-4.9-3.2,0.8-4.6-3.6c-0.2-0.7-1-1.7-1-1.9c0.1-1,0.6,0.2,0.3-2.3c0-0.8-0.4-2.8-1-3.3
	c-1.5-1.1,0.1-2.8-0.3-3.7c-1-2.2,2.4-4.6-0.7-5c-1.4-0.2-2-1.3-2.9-0.9c-1.2,0.5-1.9-1.5-1.1-2.4c0.9-1,0.9-0.6,0.5-2
	c-0.6-1.8,1.3-1-1-2.3c-0.1,0-0.1,0-0.2,0c-0.9,0.3-2.1,0.8-2.1,1.9c0,1.9-2.7,0.6-3.4-0.1c-1.5-1.6-2-0.1-3.1-0.5
	c-1.8-0.7-4.9,0.4-5.6,0.3c-0.8-0.2-1.7-2.7-1.9-3.5c-0.4-1.5-0.5-1.4-0.5-3.1c0-1.2-0.5-1.9,0.1-2.7c1-1.7,1.8,0.2,1.6-3.2
	c0-0.3-0.7-1.5-0.9-1.8c-0.3-0.3-3,0.6-3.5,0.9c-1.6,0.6-1.7-3.5-1.7-4.4c0-1.2-0.2-1.7-0.4-2.8c-0.5-2.7,0.3-1.7-1.7-3.4
	c-1.2-1-2.4-2.6-1.5-4.3c1.3-2.6-1.8-2.4,0.2-4c0.7-0.5,6.2-1.9,4.8-3c-0.6-0.5-0.8-1-1.2-1.8c1.3-1.3,1.7-2.3,3.2-1.7
	c0.5,0.2,4.8-0.9,6-0.3c1.5,0.7,3.9,1.7,5.5,0.6c1.1-0.7,1.9-2.3,3.5-2.1c1,0.1,1.6,0.4,2.7,0.1c0.4-0.1,1.8-0.2,2.1,0.4
	c0.9,1.9,1.6-0.5,2.9,0.9c1.9,1.9,3.1-0.5,5.1-0.4c1.1,0,1.2-1,1.3-1.8c0.3-1.7,1.1-1.7,2.5-1.5c1.8,0.2,6.5-0.5,6.7,2.4
	c0.1,0.8,1.8,0.7,2.4,3.4c0.2,0.9,0.9,1.9,1.9,1.7c1.3-0.2,1.3-1.3,2.4-0.7c1.2,0.6,2.1,0.4,3.4,0.1c3.1,0.3,1.9-0.1,3.9-0.3
	c1.4-0.1,1.2,1,1.6,1.9c0.3,0.6-1,1-1,1.9c0.1,0,0.4,0.5,0.6,0.6c3.4,1.7,1.6-2.7,3.2-2.7c1.7,0.1,2.5-2.9,4.1-1.9
	c0.7,0.5,0.5,1.2,2.6,1.3c1.7,0.1-0.2,1.6,1.6,1.1c1.4-0.3,1.8,0,2.3,1.1c0.1,0.2,0.3,1.9,0.1,2.2c-0.8,1-2.6,0.8-1.5,2.4
	c0.6,0.9,0.4,4.5,1.7,4.6c1.2,0,3-2.1,3.9,1.4c0.5,1.8,1,0.1,1,3.8c0,0.1,0,0.3,0,0.4c-1.5,2.5-0.6,1.4-0.6,2.5
	c0,0.3-1.9,2.3-0.6,3.6c0.4,0.4,1.7-0.2,2.5-0.3c2.3-0.4,6.8-2.6,8.2-0.3c0.6,1,1.4,2.6,2.7,2.8c1.7,0.3,2.4,1.6,4.1-0.4
	c0.5-0.6,0.6-2.6,2.8-4.1c1.2-0.8,2.6,0.5,3.3,1.4c1.2,1.6,5.9-0.3,7.4-0.4c2.7,0.1,4.5,0.4,6.8-0.9c1.5-0.9-0.1-2.9,2.1-4.1
	c1.1-0.6-1.9-3.1,0.1-3.4c4.2-0.6,0.9-1.1,1-3c0-0.7,1.9-0.9,2.6-1.2c0.9-0.4,0.4,1.4,3.4,0.3c1.9-0.7,3.3,0.4,2.6-2.6
	c-0.3-1.2,0.4-0.2,2-1.1c1-0.6,3.7-2.3,3.7-0.1c0,0.6-0.1,2.6-0.1,3.2c0,0.1-0.2,4.9,0.1,5.1c2.1,1.5,4.2-1.9,3.5,1.8
	c-0.2,1.1-0.5,0.7-0.5,2.3c0,1.2,0.2,1.1,0,2.4c-0.1,1,0.4,6-0.6,6.2c-2.4,0.6-3.9,0.1-2.9,3.9c0.6,2.4-0.4,3.6-1,5.6
	c-0.2,0.5,0,0.8,0,1.1c1.5-0.1,1.8,0,3.1-0.1c0.5,0,3.3,0,3.3,0.4C530.9,360.7,530.6,361.3,530.6,361.5z"/>
<path class="st0" d="M370.5,316.1c1.9-0.5,3.3-1.2,4.1,0.7c1,2.2,2.3,0,2.9-1.1c0.7-1.1,1.2-0.5,2.3-0.8c1.6-0.5,1.6,0.7,2.1,2
	c0.3,0.7-0.2,0.7,1,1.4c1.4,0.9,1,2.9,5.2,1.9c1.2-0.3,3.7,0,4.8,0.4c0.7,0.3,2.9,0.1,3.7,0.1c1.3-1.3,1.7-2.3,3.2-1.7
	c0.5,0.2,4.8-0.9,5.9-0.3c1.5,0.8,3.9,1.7,5.5,0.6c1.1-0.8,1.9-2.3,3.4-2.1c1,0.1,1.6,0.4,2.7,0.1c0.4-0.1,1.8-0.2,2.1,0.4
	c0.9,1.9,1.6-0.5,2.9,0.9c1.9,1.9,3.1-0.5,5-0.4c1.1,0,1.2-1,1.3-1.8c0.3-1.7,1.1-1.7,2.5-1.5c1.8,0.2,6.4-0.5,6.7,2.5
	c0.1,0.8,1.8,0.8,2.4,3.4c0.2,0.9,0.9,1.9,1.9,1.8c1.3-0.2,1.3-1.3,2.3-0.7c1.2,0.6,2.1,0.4,3.4,0.1c3.1,0.3,1.9-0.1,3.9-0.3
	c1.4-0.1,1.2,1,1.6,2c0.3,0.6-1,1-1,1.9c0.1,0,0.4,0.5,0.6,0.6c3.4,1.7,1.6-2.8,3.2-2.7c1.7,0.1,2.5-2.9,4.1-1.9
	c0.7,0.5,0.4,1.3,2.6,1.3c1.7,0.1-0.2,1.6,1.6,1.1c1.4-0.3,1.8,0,2.3,1.2c0.1,0.2,0.3,1.9,0.1,2.2c-0.8,1-2.6,0.8-1.5,2.4
	c0.6,0.9,0.4,4.6,1.7,4.6c1.2,0,3-2.1,3.9,1.4c0.5,1.8,1,0.1,1,3.8c0,0.1,0,0.3,0,0.4c-1.5,2.5-0.6,1.5-0.6,2.6
	c0,0.3-1.9,2.3-0.6,3.7c0.4,0.4,1.7-0.2,2.5-0.3c2.3-0.4,6.8-2.6,8.2-0.3c0.6,1,1.4,2.6,2.7,2.8c1.7,0.3,2.4,1.6,4.1-0.4
	c0.5-0.6,0.6-2.6,2.8-4.1c1.2-0.8,2.6,0.5,3.3,1.4c1.2,1.6,5.9-0.3,7.4-0.4c2.7,0.1,4.5,0.4,6.8-1c1.5-0.9-0.1-2.9,2.1-4.1
	c1.1-0.6-1.9-3.1,0.1-3.4c4.2-0.6,0.9-1.1,1-3c0-0.7,1.9-0.9,2.6-1.2c0.9-0.4,0.4,1.4,3.4,0.3c1.9-0.7,3.3,0.4,2.6-2.7
	c-0.3-1.2,0.4-0.2,2-1.1c1-0.6,3.7-2.3,3.7-0.1c0,0.6-0.1,2.7-0.1,3.2c2.4-0.3,3.2-3.5,5-4.4c2.2-1.1,0.8-1.9,4.3-1.9
	c1.1,0,1.4-0.9,1.1-1.2c-2.2-2.6,1-1.2,0.1-3.5c-0.5-1.4,0.1-2.2,1.1-1.2c1.1,1.2,2.2,0.2,1.8,1.4c-0.2,0.8,0.1,2.7,0.8,2.4
	c1.6-0.6,1.2-2.7,2.2-3.3c2.3-1.4,2.7-0.3,3.5-0.7c1.8-0.9,0-0.9,2.7-1.9l0.1-0.1c0.9-1,1.4-2.1,2.6-2.8c1.8-1.2,0-3.2-0.6-4.7
	c-0.5-1,0-3.3-1-3.4c-1.4-0.2-1.2-2.2-0.7-3.2c0.7-1.6,1.1-3.8,0.5-5.5c-0.5-1.5-0.4-4.2,0.1-5.6c0.6-1.8,0.1-0.7,1.2-1.6
	c1.6-1.2,3.9,0.8,4.4-1.4c0.2-1.1,1.3-2.1,2.1-1.3c1.1,1.2,2.3-0.5,3.2-1.5l0.1-0.1c1.1-0.6,2.1-1.6,2.2-2.9
	c0.1-1.7,1.7-1.2,1.4-1.7c-0.6-1.2-3.1-1.2-3.7-1.9c-0.7-1-0.5-1-1.9-1.5c-2.3-1-2.5-0.5-3.2-2.8c-0.3-0.9-1.6-1.6-0.9-2.1
	c0.6-0.4,1.7-0.2,2.7-0.4c1.5-0.4,1.9-1.2,1.9-1.2c0.9-0.2,1.2,1.9,3.1,1.9c0.6,0,2-0.5,2-0.4c0.4,0,0.8,0.8,1.1,1.1
	c0.7,0.7,1.6-1.6,1.7-2.2c0.1-0.8,0.6-1.9,0.7-2.1c0.2-1.7,0.7-2.3,1.5-4c-0.1-0.1-0.1-0.1-0.2-0.2c-1-0.3-1.7-1.2-2.5-1.8
	c-1.5-1.3-2.5-1.3-4.6-1.2c-1.9-0.1-1.8-0.7-2.8-1.7c-2.1-2-2.2-0.7-3.4,0.5c-0.6,0.6-1.4,2.1-1.7,2.2c-1.6,0.5-0.9-1.3-4-0.4
	c-1,0.3-1.7-0.4-1.7-1.2c-0.1-1.4-2.2-0.4-2.8,0.1c-1.4,1.1-3.5-1-3.6-2c-0.1-0.8,0-2.9-0.1-3.1c-0.6-1.6-0.1-3.6-1.3-4.5
	c-0.6-0.4-1.6-1.7-1.3-2.5c0.9-2.2-0.8-1-0.5-2.5c0.2-1-1.4,0.7-1.4,1.8c0,0.5,0.4,1.4,0.4,1.5c-1,1.3-2.2,0.2-2.9-0.4
	c-1-0.8-1.4-2.1-2.1-3.1c-1.8-2.7-0.7-2.1-3.8-3.6c-1.2-0.6-2.2-0.5-3.1-0.8c-1.7-0.6-0.1-2.5-1.9-2.4c-2.5,0.2-1.7,1-4.4-0.6
	l-0.2,0.2c-1.7,2.4-3.8,2.1-3.8,5.3c0,1.9,1.1,1.8,2.7,2.3c1.1,0.3,1.8,0.3,1.8,1.4c0,3.4-4.1,2.7-3.5,4.8c0,0,2.2,3.5,2.3,3.6
	c1,1.1,0,1.8-0.8,1.8c-1.8,0.1-2.5,0.9-3.6,1.1c-1,0.2-2.8-1-3.7-0.7c-1.3,0.5-0.2,0.5-2.7,0.9c-0.7,0.1-1,0.2-1.6,0.1
	c-1.9-0.3-4.7,1.4-4.4-0.9c0.3-2,0.1-1.4-1.2-2.7c-1.3-1.3-0.1-2.9-1.6-2.3c-4.7,1.9-1.3-2-4.2-2.6c-2.3-0.5-2.2-1.5-4.3,0
	c-1.8,1.3-0.6,3.7-1.6,4.8c-0.8,1-2.6,2.8-3.9,2.9c-1.1,0.1-0.5,2.1-0.2,2.6c0.5,0.9-1.3,1.7-1.8,1.5c-1.3-0.4-3.6,0.2-4.5-0.2
	c-1.7-0.9-4.2,2.5-4.8,1.4c-0.7-1.2-1.6-0.8-1.5-1.6c0.1-1.7-3-1.7-4.2-1.1c-2.3,1-2.4-0.3-3.3,0.6c-2,2.1-1.5,1.8-4.8,1.7l-0.1,0.1
	c-1.9,1.5-3,1.8-3.7,4.5c-0.3,1-1.6,3.3-2.8,3.5c-2.8,0.5-3.5,3-5,4c-2.9,2-2.5-0.8-4.2-1.1c-2.4-0.5-4.1-0.9-6.3,0.5
	c-2.8,1.7-5.5-1-8.7-1.1c-1.3-0.1-2.1-0.6-3.5,0c-1.4,0.6-1.4,0.2-2.2,0.5c-0.5,0.2-3.7-0.1-4-0.2c-1.8-0.7-1.3-0.3-2.8-0.5
	c-2.1-0.3-1.2-0.1-3,0.5c-1.2,0.4-2.3,2.3-2.5,3.5c-0.2,1.2-0.2,2.2-0.9,3.3c-1.8,2.8-3.2,0.8-1.2,4.2c0.6,1.1-0.3,2.9-0.9,2.9
	c-1.9-0.1-1.1-0.4-3.8-0.2c-2.3,0-3.5,3.6-4.8,3.5c-1.4,0-1-0.1-2.1,0.4c-1.4,0.7-2.2,2.1-3.6,2.8c-0.7,0.4-3.9-1.1-4.9,0
	c-3.8,3.7-3.4,1-5.7,0.3c-0.9-0.3-1.3,0.3-2.5,1l-2.2,1.7c-0.5,0.2-1.4,1-1.9,1.2c-1.3,0.5-3.3,2.2-3.7,3.5
	c-0.7,2.1-0.4,2.1-1.7,4.1c-0.8,1.2-0.6,0.9-0.5,2.4c0.1,1.2,0.6,1.6,0.7,2.7C371,314.5,371,313.9,370.5,316.1z"/>
<path class="st2" d="M583,368.5c2.3,1,3.1,1.4,4.3,3.5c0.9,1.6-0.2,2.8,1,4.9c0.7,1.2,0.3,4.2,1.4,4.7c2,1,1.5-0.2,2.6,0.1
	c0.7,0.2,1.3,1,1.8-0.7c0.3-1.1,1.2-0.9,2.1-1.4c0.4-0.2,3.8-1,4.1-0.8c0.8,0.5-2.9,2.8-0.5,3.7c0.5,0.2,0.7,1-0.2,1.5
	c-1.7,0.9,0,1.7-0.3,3.7c-0.2,1.2,0.1,2.6,0.3,3.8c0.1,1.2-0.2,2.7,1,3c1.8,0.6,0.9,1.9,1.4,3.8c0.7,2.4-0.3,1.3,1.4,3.2
	c0.9,1-0.7,2,3.7,2c2.2,0,0.1,2,2.6,1.9c2.4-0.1-0.5,4.2,2.2,4.6c2.4,0.4,2.2,0.8,2.3,3.2c0,0.6-2.8,0.7-2,2.1
	c0.4,0.6-0.3,3.2-1,3.7c-0.4,0.3-0.2,0.3-0.8,0.6c-1.7,0.9-1.2,0.5-2.5,0.9c-2.1,0.7-2.9,3.3-0.1,4c0.8,0.2,2.7,0,2.8,0.2
	c0,0-0.1,1.5,0.1,2.1c0.9,2-2.9,1.4-0.1,4.1c1.2,1.2-0.6,3.4,2.5,2.5c1-0.3,5.1-1.5,4.7,0.6c-0.9,4.3,1.9,1.8,4,3.8
	c2,1.8,4.2,0.2,4.2,3.1c0,1.9-0.6,6.1,0,7.6c0.5,1.2,0.9,1.9,1.5,3l-0.1,0.1c0.8-1.4,2.1-2.8,3.3-3.7c1.7-1.2,1.4-2.6,1.9-4.2
	c0.5-1.8-0.7-3.1,0-4.3c0.2-0.4,2.4,1.6,2.7,1.8c2.5,1.1-1.3,4.1,0.3,4.6c1,0.3,0.4,2.5,2.8,2c0.8-0.2,4.1-3.2,4.6-3.9
	c1.4-2.2,3.4-2.8,5.6-3.8c1.6-0.7,2.2-0.4,3.3-2c0.4-0.6,1.2-1,1.7-1.5c2.8-2.1,1.5-1.9,3-3.4c2.2-2.1,4.6-2.5,7-4.2
	c1-0.7,3.8-2.3,5-2.5c3-0.4,5.1-0.9,8.3-0.9c2.7,0,4.3-0.5,6,1.7c0.4,0.5,0.6,0.4,1.2,1.3c0.7,1.3,1.1-0.5,2.1-1.5
	c2.3-2.4,1.8-2.9,4.8-5c1.6-1.2,3.9-2.6,6-2.6c2-0.7,7.7-2.1,9.8-2.1c1.5,0,3.3,1.8,3.8,3.1c0.7,2,1.4,1.3,2.1-0.1
	c1.3-2.8,0.6-1.8,2.8-3.9c3.5-3.4,3.5-4,7.6-6.2l-1.2-3.6c0.5-0.6-0.3-0.5,0.7-0.9c1.7-0.7,3.6-2.1,2.3-4.1c-1-1.6,0-2.7-0.8-3.1
	c-0.8-0.4-0.5-0.3-1.4-0.5c-2.8-0.8-1.7-0.4-2.9-2.3c-1.3-2.1,1.2-3.4-1.3-4.5c-1.5-0.7-1,0.5-3.8-1.1c-2-1.3-2.7-3.4,0.6-3
	c2,0.2,2.6-1.2,2-2.9c-0.3-0.9-0.3-1.8-0.5-2.6c-0.4-2.3,0.8-1,1.6-1.7c1.1-1,1.8,2.1,4.1,0.1c0.8-0.6,3.2-2.1,3.3-3.1
	c0.1-1.4-1-1.4,0-2c2.2-1.4,1.6,1.6,2.4,1.9c1,0.4,1.1-0.4,1.4-1.1c1.1-2.5,0.6-3.7,2.1-6.1c1.1-1.7-0.6-0.8-1.8-1.4
	c-1.4-0.7-1.5-0.2-3.1,0.2c-1,0.3-2.3-2-3.3-2.7c-0.9-0.6-1.7-1.5-2.6-2.2c-1.3-1-2.3-0.7-2.7-2.1c-0.3-1.1-4,2.6-5,0
	c-0.5-1.4-1-1.8-2-3.1c-0.2-0.5-1-0.9-1.7-0.6c-2,1-1.1,1.1-2.2-1.2c-0.2-0.5-1.1-1.3-0.1-2.2c2.3-2.2-1.2-1.7-1.5-2.1
	c-0.5-0.8,0.7-1.2-1.3-3.8c-0.9-1.2-0.5-2.2-0.9-2.5c-1.2-1.1-1.1-0.8-2.5-0.4c-1.1,0.3-1.2-1.5-1-2c0.6-1.5,1.1-0.4,0.2-2.4
	l-3.8,1.1c-2,0-4.5,1.6-5.4,0.4c-0.7-0.9-2.9-1.1-3.3-0.3c-1.3,2.7-4-0.1-4.8,0c-4.8,0.8,0-3.1-5.1-1.4c-3,1-2.8-1.1-2.4-1.3
	c1.4-1.1,2.9,1.8,1.8-2.8c0-0.1,0-0.3-0.1-0.4c-0.3-2.3-1.8-2.4-1.7-3.4c0-0.9-0.8-2.4-1.3-2.9c-0.7-0.7-0.7-2.5-0.5-3.4
	c0.4-1.2-2.8-0.1-3.3-0.5c-0.5-0.5,0.3-1.3,0.1-2.3c-0.2-0.7-4.5,0.5-5.1,0.6c-2.3,0.4-3.1,1.5-3.1-0.9c0-2.2-4.2,0-4.7-2
	c-0.3-1.2-2-0.6-2.3-0.2c-1,1.1-2.1,1.5-3.4,2.1c-5,2.4-3.3-0.3-5.1-0.4c-1-0.1-2.2-0.8-3.1-1.1c-0.3-0.1-0.5-0.1-0.7-0.2
	c-2.2-0.4-1.8-0.4-3.5-1.4c-1.8-1-1.5-0.3-2.5-0.7c-2.1-0.7-6.4,1.8-8.2,1.6c-0.8-0.1-2.4,1-3.1,1.5c-1.7,1.2-1.9,1.3-3.7,0.9
	c-1.8-0.3-1.2,0.7-2.6-1.1c-1.2-1.6,0-2.3-0.7-2.1c-2.9,0.8-1.5,0.9-1.8,1.9c-0.1,0.6,0,3,0.4,3.4c1.4,1.4-2.8,0.9-0.2,2.7
	c1.1,0.8-0.8,3,0.7,3c2.2-0.1,0.7-0.2,1.3,1.5c0.8,2.1-1.3,1.4-2,1.8c-2.3,1.2-1.5-0.4-3.3,2.7c0,1.3,0.3,2.2,1.8,1.9
	c1.5-0.3,2.4-0.3,2.5,1.6c0.1,1.3,0.2,1.7-0.5,2.9c-1.1,2,0.4,2.3,1.9,2.7c1.8,0.6,2.9-0.7,2,1.6c-0.9,2.3-0.1,1.9-0.1,2.8
	c0,2.5-2.2,2.1-2.2,3.4c0,0.4,0.7,2.3,0.9,2.6c0.5,0.8,0.2,2.9,0.5,3.3c0.9,1.1,0.7,1.5,1,2c1.4,2-4.1,3.4-6.1,1.5
	c-1.7-1.6-8.8-0.9-10-1.7c-1.5-1.1-1.8-0.3-3.5-0.1c-2,0.2-3.5,1.8-5.5,1.8c-1.6,0-4.1,0.6-5.2,0.3c-2.2-0.6-3.5,2.4-5.4,3.1
	C584.1,368.1,585.6,367.2,583,368.5z"/>
<path class="st1" d="M531.2,361.7c2.8-0.5,1.7-0.1,3.7-0.1c1.3,0,3.1-0.5,2.2,1.2c-0.2,0.4-0.3,1-0.2,1.5c0.9,0,3-2.5,3.8,0.1
	c0.4,1.3,0.6,0.5,0.9,2.6c0.2,1.8,1.6-2.1,3.2-2.2c0.7,0,5.3-1,5.3-1.7c0-0.4-1.1-2.1,0.3-2.2c1.6-0.1,1.8-0.9,3.9-0.3
	c2.1,0.6,0,2.2,0.4,4c0,0.2,1.3,1.4,1.6,1.6c2.4,1.5-0.1,2.9,3.7,1.1c0.6-0.3,2.2-0.2,3.3-0.5c0.3-0.1,6.1-0.8,6.4-0.8
	c0.5,0,2.3-0.3,2.3,0.4c0,1.6,0.1,1.1,0.5,2.4c0.5,1.5,2.2,1,3.4,0.5c1.4-0.3,2-0.4,3.2-0.5c1.6-0.1,1.5-0.4,3.3-0.1
	c0,0,0.6,0.1,0.7,0.1c2.6-1.4,1.1-0.5,2.6-0.9c1.9-0.6,3.2-3.6,5.4-3.1c1.1,0.3,3.6-0.3,5.2-0.3c1.9,0,3.5-1.6,5.5-1.8
	c1.7-0.2,2-1,3.5,0.1c1.2,0.8,8.2,0.1,10,1.7c2.1,1.9,7.5,0.5,6.1-1.5c-0.3-0.5-0.2-0.9-1-2c-0.3-0.4,0-2.5-0.5-3.3
	c-0.2-0.3-0.9-2.1-0.9-2.6c0-1.3,2.2-0.9,2.2-3.4c0-0.9-0.8-0.5,0.1-2.8c0.9-2.3-0.2-1-2-1.6c-1.4-0.5-3-0.7-1.9-2.7
	c0.7-1.1,0.5-1.6,0.5-2.9c-0.1-1.9-1-1.8-2.5-1.6c-1.5,0.3-1.8-0.6-1.8-1.9c1.8-3.1,0.9-1.5,3.3-2.7c0.7-0.4,2.8,0.3,2-1.8
	c-0.6-1.7,0.9-1.6-1.3-1.5c-1.5,0,0.4-2.2-0.7-3c-2.6-1.8,1.6-1.3,0.2-2.7c-0.4-0.4-0.5-2.8-0.4-3.4c0.2-1-1.2-1.1,1.8-1.9
	c0.7-0.2-0.5,0.5,0.7,2.1c1.4,1.8,0.8,0.7,2.6,1.1c1.9,0.3,2,0.3,3.7-0.9c0.7-0.5,2.3-1.5,3.1-1.5c1.8,0.2,6.1-2.3,8.2-1.6
	c1,0.4,0.8-0.4,2.5,0.7c1.7,1,1.4,1,3.5,1.4c0.3,0,0.5,0.1,0.7,0.2c0.9,0.3,2.1,1,3.1,1.1c1.8,0.2,0,2.9,5.1,0.4
	c1.2-0.6,2.4-1,3.4-2.1c0.3-0.3,2-1,2.3,0.2c0.5,1.9,4.7-0.2,4.7,2c0,2.4,0.8,1.4,3.1,0.9c0.6-0.1,4.9-1.3,5.1-0.6
	c0.3,1-0.6,1.8-0.1,2.3c0.5,0.4,3.7-0.7,3.3,0.5c-0.3,0.9-0.3,2.7,0.5,3.4c0.6,0.6,1.4,2.1,1.3,2.9c0,1.1,1.5,1.1,1.7,3.5
	c0,0.1,0,0.3,0.1,0.4c1.1,4.6-0.5,1.7-1.8,2.8c-0.4,0.3-0.6,2.4,2.4,1.3c5-1.7,0.3,2.2,5.1,1.4c0.8-0.1,3.5,2.7,4.7,0
	c0.4-0.8,2.6-0.6,3.3,0.3c0.9,1.2,3.5-0.4,5.4-0.4l3.8-1.1l0.2-0.8c0-0.4,0-0.9-0.3-1.1c-0.6-0.4-0.6-0.7-1.2-1.5
	c0.3-1.4,3.6-1.5,3.6-2.9c-0.1-1.8-1.3-1.7-2.1-2.2c-1.9-1-2.1-2.3-1.2-4.2c1-2,0.4-2.2,0.8-3.6c0.2-0.8,2.7-0.9,3.6-1.2
	c1-0.3,1.7-0.5,2.6,0.2c1.3,1.1,0.9,1.2,2.8,1.7c0.7,0.2,3.2,1.6,3.7,1.2c2.2-1.9,1.8-4.6,1.8-7.2c0-1.1-0.7-2.7,0.3-3.1
	c2.2-0.9,1.6-3.5,1.2-5.3c0-3.2-0.3-3.5-3.1-3.4c-4,0.2-0.7-7.7-1.2-8.9c-1.2-2.9,1.6-2.6,1.5-4.9c-0.1-1.8,2-1.8,2-2.6
	c0-0.8-3.3-2.2-4-2.4c-2.2-0.5-1.2-1.7-2-2.1c-1.1-0.7-1.1,0.9-1.5-2.2c-0.7,0-2.4,0.2-3,0.1c-1.1-0.1-2.2,0.3-3.1,0.9
	c-1.2,0.7-3.9,0.3-4.4-1.1c-0.7-1.9-0.6-0.9-1.6-2c-0.5-0.6-1.4,0.4-1.7,0.9c-1.5,2.5-4.4,3.3-4.5,6.1c-0.1,3-0.7-0.3-2.7,0.7
	c-3,1.4-1.3-1.5-0.8-2.7c0.4-0.9-0.6-1.6-1.2-1.7c-2.1-0.2,1.6-2.9-0.1-3.8c-1.6-1-1-1.1-3.4-2.1c-0.2-0.2-0.2-0.3-0.4-0.4
	c-4.4-3.1-1-4.1-2-6.8c-0.3-1-2.2-1.9-3.4-1.6c-1.1,0.3-1.4-0.7-1.2-1.4c0.6-1.9-1-0.3-1.1-1.6c-0.1-1.8,0.7-1.4-0.7-2.5
	c-0.3-0.3,0.1-1.3,0.1-1.3c0.2-0.3-1.3-2.9-1.5-3.1c-1-0.9-1.4-1.9-1.6-3.2c-0.1-1.1-3.3,1.7-3.6,2c-0.4,0.4-3.3,1-3.5,1l-0.1,0.1
	c-3.1,1.1-5.4-1.1-5.9-1.2c-1.3-0.1-3.6-0.3-4.7-1.2c-0.7-0.5-2.6-0.2-3.3-0.1c-1.1,0.3-2.8-0.2-3.5-1.2c-1.2-1.6-5.9-4-6.6-5.2
	c-1.4-2.4-3-1.9-3.4-2.9c-0.3-0.7-1.2-1.7-1.2-1.7c-0.5-1.7-0.5-1.3-2-1.7c-1.3-0.3-2.8-0.4-4.1-0.3c-2.6,0.2-1.3-0.9-2.2-0.9
	c-0.7,0,0.4,0.4-2.3,0l-1.9-1.3c-0.8,0-2.5,0.8-3,1.2c-2.6,2.3-1.4-0.4-2.5-1.1c-0.9-0.5-2.8,0.8-3.3,1.4c-2,2-2.3,1.8-5.1,2.9
	l-0.3,0.1c-1.7,0.5-2.7,0.7-4,2.1c-1.1,1.1-2.4,3.8-4,2.7c-0.9-0.6-1.9-0.4-2.9-1.2c-1.5-1.1-1.9,1.5-2.4,2.5
	c-0.6,1.4-3.2,2.4-2.4,4c0.9,1.9-1.2,4.6-1.3,6.3c-0.1,1.7,0.1,1.8,1,3.2c0.4,0.6,0,2.6-0.1,2.7c-1.8,1.7-0.8,2.4,0.2,3.9
	c0.4,0.6-1,2.3-1.9,1.7c-1.6-1.1-3.1-1-4.1-1.6c-1.6-1-4.3-1.2-4.8-2.9c-0.7-2.4-2.5-2-3.5-2.6c-2.1-1.3,0-1.3-2.6-2
	c-2.6-0.7-1.8,0.2-4.3-1.8c-0.8,1.7-1.3,2.3-1.5,4c0,0.2-0.5,1.3-0.7,2.1c-0.1,0.6-1,2.9-1.7,2.2c-0.3-0.3-0.7-1.1-1.1-1.1
	c0-0.1-1.4,0.4-2,0.4c-1.8,0-2.2-2.1-3.1-1.9c-0.1,0-0.4,0.8-1.9,1.2c-1,0.2-2.1,0.1-2.7,0.4c-0.7,0.4,0.6,1.2,0.9,2.1
	c0.7,2.4,0.9,1.8,3.2,2.8c1.4,0.6,1.2,0.5,1.9,1.6c0.5,0.7,3.1,0.7,3.7,1.9c0.3,0.5-1.3,0-1.4,1.7c-0.1,1.3-1.2,2.3-2.2,2.9L561,286
	c-0.9,1-2.1,2.7-3.2,1.5c-0.7-0.8-1.9,0.2-2.1,1.3c-0.4,2.3-2.8,0.2-4.4,1.5c-1.2,0.9-0.6-0.2-1.2,1.6c-0.5,1.5-0.7,4.1-0.1,5.7
	c0.6,1.8,0.2,3.9-0.5,5.6c-0.4,1-0.6,2.9,0.7,3.2c1,0.2,0.5,2.4,1,3.5c0.6,1.5,2.5,3.5,0.6,4.7c-1.2,0.7-1.7,1.9-2.6,2.9l-0.1,0.1
	c-2.8,1-0.9,1-2.7,1.9c-0.8,0.4-1.2-0.7-3.5,0.7c-1,0.6-0.6,2.7-2.2,3.3c-0.7,0.3-1-1.7-0.8-2.5c0.4-1.2-0.7-0.3-1.8-1.5
	c-1-1-1.6-0.2-1.1,1.2c0.9,2.4-2.3,1-0.1,3.5c0.3,0.3,0,1.2-1.1,1.2c-3.5,0-2.1,0.8-4.4,1.9c-1.8,0.9-2.6,4.1-5,4.4
	c0,0.1-0.2,5,0.1,5.2c2.1,1.5,4.2-1.9,3.5,1.8c-0.2,1.1-0.5,0.7-0.5,2.3c0,1.2,0.2,1.1,0,2.5c-0.1,1,0.4,6-0.6,6.3
	c-2.4,0.7-3.9,0.1-2.9,4c0.6,2.4-0.4,3.7-1,5.7c-0.2,0.5,0,0.8,0,1.1c1.5-0.1,1.8,0,3.1-0.1c0.5,0,3.3,0,3.3,0.4
	C531.5,360.9,531.2,361.6,531.2,361.7z"/>
<path class="st0" d="M768.7,189.1l1.7,3.6c0.2,0.5,1.1,1.9,0.5,2.4c-0.7,0.6-5-0.1-2.9,2.3c0.4,0.5,0.9,1.5,0.3,2.1
	c-0.5,0.7-1.3,1.9-2.1,2.3c-1.1,0.5-1.9,2.7,1,2.9c0.9,0.1,0.4,2.5,0.4,3.3c0,2.8-1.3,1-1.6,3.9c-0.3,2.2-4,1.8-2.8,4
	c0.4,0.7-0.5,0.7-0.5,1.8c0,2.7-2.9-0.1-2.9,5c0.2,2.3,0.1,2.7,1.2,4.5c0.7,1.1,0.5,5.5,0.5,7c-0.1,1.4,3,0.4,3.1,2.5
	c0,1-2.1,0.9-3,2.4c-0.1,0.1-0.5,0.8-0.5,0.8l-0.2,1.2c2.5,1.2,1.3,0.5,2.4,0.8c1.3,0.4-2.3,4,0.2,5.4c1.3,0.7,1.2,1,2.8,1
	c1.9,0,3.9-1.5,4.5-1.2c1,0.5-1.5,2.7-0.9,4.7c0.3,0.9-0.4,1.4,0.6,3.3c0.5,1,0.7,2.3,0.1,3.2c-0.6,0.9-1.7,1.1-2.3,2
	c-0.2,0.3-0.9,0.7-1,1.4c1.4,2.4,0.7,1.4,2.7,1.5c1.3,0.1,1-0.2,2.6,0.2c1.1,0.2,5.9-0.9,5.9-0.2c-0.1,1.6-1,1.3-0.8,3.8
	c0.1,1.6-0.9,1.9,1.8,2.7c0.6,0.2,2.5,1.1,1.5,1.8c-0.8,0.6-1.3,1.9-0.8,2.9c0.8,1.5,0,1.9,1.5,3.7c0.3,0.4,0.4,2.2,0,2.7
	c-0.4,0.5-0.4,0.7-1.1,1.3c-1.7,1.3-1.1,2-0.7,3.6c0.4,1.5,0.4,1.1,0.3,2.7l0,0.1c0.2,2.7-0.2,2.7,1.3,4.2c1.3,1.2-1.4,4.1,1.5,5.6
	c0.7,0.4,3.7-1.1,4.2-0.4c0.8,1.1,0.5,0.2,0.5,1.9c0,2.1-0.4,1.7,0.9,3.2c1,1.3-1.1,4.1-0.6,7c0.2,1.2,5.4,0.6,5.9,1.9
	c0.8,1.9,1,2,1.5,4.2c0.6,2.3,2.6,2.9,4.6,4.1c1.6,1,5.3,1.7,6,2.8c0.1,0.2,0.4,1.9,0.4,2.1c0.1,3.3,0.8,4.6,4,5.1
	c0.7,0.1,1.4,0,2.3,0.3c1,0.3,4.8,0.2,4.8,1c0,0.9-0.1,2.2,0.6,2.8c0.9,0.8,0.2,2.6,0,3.6c-0.1,0.5-0.2,2.4-0.2,2.9
	c0.8,0.3,1.4,1,2.2,1.5c2.7,1.6,4.6-0.3,6.7-1.7h0.3c1.7,0,2.5-0.6,4-0.3c2.7,0.4,1.3-0.1,2.8,1.6c1.8,2,2,2.6,4.2,0.7
	c1.4-1.3,3.4,1.1,4.7,0.8c1.2-0.3,1.7-0.1,2.6-0.3c2.2-0.4,4.4,2.1,6-0.3c1.2-1.8,2.1-2.1,2.3-4.5c0.1-2,0.2-1.6,0.8-3.3
	c0.5-1.4,0.2-1.9,0.6-3.6c0-0.5-0.5-1.1-0.8-1.4c-1.8-1.8,0.1-1.4,1.1-1.6c2.2-0.4,2.6-0.7,1.6-2.4c-0.6-1,1.4-3.5,2-4.3
	c1.6-1.9,0.5-2.8,1.7-4c1.4-1.4,0.3-3.4,2-4.3c1.5-0.8,1.3-0.5,1.3-2c0-1.5-0.8-3-0.8-3.3c0-1.1-1.6,0.9-1.8,1.1
	c-2.6,3.9-1.8-0.4-3.6-0.5c-1.3,0-0.9-1.4,0.5-1.9c1.8-0.6,2.1-1.1,3.1-2.9c-0.4-0.1-0.7-0.7-1-1c-2.2-2.2-0.8-2.2-1.5-3.7
	c-0.4-0.9-2.4-2.2-1.9-3.4c0.3-0.6-0.7-2.1-0.5-2.5c0.5-1.4,0.4-1.5,0.3-2.9c-0.2-2.8-6.1-2.1-8.1-2l0.4-3.3
	c0.1-0.7,0.6-1.8,0.8-2.5c0.3-1.5,1.7-2.4,1.2-3.9c-0.4-1.1-0.2-0.6-0.2-1.8c0-0.6,1-2.3,1.4-2.8c0.4-0.6,2-0.2,1.3-2.9
	c-0.7-2.4,5.1,0,6,0.1c1.5,0.2,2.1,0.6,3.3,1.2c1.1,0.5,2.1-0.6,2.4-1.5c0.3-0.9,2.1-3.1,1.9-4c-0.2-1.2-0.4-2.3-1.2-3.2
	c-1.3-1.5-2.6,4-4.9,2.9c-1.3-0.6-3.8-2-5.2-2.1c-2.9-0.1-1.8-4.2-4.5-4.9c-1.8-0.4-1.6-0.6-2.8-2.5c0-0.3-0.1-0.5-0.1-0.9
	c-0.6-3.6,5.8-0.5,7.9-2.7c1.7-1.7,4.2-0.1,5.3-2.1c0.9-1.6,1.5-3,2.4-4.6c3-5.1,3.9-2.3,5.5-4.7c0.5-0.8,0.6-1.3,1-1.9
	c1.5-2,3.4-0.5,3.9-1.9c1.2-3.1-2-2.2-1-4.7c1.1-2.8,0.1-2.3-1.4-3.6c-0.9-0.8-3.8-2.5-4.3-3.3c-1.3-2.1-1.5-1.9-1.7-4.9
	c0.1-0.3,0.1-1.1,0.1-1.5c0.1-1.2,1.3-2.2,2.3-2.7c1.2-0.6,1.7-1.2,2.6-1.7c2.4-1.4,0.3-2.5-0.2-3.9c-0.5-1.2-2.5,0.4-3.9,0.3
	c-1.8-0.1-3,0.9-4.3,0.4c-1.3-0.5-2.8,2.6-5.5,2.5c-2.6-0.1-3.5-0.7-5.5-2.1c-0.7-0.5-3-1.5-3.1-1.7c-1-1.3-1.5-2.8-2.8-4
	c-2-1.9-1.4-5-2.8-5.3c-1.6-0.3-1.5,0.3-3.6-0.7c-1.5-0.7-0.4-1-3.3-0.6c-1.1,0.5-3.8,1.6-4.9,0.8c-1-0.7-3.3-2.3-3.4-3.6
	c-0.1-2.2,0.3-1.4-1.1-3.1c-1.2-1.4-0.6-1.6-1.2-2.5c-1.2-1.8-3,1.4-3.9,1.7c-2.1,0.6-3.3,3.2-5.3,2.5c-2.1-0.7-2.4,2.6-4.1,0.1
	c-2.2-3.2,0.3-4.7-3-4.6c-1.9,0.1-1.3-0.7-3.2-1.1c-3.2-0.7-2.2-2.5-3.4-2.8c-1.2-0.3-1.8-2.5-1.5-3.5c0.2-0.8-0.5-2-0.5-1.9
	c-1.4,0.8-0.1,1.1-2.6,1.6c-2.2,0-1.9,0-4,0.9c-4.1,1.8-2-4.9-5.8-2.5c-2.7,1.8-3-1.9-3.8-2.8c-1.2-1.4-0.6-3.2-1-3.5
	c-0.9-0.9-4.1,0.7-5.9,0.7c-0.9,0-2.1-1.2-1.7,0.4c0.5,2.4,0.5,3.6,0.6,6c0,1.1,0.7,1.6,0.3,2c-3,3.3-4.4,1.5-6.6,2.6
	C769.5,189.3,769,189.3,768.7,189.1z"/>
<path class="st0" d="M618.8,172c3-1.2,1.4-0.6,2.7-2.1c0.7-0.8,1.8,1.6,3.2,0.2c0.4-0.4,0-1.9,2.9-2.6c1.2-0.3,1.9-2,3.7-1.4
	c0.9,0.2,3.4-0.2,4.2-1c1-1.1,0.2-0.9,2-1.6c1.9-0.8-0.4-2.2,1.7-3.7c0.9-0.7,2.2,2.7,3.5-0.7l0.1-0.1c2.7,0.7,1.5,0.5,2.7,1.8
	c1.4,1.5,2.3-1.5,4.7-1.7c0.8-0.1,2-0.1,2.7,0.1c2,0.8,1.6-0.2,2.5-0.3c0.3-0.8,0.8-1.7,0.8-2.4c1.1,0.3,2.4,0.1,2.9-1.1
	c1-2.3,1.4-1.9,2.7-3.7c1-1.4,0.5,0.3,2.7-0.3c1.8-0.5,3.6-1.3,5.4-1.4c1.1,0,1.6-0.4,3-0.3c2.9,0.1,3.6-0.4,6.1,1.4
	c0.6,0.5,0.3,2.4,2.6,3.4c1.5,0.7,2,2.5,2.7,4c1.2,2.5,3,3.6,5.5,1.8c0.5-0.3,2.4-1.6,2.8-1c1,1.3,1.6,0.7,3,1.3
	c1.2,0.6,4.2,0.3,3.8,2.4c-0.4,2.4,0.8,1.4,2,2.8c1.4,1.6,2.9-0.1,3.4-1.6c0.6-1.8,5-3.6,6.6-4.6c0.7-0.4,1.8-1.4,2.5-1.4
	c2.1-0.7,2.8-0.6,4.8-1.1c1.4-0.3,3.2-0.2,4.8-0.4c3.4-0.6,2.5,0.2,5.9-1.4c2.6-1.2,5.2-0.9,6.3-3.9c0.4-1,0.7,0.1,1.5-0.2
	c0.9-0.3,5.6-2.2,5.9-2.1c0.8,0.1-2.7,3.3,0.5,5.7c1.3,1,0.9,4.5,4.5,4.4c2.2-0.1,1.9,2.2,1.9,3.9c0,1.4-0.4,3.5-0.2,4.6
	c0.1,0.9,1.9,3.1,2.4,4.1c0.1,0.3,0.4,0.6,0.6,0.8c0.2,0.3,1.4,2.8,1.7,3.1c1.2,1.1,4.8,1.5,6.5,2.3c1,0.5,0.3,1,1.9,2.1
	c2,1.4,3.4,4.2,4.6,5c0.3,0.2,1.6,1.4,1.6,1.9c0.1,0.9,0,1.9,0.4,2.2l1.7,3.6c0.2,0.5,1.1,1.9,0.5,2.4c-0.7,0.6-5-0.1-2.9,2.3
	c0.4,0.5,0.9,1.5,0.4,2.1c-0.5,0.7-1.3,1.9-2.1,2.3c-1.1,0.5-1.9,2.7,1,2.9c0.9,0.1,0.4,2.5,0.4,3.3c0,2.8-1.3,1-1.6,3.9
	c-0.3,2.2-4,1.8-2.8,4c0.4,0.7-0.5,0.7-0.5,1.8c0,2.7-2.9-0.1-2.9,5c0.2,2.3,0.1,2.7,1.2,4.5c0.7,1.1,0.5,5.5,0.5,7
	c-0.1,1.4,3,0.4,3.1,2.5c0,1-2.1,0.9-3,2.4c-0.1,0.1-0.5,0.8-0.5,0.8l-0.2,1.2c-0.7,0.4-0.9,0.8-1.5,1.1c-3.3,1.4-4.6,0.3-7.7-0.2
	c-0.9-0.1-3.8-1.1-4.4-0.3c-1.2,1.8-2.3,1-3,2.1c-1.3,2.1,4.5,3.9-0.1,6.5c-2.5,1.4-1.3,0.5-1.3,1.9c0,1.1-2.6,2-3.6,2.2
	c-2.2,0.5-0.2,3.3-2.6,3.5c-1.3,0.1-0.9,0.7-1.9,1.3c-1.6,1.1,0.8,4.7-1.7,5.4c-1.3,0.4-2.1,0.5-3.6,1.1c-1.1,0.4-0.9,0.7-1.2,1
	c-2.1,1.6,1,4.5-2.6,4.5c-0.4,0-1.9-1.1-2-1.2c-0.5-0.8-1.8,0.2-1.8,1.1c-0.1,2.1-2.4,0.6-2.3,1.9c0.2,1.3,0.3,1.3,0.2,2.9
	c-0.1,1.1-1.5-0.6-1.5-0.7c-1-1.8-0.8-1.2-2.2-1.9c-0.9-0.5-4.9-0.6-5.7,0.3c-2.1,2.2-2.9-1-4.9-0.8c-0.7,0.1-0.3,4.5-0.2,5.3
	c0.2,2.4-1.6,2.2-0.6,4c0.7,1.2,1,2.5,1.5,3.7c-0.7,0-2.4,0.2-3,0.1c-1.1-0.1-2.2,0.3-3.2,0.9c-1.2,0.7-3.9,0.3-4.4-1.1
	c-0.7-1.9-0.6-0.9-1.6-2c-0.5-0.6-1.4,0.4-1.7,0.9c-1.5,2.5-4.4,3.3-4.5,6.1c-0.1,3-0.7-0.3-2.7,0.7c-3,1.4-1.3-1.5-0.8-2.7
	c0.4-0.9-0.6-1.6-1.2-1.7c-2.1-0.2,1.6-2.9-0.1-3.8c-1.6-1-1-1.1-3.4-2.1c-0.2-0.2-0.2-0.3-0.4-0.4c-4.4-3.1-1-4.1-2-6.8
	c-0.4-1-2.2-1.9-3.4-1.6c-1.1,0.3-1.5-0.7-1.2-1.4c0.6-1.9-1-0.3-1.1-1.6c-0.1-1.8,0.7-1.4-0.7-2.5c-0.3-0.3,0.1-1.3,0.1-1.3
	c0.2-0.3-1.3-2.9-1.5-3.1c-1-0.9-1.4-1.9-1.6-3.2c-0.1-1.1-3.3,1.7-3.6,2c-0.4,0.4-3.3,1-3.5,1l-0.1,0.1c-3.1,1.1-5.4-1.1-6-1.2
	c-1.3-0.1-3.6-0.3-4.7-1.2c-0.7-0.5-2.6-0.2-3.3-0.1c-1.1,0.3-2.8-0.2-3.5-1.2c-1.2-1.6-5.9-4-6.7-5.3c-1.4-2.4-3-1.9-3.4-2.9
	c-0.3-0.7-1.2-1.7-1.2-1.7c-0.5-1.7-0.5-1.3-2-1.7c-1.3-0.3-2.8-0.4-4.1-0.3c-2.6,0.2-1.3-0.9-2.2-0.9c-0.7,0,0.4,0.4-2.4,0
	c0,0,0.1-1.2,0.1-1.2c0.4-1.3-0.3-2.3-0.4-3.2c-0.5-3.7,1-2.8,1.3-6.2c0.2-2.9,1.1-0.9,2.3-0.5c0.8,0.2,4.5,2,4.8,1.8
	c0.3-0.3,4.1-0.2,4.5-0.1c1.7,0.5,1.8-1.9,2.1-3c0.5-0.7,3.3-3.9,2.8-4.8c-1.3-2.2,0-2.6,0-3.1c0-1-1.2-0.1-1.2-2.4
	c0-2.7,0.7-1.5,3.1-1.7c0.8,0,3.8,0.2,4.2-0.2c1-0.8,0.3-1-0.2-1.2c-0.4-0.2-3.4-2.8-3.3-3c0.1-0.9,2.3-0.6,2.9-2.1
	c0.7-1.7-1.3-4.3-1.4-5.1c-0.1-1.7-1.7-1.7-2.9-1.7c-4.4,0.3-4-1.5-5.9-1.5c-1.7,0-1.2-2.2-0.9-3.2c0.4-1-1.2-0.4-1.6-0.9
	c-0.2-0.3-0.7-3.5-0.7-3.5c0.2-0.5,0.3-1.3,0.4-1.7c0.5-1.7-1.5-2.1-2.6-2.6c-1.1-0.4-4-0.6-4.3-1.4c-0.4-0.9-2-1.5-2.9-1.3
	c-3,0.7-2.5-1.3-4.3-2.4c-0.6-0.3-0.9-0.9-1.1-1c-2-1.2-0.8-5.9,0.3-7.3c0.5-0.6,2.9-3.2,2.8-4c-0.3-1.9-0.8-1.4-1-2
	C619,174,619.1,173.4,618.8,172z"/>
<path class="st0" d="M707.1,285.4c-0.5-1.2-0.8-2.5-1.5-3.7c-1.1-1.8,0.8-1.6,0.6-4c-0.1-0.7-0.5-5.2,0.2-5.3c1.9-0.2,2.8,3,4.8,0.8
	c0.8-0.9,4.8-0.8,5.7-0.3c1.3,0.7,1.2,0.1,2.2,1.9c0,0.1,1.4,1.9,1.5,0.7c0.1-1.5-0.1-1.5-0.2-2.8c-0.1-1.2,2.2,0.2,2.3-1.9
	c0-0.8,1.3-1.8,1.8-1.1c0.1,0.2,1.6,1.2,2,1.2c3.6,0,0.5-2.9,2.6-4.5c0.4-0.3,0.1-0.6,1.2-1c1.5-0.6,2.2-0.7,3.6-1.1
	c2.5-0.7,0.1-4.3,1.7-5.4c0.9-0.7,0.5-1.2,1.9-1.3c2.4-0.3,0.4-3.1,2.6-3.5c0.9-0.2,3.6-1.1,3.6-2.2c0-1.4-1.2-0.6,1.3-1.9
	c4.6-2.5-1.2-4.4,0.1-6.5c0.6-1.1,1.8-0.3,3-2.1c0.6-0.9,3.5,0.1,4.4,0.3c3.1,0.5,4.4,1.6,7.7,0.2c0.6-0.3,0.8-0.7,1.5-1.1
	c2.5,1.2,1.3,0.5,2.4,0.8c1.3,0.4-2.3,4,0.2,5.4c1.3,0.7,1.2,1,2.8,1c1.9,0,3.9-1.5,4.5-1.2c1,0.5-1.5,2.7-0.9,4.7
	c0.3,0.9-0.4,1.4,0.6,3.3c0.5,1,0.7,2.3,0.1,3.2c-0.6,0.9-1.7,1.1-2.3,2c-0.2,0.3-0.9,0.7-1,1.4c1.4,2.4,0.7,1.4,2.7,1.5
	c1.2,0.1,1-0.2,2.6,0.2c1.1,0.2,5.9-0.8,5.8-0.2c-0.1,1.6-1,1.3-0.8,3.8c0.1,1.6-0.9,1.9,1.8,2.7c0.6,0.2,2.5,1.1,1.5,1.8
	c-0.8,0.6-1.3,1.9-0.8,2.9c0.8,1.5,0,1.9,1.5,3.7c0.3,0.4,0.4,2.2,0,2.7c-0.4,0.5-0.4,0.7-1.1,1.3c-1.7,1.3-1.1,2-0.7,3.6
	c0.4,1.5,0.4,1.1,0.3,2.7l0,0.1c0.2,2.7-0.2,2.7,1.3,4.2c1.3,1.2-1.4,4.1,1.4,5.6c0.7,0.4,3.7-1.1,4.2-0.4c0.8,1.1,0.5,0.2,0.5,1.9
	c0,2.1-0.4,1.7,0.9,3.2c1,1.3-1.1,4-0.6,7c0.2,1.2,5.3,0.6,5.9,1.9c0.8,1.9,0.9,1.9,1.5,4.2c0.6,2.3,2.6,2.9,4.5,4
	c1.6,1,5.3,1.7,6,2.7c0.1,0.2,0.4,1.9,0.4,2.1c0.1,3.3,0.8,4.6,4,5.1c0.7,0.1,1.4,0,2.3,0.3c0.9,0.3,4.8,0.2,4.8,1
	c0,0.9-0.1,2.2,0.6,2.8c0.9,0.8,0.2,2.6,0,3.6c-0.1,0.5-0.2,2.4-0.2,2.9c-0.3-0.1-0.6-0.1-0.9-0.1c-0.8,0.1-1.7,0-2.7,0.3
	c-0.8,0.2-2.8,0-3.6-0.1c-2.8-0.6-2.5,1.4-3,2.1c-1.4,1.9-1.7,1.1-1.5,3.9c0.1,0.9-1.7,6.1-2.4,6.2c-1.3,0.2-1.5-3.1-4.2,1.2
	c-1.3,2.1-3.2,2.4-5.5,2c-0.4-0.1-3.3,0-3.7,0.4c-0.9,0.9-0.3,2.4-2.8,2.1c-0.4-0.1-2.2,0.2-2.7,0.2c-1.4,2.5-0.6,2-1,2.8
	c-0.4,1-2.6,0.6-2.6,4.2c0,2.4,1.1,4.6,0.5,6.9c-0.6,2.5-1.4,3.3-2.3,5.3c-0.5,1.1-0.8,4.2,1,3.3c1.2-0.6,3.5-0.3,2.1,1.8
	c-1.8,2.8-3.3,2.2-3.4,6.3c0,1.4-0.6,1.5-0.3,3.6c0,0.2,0,1.3,0,1.5c-0.8,0.3-1.5,0.6-3,1.5c-1.1,0.7-1.3,2-1.5,2
	c-0.6,0-0.8-2.1-1-2.6c-0.5-1.2-4.5,0.2-5.7,0.4c-1.4,0.2-2.7,0.1-4-0.3c-0.1,0-3.7-0.1-3.9,0c-0.7,0.1-1,0-1.6,0
	c-2.7,0.1-2.7,0.9-4.5,1.3c-1.4,0.3-1.5,0.2-2.5-0.6c-1.1-0.9-5.1,1.5-6.1,2l-0.2,0.1c-2,1.1-2.9,2.3-4.3,3.9
	c-1.3,1.6-1.1,1.4-2.1,3.1c-0.6,1-0.7,2.4-1.1,2.7c-0.8,0.8-2.2,3.4-3.4,1.6c-1.8-2.7-5.2-3-7.5-0.9c-1.7,1.6-1.9,1-3.7,1.9
	c-0.3,0.1-0.6,0.3-0.8,0.4l-1.2-3.6c0.5-0.6-0.3-0.5,0.7-0.9c1.7-0.7,3.6-2.1,2.3-4.1c-1-1.6,0-2.7-0.8-3.1
	c-0.8-0.4-0.5-0.3-1.4-0.5c-2.8-0.8-1.7-0.4-2.9-2.3c-1.3-2.1,1.2-3.4-1.3-4.5c-1.5-0.7-1,0.5-3.8-1.1c-2-1.3-2.7-3.4,0.6-3
	c2,0.2,2.6-1.2,2-2.9c-0.3-0.9-0.3-1.8-0.5-2.6c-0.4-2.3,0.8-1,1.6-1.7c1.1-1,1.8,2.1,4.1,0.1c0.8-0.6,3.2-2.1,3.3-3.1
	c0.1-1.4-1-1.4,0-2c2.2-1.4,1.6,1.6,2.4,1.9c1,0.4,1.1-0.4,1.4-1.1c1.1-2.5,0.6-3.7,2.1-6.1c1.1-1.7-0.6-0.8-1.8-1.4
	c-1.4-0.7-1.5-0.2-3.1,0.2c-1,0.3-2.3-2-3.3-2.7c-0.9-0.6-1.7-1.5-2.6-2.2c-1.3-1-2.3-0.7-2.7-2.1c-0.3-1.2-4,2.6-5,0
	c-0.5-1.4-1-1.8-2-3.1c-0.2-0.5-1-0.9-1.7-0.6c-2,1-1.1,1.1-2.2-1.2c-0.2-0.5-1.1-1.3-0.1-2.2c2.3-2.2-1.2-1.7-1.5-2.1
	c-0.5-0.8,0.7-1.2-1.3-3.8c-0.9-1.2-0.5-2.2-0.9-2.5c-1.2-1.1-1.1-0.8-2.5-0.4c-1.1,0.3-1.2-1.5-1-2c0.6-1.5,1.1-0.4,0.2-2.4
	l0.2-0.8c0-0.4,0-0.9-0.3-1.1c-0.6-0.4-0.6-0.7-1.2-1.5c0.3-1.4,3.6-1.5,3.6-2.9c-0.1-1.8-1.3-1.7-2.1-2.2c-1.9-1-2.1-2.3-1.2-4.1
	c1-2,0.4-2.2,0.8-3.6c0.2-0.8,2.7-0.9,3.6-1.2c1-0.3,1.7-0.5,2.6,0.2c1.3,1.1,0.9,1.2,2.7,1.7c0.7,0.2,3.1,1.6,3.7,1.2
	c2.2-1.9,1.8-4.6,1.8-7.1c0-1.1-0.7-2.7,0.3-3.1c2.2-0.9,1.6-3.5,1.2-5.3c0-3.2-0.3-3.5-3.1-3.3c-4,0.2-0.7-7.7-1.2-8.9
	c-1.2-2.9,1.6-2.6,1.5-4.9c-0.1-1.8,2-1.8,2-2.6c0-0.8-3.3-2.2-4-2.4c-2.2-0.5-1.2-1.7-2-2.1C707.5,286.9,707.5,288.4,707.1,285.4z"
	/>
<path class="st0" d="M95.3,135.1l2.1-0.8c2.5,0.4,1.6,0.6,2.4,2.1c0.1,0.2,1.1,0.4,1.4,1.6c0.2,0.7,1.8,1,2.7,1.7
	c1.4,1.1,1.6-1.5,3.1-1.5c2.7,0,2.2-2,3.7,2.2c0.7,2.1,3.1,0.8,5.1,1c0.7,0.1,3.1-0.1,2.7,1.2c-0.5,1.8-0.4,2.4,0.9,3.7
	c1.1,1-0.2,2.1,0.5,4c0.6,1.5,0.2,2.1,2.3,2.9c0.7,0.3,3.4,1.3,3.5,2.1c0.5,2.4,0.2,2,2.5,2c1.1,0,2.5-0.3,3.5-0.6
	c0.1,0,2.6,0.6,3.1,0.4c1-0.3,2.4-4,3.1-1.8c0.9,2.7,2.8,0.3,3.8,2.9c0.2,0.4-0.4,2.7,0.6,2.9l2,1c0-0.9,0.4-1.7,1-2.3
	c0.6-0.6,0.5-0.3,0.9-0.5c2.6-1.6-0.9-5.1,1.4-4.5c2.2,0.6,1.2-1.5,0.3-2.2c-2.7-1.9-0.4-1.7-1.2-3c-0.5-0.8-1.4-1.5-0.8-1.8
	c1.2-0.6,1.1,0.6,1.8-1.5c0.6-4.2-3.9-2.6-2.3-3.9c0.4-0.3,2.9-0.5,3.5-0.5c0.5,0,2.4,0.5,2.9,0.7c1.1,0.4,2.4,0.2,2.7-1.1
	c0.8-3.1-1.4-4.2-0.7-5.1c1-1.4,2,0.8,2.5,1c2.6,1,2.5-0.4,0.9-2.1c-1.6-1.7,1.7-1.2,1.8-2.5c0-0.6,1.2-0.7,1.7-0.5
	c1,0.2,3.3-0.3,4.2-0.6c1.5-0.6,3-1.3,4.5-1.8c1.4-0.4,0.9-0.4,1.8-0.9c1.5-0.8,1.7-0.3,2.4,0.8c0.7,1.1,0.6,2.2,0.9,2.7
	c1.1,1.5,4.7-1.8,4.3,1.7c-0.1,0.4,0,2.6,0.7,2c0.5-0.6,0.8-2.9,1.5-4.1c0.4-0.7,0.9-2.5,1-3.4c0.1-0.6,0.7-2.8,0.9-3.3
	c0.5-1.1,1.3-3,0.7-4.1c-0.7-1.3,1.1-0.9,1.7-0.7c1,0.4,3.4,0.3,3.7-0.7c0.7-2.2-2-2.7-1.5-3.8c0.5-1.3,0.7-3.2-0.5-4.3
	c-1.8-1.8,1.8-1.5,2.5-1.9c1.4-0.7,1.6-0.7,2.7-2.1c0.2-0.3,0.4-1,0.6-1.4c0.6-1.3-1-2.8-1.9-3.7c-1-1.1-3.3-2.3-4.8-2.2
	c-1.7,0.1-1.5-2.2,0.3-2.3c1.1,0,3.9-1.4,4-2.7c0.1-0.8-0.4-2.8-0.7-3.5c-0.5-1.2-2.3-2.1-3.4-2.6c-2.8-1.2-1.2-2.8-2.1-4.1
	c-1.2-1.7-3.1-1.7-4.2-3.6c-0.3-0.6-0.3-2.3-0.4-2.8c-0.3-1.5,0.1-0.9-0.9-0.8c-1.3,0.1-2.4,0.5-3-0.8c-0.4-0.8-1.2-0.6-1.9-0.2
	c-1.3,0.8-1.2-1.2-1.8-1.7c-1-0.7-1.1-1.7-1.5-2.9c-0.1-0.3-0.2-0.6-0.3-0.9c-0.5-1.6-0.8-1.5-1.2-2.2c-0.5-1-2.4-0.8-2.1-2.3
	c0.3-1.3-0.4-1.6,0.2-2.4c1.5-2.1,0.1-2.6-0.5-4.4c-0.7-2.4,2.2-3,2.9-4.4c0.2-0.4,1.3-3.3,1.3-3.3c0.7-1,1.4-4.4,0.5-5.4
	c-1.1-1.3-0.2-2.9-0.6-4c-0.8-1.8-0.2-1.6,0.4-3c0.4-0.9,2.7-2.3,2-2.7c-0.3-0.2-2.3-0.6-2.3-0.6l-2.6-1.6c-0.8,0-1.6-0.2-2.4-0.4
	c-3-1-3.3,0.6-5.5,0.6c-2.5,0-4.9-1-7.2-2c-4.8-2.1-3.2-2-8.1-0.6c-1.5,0.4-6.5,3.5-7.8,4.5c-1.3,1-2.1-0.3-2.6-0.7
	c-1.3-0.8-1.6,1.2-3.4-0.1c-0.9-0.6-3.8,1.3-4.3,1.5c-3.2,0.2-2.9-0.9-5.7-0.9c-2.1,0-7,2.9-8.7,2c-0.9-0.5-1.1-0.1-1.8-0.3
	c-2.2-0.7-2.6,3.6-3.8,5c-2.8,3.3-0.6,3.3-1.5,5.8c-0.6,1.9-0.1,1.4-1.7,2.6c-1.6,1.1-3.4,1.9-5.1,2.7c-2,0.9-2.5,3.2-3.4,4.2
	c-0.9,0.9-1.6,2.8-3,2.8c-1.7,0-3.1-1-4.2-1.1c-2.4-0.3-1.6-1.1-1.6-2.3c0-0.8-3.2-0.9-4.1-1.2c-1.2-0.4-1.1-1.2-1.8-0.9
	c-2,0.8-2.1-0.5-3.2,0.2c-0.7,0.5-1.8,1.5-2.3,1.8c-2.3,1.5-2.4,0.8-1.3,3.4c0.4,0.9,1.5,2,0.8,2.6c-1,0.9,0.1,1.7,0.5,2.5
	c0.6,1,0.2,1-0.9,1.9c0.7,1.8,0.6,1.8,1.4,3.1c0.1,0.2,0.2,3,0.3,3.7c0.6,3.7-2.2,4-1,7.1c0.5,1.2,1.6,0.3,2.4,3.7
	c1,4.3,1,2.5,3.5,5.7c1.3,1.7,0.7,1,2.3,2.2c2.5,1.9,0.5,2.7,1.5,5.3c1.4,2.2,1.4,2,3,3.7c1.4,1.4,0.7,6.4,3.7,8.8
	c0.2,0.2,1.3,1.4,1.8,1.9c1.4,1.3,1,1.4,3,2.3c1.2,0.5,2.2,2.2,0,2.3c-0.7,0.1-4.1,0.6-4.6,1c-1.5,1.3-2.9,3.3-0.8,4.8
	c1.7,1.2,2.7,1.3,2.2,3.3c-0.3,1.2,2.4,0.2,1.8,4.1C94.9,132.7,95.2,134,95.3,135.1z"/>
<path class="st0" d="M144,162.1c1.6-0.2,1.7-0.3,3-0.3c0.6,0,1.7-0.3,1.6,0.9c-0.3,2.2-1.2,2.5-0.4,4.9c0.6,1.7,2.5,0.5,1,3.3
	c-0.9,1.8,0.6,3.7,1.4,5.1c0.5,1,1.1,1.4,1.5,2.7c0.4,1.2,1.2,2.3,2,3.1c0.6,0.6,1.3,0.7,1.9,1.1c1.7-2.7,1-1.1,2.9-2.8
	c1.2-1.1,1.3-1,2.1-2.7c0.3-0.6,0.8-2.4,0.5-3c-0.2-0.5,0.4-4.1,1.4-3.2c0.2,0.1,2.4,0.9,2.9,0.7c1.4-0.7,0.4-1.4,1.1-0.8
	c0.4,0.3,2.3,0.6,2.9,0.4c1.5-0.5,3-2.3,5-1.6c0.8,0.2,3.8-0.1,4.6-0.8c1.1-0.9,2.3-1.6,3.1-2.9c0.4-0.7,2.7-2.6,3.5-2
	c0.3,0.3,2,1.4,2.5,1.2c1.2-0.4,1.9-1.4,3.1-1c0.8,0.3,0.3,2,3.9,0c1.1-0.6,2.6-2.1,2.5-0.3c0,0.9-3.3,3.5-0.8,4.6
	c0.5,0.2,0.3,1,1.3,1.4l0.1,0.1c2.6,0.1,2.2-0.3,3.5-1.6c0.6-0.6,1-1.8,2.1-2.5c2.2-1.4,1-1.3,3.6-1.8c2.1-0.4,4.3-1.9,5.7-3.5
	c0.6-0.7,1.9-3,2.5-3.6c1-1,2.9-1.6,3.4-2.4c0.2-0.4,2.9-3,3.2-3.7c0.7-1.5,1.9-3.9,3.3-4.8c0.9-0.6,0.6-1,2.1-1.4
	c1.8-0.4,2.1-3.2,5.2-1.5c2.8,1.6,2-1.4,4.4-1.8c0.4-0.1,0.6,1.2,1.8-0.8c0.3-0.6,3.6-3.9,3-1.6c-0.2,0.7,0,1.6,0.7,2l2.5-0.1
	l0.7-0.7c0.5-0.1,1.3-1.2,0.9-1.8c-0.7-1-0.6-0.7-0.8-1.9c-0.1-0.7-0.5-3.1,0.2-3.5c1.1-0.8,2.5-3.9,2.6-5.1c0.2-3-1.1-0.7-0.3-5.1
	c0-0.7-0.7-2.6-0.8-3.6c-0.3-1.7,0.3-3.6-0.4-4.9c-1.6-3.2,0.5-2.9-1.1-5.9c-0.6-1.2,1.3-3.3,1.9-3.4c1-0.2,2.1-1.1,3-1.7
	c0.9-0.7,2.1-3.2,2.2-4.3c0.2-2.2,1.5-3.6,1.6-4.5c0.2-1.8,1.3-3,2.4-4.5c1.5-1.8,1.8-2.9,0.9-5c-0.3-0.6-0.2-1.6,0.4-1.8
	c1.8-0.6,1.3-1.4,1.9-2.5c0.9-1.7-0.5-2.7-0.5-3.2c-0.1-1.4,0.3-1.6,0.4-3c0.4-3.4,1.8,0.4,3,1c2,1,0.8-2.3,0.9-3.1
	c0.1-1-0.3-1.6,0.4-2c1.6-1,0.9,0.2,3-1.8l2.4-0.6c-0.6-0.8-1.6-0.8-1-2.3c1-2.5,2.5-1.2,1.8-5.1c-0.7-1.8-3.1-1.1-4.4-1.1
	c-1,0-3.1-2.5-4-1.7c-2,1.8-0.6,3.2-1.6,3.9c-1.6,1.2-2.6-2.3-3.5-1.9c-1.5,0.7-2.4,0-4-0.1c-2.1-0.2-2.1,1.3-4.2,0.5
	c-1.6-0.6-1.5-1.6-1-3c0.3-1,0.4-1.4-0.5-1.8c-0.7-0.3-1.9-0.1-1.8-1.4c0.2-1.7,0.2-3,0.7-4.7c0.7-2.2-1.7-1.9-3.2-1.9
	c-2.3,0.1-2.6-0.3-5.3,0c-0.5,0-1.4,0.3-1.9,0.4c-1.8,0.4-3.8,2.9-5.5,1.2c-1.1-1.1-3.1-2.1-4.7-1.8c-1.4,0.3-1.8-1.4-1.5-2.3
	c0.5-1.8-3.8-1.8-4.8-1.6c-1.2,0.2-2.1-0.6-3.3-0.6c-2.5,0.1-2.3,1.1-3.3,1.7c-2.7,1.5-3-1.5-4.8-1.9c-0.9-0.2-1.5-1.5-1.6-2.3
	c-0.1-1.1-2-0.7-2.7-0.5c-0.8,0.2-1.7,0.1-2.3,0.2c-1.8,0.2-2.6-0.7-4-0.4c-2,0.3-0.8,0.1-2.4,0c-1.1-0.1-3.7-2.5-4.2-3.5
	c-1-2-6.4-0.5-7.7-0.2h-0.1c-1.1,0-3.1-0.6-3.9-1.3c-3.3-2.7-2.9,2.1-6.5,1c-1.5-0.4-3.1-0.2-4.8-0.3l2.6,1.6c0.1,0,2.1,0.5,2.3,0.6
	c0.6,0.4-1.6,1.8-2,2.7c-0.6,1.3-1.1,1.1-0.4,3c0.5,1.1-0.4,2.7,0.6,4c0.9,1,0.1,4.3-0.5,5.4c0,0-1.1,2.9-1.3,3.3
	c-0.6,1.4-3.6,2-2.9,4.4c0.5,1.8,2,2.3,0.5,4.4c-0.6,0.8,0.1,1.1-0.2,2.4c-0.4,1.5,1.6,1.2,2.1,2.3c0.3,0.7,0.7,0.6,1.2,2.2
	c0.1,0.3,0.2,0.6,0.3,0.9c0.4,1.1,0.6,2.2,1.5,2.9c0.7,0.5,0.5,2.5,1.8,1.7c0.7-0.4,1.5-0.7,1.9,0.2c0.6,1.3,1.7,0.9,3,0.8
	c1-0.1,0.6-0.7,0.9,0.8c0.1,0.5,0,2.2,0.4,2.8c1,1.9,3,1.9,4.2,3.6c0.9,1.3-0.7,2.8,2.1,4.1c1.1,0.5,2.9,1.4,3.4,2.6
	c0.3,0.8,0.8,2.7,0.7,3.5c-0.2,1.2-2.9,2.6-4,2.7c-1.8,0.1-2,2.3-0.3,2.3c1.5-0.1,3.8,1.2,4.8,2.2c0.9,0.9,2.5,2.4,1.9,3.7
	c-0.2,0.4-0.4,1.1-0.6,1.4c-1.1,1.4-1.3,1.3-2.7,2.1c-0.7,0.4-4.3,0.2-2.5,1.9c1.1,1.1,1,3,0.5,4.3c-0.5,1.1,2.2,1.6,1.5,3.8
	c-0.3,1-2.7,1.2-3.7,0.7c-0.5-0.2-2.4-0.7-1.7,0.7c0.6,1.1-0.2,3-0.7,4.1c-0.2,0.5-0.8,2.8-0.9,3.3c-0.1,0.8-0.6,2.6-1,3.4
	c-0.7,1.2-1,3.5-1.5,4.1c-0.6,0.7-0.7-1.5-0.7-2c0.4-3.5-3.2-0.2-4.3-1.7c-0.3-0.4-0.2-1.6-0.9-2.7c-0.7-1.1-0.8-1.6-2.4-0.8
	c-0.9,0.5-0.4,0.4-1.8,0.9c-1.6,0.5-3,1.1-4.5,1.8c-0.9,0.4-3.2,0.9-4.2,0.6c-0.5-0.1-1.6-0.1-1.7,0.5c-0.1,1.2-3.3,0.8-1.8,2.5
	c1.6,1.7,1.7,3.1-0.9,2.1c-0.6-0.2-1.5-2.4-2.5-1c-0.6,0.9,1.5,1.9,0.7,5.1c-0.3,1.3-1.7,1.4-2.7,1.1c-0.5-0.2-2.4-0.7-2.9-0.7
	c-0.6,0-3.1,0.1-3.5,0.5c-1.6,1.2,2.9-0.3,2.3,3.9c-0.7,2.1-0.6,0.9-1.8,1.5c-0.7,0.3,0.3,1.1,0.8,1.8c0.8,1.3-1.5,1.1,1.2,3
	c0.9,0.6,1.9,2.8-0.3,2.2c-2.3-0.6,1.3,2.9-1.4,4.5c-0.4,0.2-0.3-0.1-0.9,0.5C144.4,160.4,144,161.2,144,162.1z"/>
<path class="st0" d="M69.6,278.2c1.5,1,1.2,0.6,2.4,1c1.7,0.5,1.8,0.9,3.1,2.1c0.4,0.4,1.5,2.1,1.5,2.7c0.1,1.3,3-0.4,4.1,0.3
	c0.5,0.3-0.8,1,0.3,2.3c0.6,0.7,0.1,1.5,1.8,2.5c0.9,0.5,0.2,0.5,1.7,0.8c0.9,0.2,2.1,0,2.1,0.8c0,0.7,0.4,1,0.4,2.6
	c0,0.9,0.4,0.6,0,2.3c-0.2,1,0.5,2.7,1.9,1.8c0.7-0.5,1.4-0.8,1.9-1.7c0.1-0.3,1.7-1.3,2.2-1.3c1.7-0.1,5.3-3.6,3.8,0.5
	c-0.3,0.9,1.3,2.8,1.3,5c0,1.3,1.4,2.7,2.4,3.4c0.7,0.6,1.3,2,2.8,1.2c1.1-0.6,2-3,4.2-1.6c1.2,0.8-0.6,1.4,2.2,3.2
	c0.2,0.1,0.4,0.3,0.5,0.4c1.6,1.7,2.2,1.6,3.6,2.9c1.4,1.2-0.5,3.2,1.5,3.8c1.5,0.4,0.7,2.2,1,3.4c0.4,1.6-1.3,3.7,1.4,6.3
	c3.7,3.6,4.3,2.5,1.3,7.2c-0.8,1.3-0.3,2.6-0.5,3.8c-0.8,0.1-1.5,0.4-2.1,0.2c-1.2-0.4-2.3,0.7-3.3,0c-1.6-1.1-2.8,1.4-3.8,2.2
	c-2.1,1.6-3.5,0.7-5.2,1.3c-2.7,0.8-2.2,0.8-4.8-0.1c-1-0.3-0.8,0-2.1-0.6c-0.9-0.7-1.1-0.4-1.7-1.3c-0.7-1-4.6-1.7-5.8-1.4
	c-1.9,0.4-3,1.8-4.6,1.5c-4.1-0.7-1.6-2.3-6.5-2.4c-3.3-0.1-1.7-1.8-3.6-1.6c-2.6,0.3-1.2-0.1-2.9-0.7c-2.7-1-1.8,0.7-3.8-0.6
	c-1.8,3.9-3,2.6-5.6,1.2c-2.2-1.2-2.1-1.1-4.2-3.1c-0.6-0.5-2-1.5-2.3-2.1c-0.6-1.5,1.7-2.3-1.7-2.5c-1-0.1-2.3,0.3-2.9-0.4
	c-0.7-0.9-1.5,0-1.9,0.7c-0.5,1.1-0.6,1.4-1.3,2.5c-1.3,2-0.4,3.1-3.1,4.5c-0.5,0.3-2.8,0.1-3.3,0c-0.9-0.1-1.4-0.9-1.8-0.6
	c-1.4,0.7-0.3,2-0.8,2.9c-0.8,1.2-0.8,0.7-1.9,0.4l-0.1-0.1c-0.5-0.4-0.9-0.4-1.4-1.1c-0.8-1-0.6-1.5-0.4-2.6c0.2-0.9,1.2-2,0.7-3
	c-0.3-0.6-0.3-0.6-0.5-1.4c-2-0.5-0.7-1.4-2.1-2.4c-1.9-1.4-4.1,0-4.7-0.4c-0.6-0.4-3,1.5-3.7,1.6c-1.4,0.2-0.5-0.5-1.9-0.2
	c-0.3-0.2-0.9-2.6-0.9-3.1c0.2-4.8-2.2-4.4-2.2-5.8c0-2.2-2.9-2.4-4.5-2.1c-2.4,0.5-4.7-0.8-5.4-3.1c-0.8-2.5-0.9-2.4-2.2-4.8
	c0-0.5-0.3-1-1-1c-0.5,0-1.7-1.2-1.7-1.5c0-1,0.5-0.2-0.4-1.2c-0.4-0.4-1.4-0.7-1.8-0.6c-0.8,0.2-1,0.9-1.3,1.2
	c0-0.1-0.9-1.1-0.9-1.2c-0.6-2.3,0.4-3.2,0.1-4.6c-0.4-2.1-0.3-4.9,0.6-6.8c0.3-0.5,0.6-0.9,1-1.4c1.1-1.6,1.5-2.3,3.3-3.2
	c4.3-2,2.6-2.3,5.2-5c2.3-2.4-0.4-4.4,1.6-7.5c1.7-2.7-1-3.8,1.3-6.1c0.6-0.6,1.1-1,1.3-1.8c0.2-0.9,0.5-0.9,0.6-1.4
	c0.4-1.2,0.9-2.4,1.6-3.5c1.3-2.2,3.8-2.3,3.8-3.4c0-1.4-0.1-2.9-0.1-4.2c0.2-0.1,0.4-0.2,0.6-0.2c0.6,0,2.1-0.1,2.4,0.4
	c0.5,0.8,2.9,1.6,3.5,2.2c1.5,1.4,0.8,0.5,2.1,0.9c1.2,0.4,1.3,0.3,2.3,0.5c1.1,0.2,2.4-0.3,3,0.4c0.8,0.9,0.5,2.3,1.8,0.2l0.9,2
	c-0.7,2.6-0.6,1-1.4,2.8c-0.2,0.6,0.7,1.7,1,2.6c0.2,0.9,0.9,1.3,1.6,1.7c0.3,0.2,2.2,2.2,2.4,2.5c0.7,1.2,0.7,1.3,2.4,0.9
	c1-0.3,1.9-1.2,2.6-0.8c0.6,0.4,2.6-0.7,3.3,1.6c0.6,2,1.3,1.4,1.9,3.2c1.4,3.9,1.7,1.6,3.9,1.8c0.8,0.1,0.6,1.1,2.7,0.4
	c0.9-0.3,2.3,0,2.6,1.1c0.2,0.9,1.1,1.5,2.1,1.4c1.3-0.1,4.2,0,5.5,0.2C69,278.3,69.3,278.2,69.6,278.2z"/>
<path class="st2" d="M126.2,220.5c0.4,2.1,0.8,3.4,1.5,5.3c0.6,1.7,0,3.2,2.2,3.2c0.8,0,2.5,0.4,2,1.5c-0.4,1.2-0.8,1.7-1,3
	c-0.2,1.4,1.2,1,1,3.5c-0.2,1.9,0.5,1.3,2.3,2.3c1.1,0.6,2.1,0,0.7,2.3c-1.5,2.4-2.2,2.6-1.4,5.7l0.1,0.3c0.4,0.1,4.5,1.2,4.9,1.7
	c0.1,0.1,0.1,1.8-0.1,1.9c-0.8,0.7-6.2,0-1.8,3.9c0.9,0.8,1.2,0.1,1.9,1.9c0.6,1.5,2.2,1.6,3.6,1.9c2.6,0.6,2.6,0.1,4.2,2.6
	c0.2,0.3-0.7,1-0.3,2.2c0.3,1,0.1,4.8,1.9,2.8c0.7-0.7,2.1-3.1,2.7-3.4c1.1-0.6,0.4,3.4,0.4,4.1c0,1.7,0.5,0.5,1.9,1.4
	c0.7,0.5,2.4,0.5,3.3,0c1.8-1.2,2,1.7,4.9-0.4c1.7-1.3,0.5,1.8,1.7,2.6c2,1.4,2.4,0.3,4.1,2.4c1.1,1.3,3.7,1.5,3.4,3.9
	c0,0.2,0,0.4,0,0.6c0.5,1.6,0.3,1,0.7,1.9c0.1,0.1-0.5,2.5-0.6,2.9c-2.1,1.6-3,1.7-2.8,4.3c0.1,1.3,0.5,4,0.9,5.3
	c0.4,1.3,0.1,5.1,0.6,6.8c0.4,1.4,1.1,3.8-1.1,4c-2.9,0.2-1.9-0.9-4.5-0.9c-1.3,0-7.5,1-8.3,2c-0.5,0.7-1.2,1-1.7,1.9
	c-0.2,0.3-0.8,0.9-1,1.2c-1.1,1.1-2.1,3.3-2.7,3.9c-2.3,3.6-3,2.3-4.2,3.2c-1.1,0.8,1,3.7-0.3,3.7c-2.5,0-0.4,1.6-2.7,2.7
	c-0.9,0.4-1.4,2.5-2.5,2.2c-1.3-0.4-0.7,2-0.7,2.2c-0.7,1.5-0.7,0.7-1.7,2.1c-0.5,0.7-1.6,1.9-1.9,2.6c-0.5,1-0.5,1,0,2.1
	c0.1,0.3,0.9,3.8,0.9,4.3c0,3.6,2.2,3.1,2,5.4c-0.2,3-2.2,6.7-2.3,9.7c-2.1,0.2-1.6,0.3-3.4-2.1c-1.9-2.6-1.5-4.9-5.2-5.7
	c-1.3-0.3-4.3-1.6-4.5-3.2c-0.4-3.3-0.1-1.1-1.7-4.1c-0.5-0.4-0.8-0.6-1.2-1.1c-0.6-0.8-1.3-0.9-2-0.8c0.2-1.2-0.3-2.5,0.5-3.8
	c2.9-4.7,2.4-3.6-1.4-7.2c-2.7-2.6-1-4.7-1.4-6.3c-0.3-1.2,0.5-2.9-1-3.4c-2-0.6-0.2-2.6-1.5-3.9c-1.4-1.3-2-1.2-3.6-2.9
	c-0.2-0.2-0.3-0.3-0.5-0.4c-2.8-1.8-0.9-2.4-2.2-3.2c-2.2-1.4-3.1,1-4.2,1.6c-1.5,0.9-2.1-0.6-2.8-1.2c-1-0.8-2.4-2.1-2.4-3.5
	c0-2.1-1.6-4.1-1.3-5c1.4-4.1-2.1-0.6-3.9-0.5c-0.5,0-2.1,1-2.2,1.3c-0.4,0.9-1.1,1.2-1.9,1.7c-1.4,1-2.1-0.8-1.9-1.8
	c0.3-1.7,0-1.4,0-2.3c0.1-1.7-0.4-1.9-0.4-2.6c0-0.8-1.2-0.6-2.1-0.8c-1.5-0.3-0.8-0.2-1.7-0.8c-1.7-1-1.3-1.8-1.8-2.5
	c-1.1-1.3,0.2-2-0.3-2.3c-1.1-0.7-4,1-4.1-0.3c-0.1-0.6-1.1-2.3-1.5-2.7c-1.2-1.2-1.4-1.5-3.1-2.1c-1.3-0.4-0.9-0.1-2.4-1.1
	c-0.3-2.6,0.1-1.8,0.8-3.6c0.4-1.1,0-2.5-0.4-3.5c-0.4-1,1.9-2.9,0.9-5.4c-0.2-0.6,0.1-2.3,0.3-2.9c0.1-0.2-0.3-1.5-0.3-2.1
	c0-0.9,1.4-2.6,2-3.4c0.5-0.8,1.3,0.2,2.9-2.3c1.4-2.3,0.6-4,4.1-5.3c1-0.4,2-0.5,3-0.2c1.1,0.3,3.2,0.5,4.3,0.1
	c0.6-0.5,2.1-1.9,3.3-1.5c1.3,0.5,1,1.5,3.2-0.4c0.7-0.6,2.1-1.1,3-0.6c1.7,0.9,5.3,0,7-0.7c0.7-0.3,1.9-0.3,2.8-1.1
	c0.6-0.5,2.3-1.1,3.2-1.1c0.9,0,3.3,1.6,3.4,0c0-0.5-0.7-0.5-0.5-2.3c0.2-2-2.9-0.5-4.2-3c-0.2-0.4,1.2-2.3-0.7-1.8
	c-0.7,0.2-2-0.3-1.7-1.6c0.7-2.8,1.5-0.1,4-1.8c0.8-0.5,0.4-1.4,1.6-2.7c1.5-1.6-0.1-1.7-0.9-3.1c-0.5-0.9-1.7-1.5-0.8-3.2
	c0.6-1,3.7-0.4,1.7-2.4c-0.7-0.7,0.1-2.1,1-2.6c1.5-1,0.8-2.2,1.4-2.3c3.4-0.7,0.7,0.6,2,1.7c0.9,0.8,1.5-0.8,2.9,0
	c0.7,0.4,1.6,0.3,2.9,1c1.4,0.7,3.1,0.9,4.7,0.7C125.9,220.5,126,220.5,126.2,220.5z"/>
<path class="st0" d="M95,135.8c0.1,0.4,0.1,0.7,0.1,1c0,0.5,0.1,1.2,0.2,1.7c-0.2,3-0.2,2.4-1,5c-0.5,1.6-1.2,4-1.4,5.6
	c-0.1,1.2-1.2,2.6-2.5,2.7c-1.4,0.1-4.1,0.7-5.7,1c-2.6,0.5-7.4,0.6-8.3,3.7c-0.4,1.3-0.3,2.7-2,3c-2.1,0.4-2.2,2.7-3.5,3.6
	c-1.8,1.4-2.1,1.8-4.3,2.9c-1.6,0.8-2,2.1-3.2,3.5c-0.9,1-1.1,1.5-2.2,2.4c-1.5,1.2-3.4,2.8-4.5,4.3c-1.1,1.5-3.6,4.3-4.4,5.8
	c-0.4,0.9-2,3.5-2.8,4.2c-0.4,0.4-2.6,3.2-2.9,3.7c-0.9,1.4-3,5.3-4.5,5.8c-2.8,1-1.4,3.3-3.6,4.5c-1,0.5-3.5,4.5-4.2,5.6
	c-0.4,0.6-1.9,1.4-2.7,2.2c-2.3,2.3-1.8,3.7-3.6,5.7c-0.8,0.9-1.7,3.3-2.2,4.5c0,1.2-0.2,3.9,1.6,3.8c1.7,0,0.7,2.5,1,3.7
	c0.3,1.4,0.2,2.9,0.7,4.5c0.5,1.7,0.8,6.7,0.3,8.5c-1.7,6.5,1.8,2.7,1,6.3c-0.6,2.4,3.6,1.8,4,3.5c0.6,2.7,3.6,1.5,2.4,4.9
	c-0.4,1.4-0.4,1.6,0.1,2.9l0.9,2c-0.7,2.6-0.6,0.9-1.4,2.8c-0.2,0.6,0.7,1.7,1,2.6c0.2,0.9,0.9,1.3,1.6,1.7c0.3,0.2,2.2,2.1,2.4,2.5
	c0.7,1.2,0.7,1.3,2.4,0.9c1-0.2,1.9-1.2,2.6-0.8c0.6,0.4,2.6-0.7,3.3,1.6c0.6,2,1.3,1.4,1.9,3.1c1.4,3.9,1.7,1.6,3.8,1.8
	c0.8,0.1,0.6,1.1,2.7,0.4c0.9-0.3,2.3,0,2.6,1.1c0.2,0.9,1.1,1.5,2.1,1.4c1.3-0.1,4.2,0,5.5,0.2c0.3,0.1,0.6,0,0.9,0
	c-0.3-2.6,0.1-1.7,0.8-3.6c0.4-1.1,0-2.4-0.4-3.5c-0.4-1,1.9-2.8,0.9-5.3c-0.2-0.6,0.1-2.2,0.3-2.8c0.1-0.2-0.3-1.5-0.3-2.1
	c0-0.8,1.4-2.6,2-3.3c0.5-0.8,1.3,0.2,2.9-2.3c1.4-2.2,0.6-3.9,4-5.2c0.9-0.4,2-0.5,2.9-0.2c1.1,0.3,3.2,0.5,4.3,0.1
	c0.6-0.5,2.1-1.9,3.2-1.5c1.3,0.5,1,1.5,3.1-0.4c0.7-0.6,2.1-1.1,3-0.6c1.7,0.9,5.3,0,7-0.7c0.7-0.3,1.9-0.3,2.8-1.1
	c0.6-0.5,2.2-1.1,3.1-1.1s3.3,1.6,3.3,0c0-0.5-0.7-0.5-0.5-2.3c0.2-2-2.8-0.5-4.1-3c-0.2-0.4,1.2-2.3-0.7-1.8
	c-0.7,0.2-2-0.3-1.7-1.6c0.7-2.7,1.4-0.1,4-1.8c0.8-0.5,0.4-1.4,1.6-2.6c1.5-1.5-0.1-1.7-0.9-3.1c-0.5-0.9-1.7-1.4-0.8-3.1
	c0.6-1,3.7-0.4,1.7-2.4c-0.7-0.7,0.1-2.1,1-2.6c1.5-0.9,0.8-2.2,1.3-2.3c3.4-0.7,0.7,0.6,2,1.6c0.9,0.7,1.5-0.8,2.9,0
	c0.7,0.4,1.5,0.3,2.9,1c1.4,0.7,3.1,0.9,4.6,0.7c0.2,0,0.3,0,0.5,0c0-1.3-0.1-2,0.2-3.2c0.1-0.5-0.1-2.6,0.8-2.3
	c0.9,0.4,5.3-1.7,6.1-2.3c0.9-0.8,2.4-0.7,3.4-1.5c0.7-0.5,1.4-0.4,2.2-1.7c0.6-0.9,0.7-2,0.9-3.1c0.2-0.7,0.2-2.2,0.8-2.3
	c0.8-0.2,3.1,0.8,3.4-1.1c0.1-0.8-0.7-1.5-0.1-2.9c0.4-0.9-0.8-4.1,0.8-3.4c1.6,0.8,2.1-1.6,3.7-0.7c1.8,1,2.5-0.4,4.4-0.7
	c0.6-0.1,3.6-1.8,4.1-2.3c1.2-2.8,1.3-1.8,1.6-4.6c0.1-0.6,1.5-3.5-0.1-4c-0.1,0-0.9-0.5-1-0.6l-1.5-1c-0.5-0.4-1.3-0.5-1.9-1.1
	c-0.8-0.9-1.6-2-2-3.1c-0.4-1.3-1-1.7-1.5-2.7c-0.8-1.5-2.3-3.3-1.4-5.1c1.5-2.8-0.4-1.6-1-3.3c-0.8-2.4,0.1-2.7,0.4-4.9
	c0.1-1.2-0.9-0.9-1.6-0.9c-1.2-0.1-1.3,0.1-2.9,0.3l-2-1c-1.1-0.2-0.4-2.4-0.6-2.9c-1.1-2.6-2.9-0.2-3.8-2.9
	c-0.7-2.2-2.1,1.5-3.1,1.8c-0.4,0.1-3-0.4-3-0.4c-1,0.2-2.4,0.6-3.5,0.6c-2.3,0-2,0.4-2.5-2c-0.1-0.8-2.8-1.8-3.5-2.1
	c-2.1-0.7-1.7-1.4-2.3-2.9c-0.7-1.8,0.6-2.9-0.5-3.9c-1.3-1.3-1.5-1.9-0.9-3.7c0.4-1.2-2-1.1-2.7-1.2c-2-0.2-4.4,1.2-5.1-1
	c-1.4-4.2-1-2.2-3.7-2.2c-1.6,0-1.7,2.7-3.1,1.5c-0.9-0.7-2.5-1-2.7-1.7c-0.3-1.2-1.2-1.4-1.4-1.6c-0.8-1.5,0.1-1.6-2.4-2.1
	L95,135.8z"/>
<path class="st0" d="M325.5,326.9l3-2.2c1.7-1.4,0.9-0.9,1.3-2.4c0.6-2.5,2.1-2.6,3.7-0.9c1.2,1.2,2.3-1.2,2.5-2.4
	c0.1-0.6,1-2.7,1.7-1.2c0.3,0.7,2.3,2.1,3.2,2.2c1,0.1,1,1.6,2.7,0.9c1.1-0.5,0.3,1.3,0.7,1.9c0.8,1.2,1.4,0.4,2.7,1.1
	c0.4,0.2,0.6-0.1,1.7,0.6c0.9,0.6,2.7,0,3.5-0.8c2.1-2.2,4.2,1.2,8-0.6c2.2-1.1,5.8,1.1,6.4-0.8c0.3-0.8-2.6-3.4,0.2-4.5
	c1.3-0.5,0.5-0.4,1.9-0.5c0.5,0,1.5-0.6,1.8-1c1.9-0.5,3.3-1.2,4.1,0.7c1,2.2,2.3,0,2.9-1.1c0.7-1.1,1.2-0.5,2.3-0.8
	c1.6-0.5,1.6,0.7,2.1,2c0.3,0.7-0.2,0.7,1,1.4c1.4,0.9,1,2.9,5.2,1.9c1.2-0.3,3.7,0,4.8,0.4c0.7,0.3,2.9,0.1,3.7,0.1
	c0.4,0.8,0.6,1.4,1.2,1.9c1.4,1.1-4.1,2.4-4.8,3c-2.1,1.5,1.1,1.3-0.2,4c-0.8,1.6,0.3,3.3,1.5,4.3c2.1,1.7,1.2,0.8,1.7,3.5
	c0.2,1.1,0.4,1.6,0.4,2.8c0,0.9,0.1,5,1.7,4.4c0.5-0.2,3.2-1.2,3.5-0.9c0.3,0.2,1,1.5,0.9,1.8c0.2,3.4-0.6,1.5-1.6,3.2
	c-0.5,0.9-0.1,1.6-0.1,2.7c0,1.7,0.1,1.6,0.5,3.1c0.2,0.8,1.1,3.3,1.9,3.5c0.7,0.2,3.8-1,5.6-0.3c1.1,0.4,1.7-1.1,3.1,0.5
	c0.7,0.8,3.4,2.1,3.4,0.2c0-1.1,1.2-1.6,2.1-1.9c0.1,0,0.1,0,0.2,0c2.4,1.4,0.4,0.5,1,2.3c0.4,1.4,0.4,1-0.5,2
	c-0.8,0.9-0.1,2.9,1.1,2.4c0.9-0.4,1.4,0.7,2.9,0.9c3.1,0.4-0.3,2.8,0.7,5.1c0.4,0.9-1.2,2.6,0.3,3.7c0.7,0.5,1,2.6,1,3.4
	c0.3,2.5-0.3,1.3-0.3,2.3c0,0.2,0.7,1.1,1,1.9c1.4,4.4,2.8-1.4,4.6,3.6c0.9,2.4,2.3,0.6,4.3,0.4c0.6-0.1,4.8-1.9,4.2,0.1
	c-0.4,1.3-1.4,2.6-1,4.2c0.3,1.2-1.2,1.2-1.5,1.6c-0.7,0.8,0.9,1.8,2.7,0.8c0.6-0.3,5-1.8,4.9-0.2c-0.1,2.9,0.7,4,0.7,6.6
	c0,1,0.2,4.1-1.3,3.8c-2.1-0.4-0.2,2.9-3.4,2.3c-1-0.2-1.7,0-2.6,0.4c-3.1-0.4-1.3,0.2-3.2,0.9c-0.6,0.2-3.9-0.3-2.1,2.1
	c0.7,0.9,0.9,2.6,2.2,3.3c0.2,0.1,1.8,1.7,1.8,2.1c-0.1,2.4,1,0.7,2,2.7c0.3,0.7-1.2,2.1,0.3,5c0.2,0.3,0,1.3,0.5,2.4
	c0.9,2,0.4,4.6,0.2,6.7c-0.8,0-1.2,0-2.4,0.1c-1.2,0.1-5.5,1.5-6.4,2.1c-1.2,0.8-3,1.5-4.5,1.8c-1.6,0.3-2.4,2.2-4.1,1.6
	c-2.3-0.8-2-0.5-3.5,1.1c-2,2.2,1.1,3.3,0.5,5.8c-0.3,1.3-0.2,3.2-1,4c-1.4,1.6-0.8,1.7-1.4,2.9c-1.1,2.3-2.8,1.2-2.5,3.3
	c0.3,1.9-1.4,3.6-2.1,5.2c-0.9,2-2.1,3.9-3.6,5.5c-1.2,1.3-2.8-1.8-3.6-2.3c-2.9-1.7-1.4-2.3-1.5-4c-0.1-1.5-1.1-1.6-2.2-2.2
	c-3.2-1.7-2.4-3-3.2-3.7c-1.7-1.6-1.7-0.1-2.5-0.3c0-0.2-1.2-2.4-1.3-2.5c-1-0.9-0.5-1.3-1.4-2.1c-0.2-0.2-2.3,0.5-2.3,0.5
	c-1,0.7-1.9,2.5-1.8,3.8c0.1,1.5,0.3,1.7,1.2,3c0.1,0.3,0.2,0.5,0.3,0.7c0.8,1.4,2.9,2.6,4.3,3.4c2.3,1.4,2-0.2,4.8,2.5
	c2.1,2,0.9,5,2.7,6.2c0.8,0.5,2.5,1.8,1.9,2.9c-0.6,1.1-1,1.6-2.1,2.1c-1.2,0.6-2.5,1.1-3.2,2.2c-0.7,0.9-1.6,2-1.7,3.1
	c-0.2,2.3,0.2,2-1.5,4.2c-0.3,0.3-0.7,0.6-1,0.9c-0.3,0.2-1.4,1.3-1.7,1.6c-0.6,0.7-1.6,1.7-2.3,2.3c-0.5,0.4-1.9,2.1-2.5,2.1
	c-1.8,0.1,1.9-5-1.1-2.8c-1.2,0.9-1.5,2.3-2.3,0.9c-0.4-0.7-0.9-1-1.2-1.6c-0.4-0.7-0.9-2.9-1-3c-0.8-0.7-0.8,1.2-0.9,1.7
	c-0.2,0.7-0.1,1.3-0.2,1.7c-0.3,1.2-0.2,1.7-0.7,3c0,0.6-0.2,1.1-0.6,1.5c-0.7,0.7-1.6,1.4-2.6,1.2c-1.3-0.3-0.7-0.1-1.7,0.8
	c-0.6,0.6-1,1.6-1.7,1.8c-0.6,0.2-0.6,0.9-0.6,1.4c0,0.5,0.5,1.2,0.9,1.4c0.7,0.5,1.2,0.7,2.1,0.5c-0.1,0.6-0.6,0.5-0.7,0.7
	c-1,1.4-2.3,1.3-3,2.2c-1.1,1.5-3.6,3.1-4.2,4.1c-1,1.7-1.5,1.1-2.9,4c-0.1,0.2-0.3,0.5-0.4,0.7c-0.9,2.5-0.1,2.4,1.9,2.2
	c1.7-0.1,2-1.2,3.9-0.1c0.8,0.5,0.2,5.2,0,5.8c-0.3,0.7,0,2,0,2.5c0,0.8,0,1.6,0.1,2.5l-0.7,3.2c0,0.2,0,0.4,0,0.6
	c-0.1,1.1,0.4,2-0.5,2.2c-0.7,0.2-1.1,0.7-2,1.2c-0.4,0.2-0.8,0.2-1.1,0.2l0,0c0.1-0.3,0.4-0.6,0.3-1c0-0.3-0.2-0.9-0.2-1.2
	c0.4-2.6,0.3-2.4-0.4-4.8c-0.4-1.1-1.1-2.3-1.5-3.2c-0.4-0.9-0.8-1-1.3-1.6c-1.5-1.8-1.7-1.3-3.3-2.3c-1.4-0.8-1.8-0.6-3-1
	c-1.1-0.4-3.6-0.4-4.1-1.2c-0.4-0.7-2.2-0.1-2.8,0.2c-2.9,1.5-2.7-1.2-5,0.8c-1.9,1.7-1.9,1.5-4,2.7c-1.2,0.7-2.2,0.9-3.2,1.4
	c-2,1.2-4.2,1.5-5.4,3.5c-1.6,2.9-1.4,2.6-3.7,1.1c-1-0.6-2.2-2.2-2.4-2.3c-2.3-1.4-1.2,2.9-2.6,3.1c-1.1,0.1-0.5-0.4-1.1,0.3
	c-0.2,0.2,1.7,2,0.3,2.5c-3.5,1.1-3.7,0.6-7.6,0.2c-2.8-0.3-4.6-1.6-6.8-2.8c-4.3-2.3-5.2-1.2-8.2-5.4c-0.7-0.9-0.6-0.9-1-1.9
	c-0.5-1.1-0.5-2.6-0.6-2.8c-0.6-1.3,0.2-1.1-1.8-1.9c0-0.4,0-2.2,0.2-2.6c1.5-3.4,4.3-1.2,5.9-1.9c1.3-0.6,2.5,0.7,2.7,1.8
	c0.2,0.9,1.6,1.3,2.3,1.2c4.4-0.5,1.2-5.3,1.8-6.1c0.7-0.9,0.8,0.4,2-1.8c-0.1-0.4-0.1-0.8-0.2-1.2c-0.4-1.3-0.5-2.7-1.8-3.4
	c-1.3-0.7,0.7-1.9,0.7-3.2c0.2-4.7,2.1,0.6,3.3-2.4c0.7-1.8,1.5-0.7,2.2-1.6c1-1.5,3.6,1.2,3.6-2.1c0-2.3,1-2,2.6-2.3
	c2-0.3,1-5.4,0.7-6.7c-0.1-0.7-0.9-2.6-0.7-2.8c1-1.2,3,0.3,5.9-1.9c1.4-1,1.5-1.4,3.1-1.3c1.5,0.1,1.9-0.8,2.7-1.9
	c0.3-2.7-1.6-2.3-2.1-3.4c-0.7-1.4,3.2-4.9,4.1-5.8c3.1-3.3-3.8-5.1-3.6-7.8c0.2-2.8,1.7-2.1,0.5-5.2c-0.5-1.4-0.8-2.8-1.2-4.3
	c-0.7-2.5-1.2-2,0.7-3.3c1-0.7,2.4-0.3,2.2-0.7c-0.7-1.5,2.6-2.3,3.5-2.6c0.4-0.2,1.2-0.5,1.7-0.4c2.6,0.4,2.1-2.6,3.7-2.3
	c2.4,0.5,1.5,3.2,1.9,4.1c0.9,1.9-1,2.2-0.6,3.1c0.4,0.9,0,2.2-0.4,3c-0.9,1.6,1.5,1.7,2.2,0.6c1-1.5,0.6-0.9,2-1.3
	c1.6-0.5,0.2-2,0.9-3c0.6-0.8,0.8-2.5,1.4-2.2c0.7,0.4,1.9,3.9,2.2,3.9c1.2,0.2,0.2-4.4,2.4-4.2c1.4,0.1,1.1,1,1.5,1.4
	c0.4,0.6,1.3,3.5,1.4,3.6c0.9,0.5,0.9-0.3,2.5,1.2c0.6,0.6,2.3,3.9,3.1,3.8c2-0.2,2.5-2.4,2.3-4c-0.2-2.9,0.7-1.3,2.5-2
	c0.4-0.2,1.4-2.1,1.5-2.1c0.1,0,0.1,0,0.1,0.1c0.7,0.3,0.5,0.5,0.7,1c0.4,0.8,0.7,1.3,1,2.2c0.2,0.6,0.5,1.3,1,1.8
	c0.4,0.4,0.4,1.1,0.7,1.3c1.8,1.4,2.9,0.7,4.3-0.7c1.7-1.6,2.3-0.5,3.3-0.5c1,0,0.8-0.1,1.7,0.2c2.1,0.7,2.3-1,3.7,0
	c1.1,0.8,2.4-0.8,3.2-1.5c-0.2-1-2.7-1.6-3.4-1.4c-2.9,0.6-0.6-1.6-2.8-1.7c-4.1-0.3-1.6-2.3-2.8-2.9c-3.1-1.6-2.6,0.6-4.3-3.5
	c0.6-0.2,3.2-1,3.6-1.6c1.4-2-0.2-2.9,0.3-4.7c0.3-1.2-0.3-2.5-0.1-3.7c0.5-2.5,0.2-4.1-0.6-6.5c0-1.1,0.3-2,1-2.8
	c1.5-1.6-1.3-1.4-2.3-1c-2.2,1-1.1-2.4-2-3c-1.7-1.3-6.3,3.5-7-0.6c-0.6-3.8-2.8-0.7-3.9-2.9c-1.1-2.2-3.4,0.5-2.7-2.6
	c0.4-1.9-0.6-2.8,0.1-4.3c1.1-2.5,0-1.9,0.6-3.8c1-3-3.2,0-3.9-0.6c-2.3-2.3,1.6-2.5,1.4-4.5c-0.2-1.5,0.1-2.1,0.1-3.6
	c0-1.5-1-2.1-0.2-3.1c1.8-2.3,2.3,0.3,1.5-4.9c-0.2-1-0.5-1.6-0.5-2.8c-0.1-2.2-3.4-1.5-4,0.5c-0.6,1.7-2,3.6-3.9,2.4
	c-2.4-1.6,0.1-4-2.9-4.5c-2-0.3-1.1-2.8-2-4c-1.6-2-2.7,1.3-3.7-0.1c-0.8-1.2-1.4,0.9-1.8,0.1c-1.4-2.8,1.2-3.9-0.8-5.3
	c-2.8-2,0.8-4.2,0.4-5.6c-0.4-1.5,0.5-3,1-4.3c1.5-3.8-1-4.7,0-6.2c1.6-2.3,1.3-0.9,2.1-4.2c0.1-0.2,0.1-0.2,0-0.4
	c-0.2-1.5-1.4-1.3-2.2-1.5c-0.6-0.1,1.5-3.5,1.7-3.7c2.2-2.2-2.5-1.8-3.5-2.7c-0.2-0.2-0.4-2.3-0.4-2.7c-0.2-2.9,0.4-4.5-3.5-2.7
	c-2.5,1.1-2.3,0.7-4.5,1.1c-2.2,0.4-1.7-0.2-2.5-0.1c-2.8,0.1-1.9-2.4-2.9-3C325.6,329.3,328.3,329.2,325.5,326.9z"/>
<path class="st1" d="M518.1,471.7c-1-1.9-0.9-2.4,1.1-1.9c1.9,0.5,3.7,0.2,5.5,1.1c0.8,0.4,3.1,0.8,3.1,0.9c0.9,0.6-5.5,0.3-6.5-0.1
	c-0.4-0.2-0.8-0.4-1.3-0.3L518.1,471.7z M625.6,465.8c-0.4,0.3-2.4,1.9-3,0.7c-0.4-0.7,2-1.6,2.7-2.7c0.5-0.9,3.1-1.6,4.2-2.4
	c0.7-0.5,3.4-2.5,2.2-0.2c-0.8,1.4-1.1,1.1-2,2.1c-0.6,0.6-1.5,1.2-2.3,1.6L625.6,465.8z M588.8,464.4c0,0-0.2-3.6,0.4-2.8
	c1,1.3,0.3-0.3,1,1.7c0.2,0.7,0.6,1.5-0.5,1.9c-0.1,0-0.4,0-0.5,0L588.8,464.4z M477.1,426.1c0.2,0.7,0.4,1.3,1.5,2.2
	c1.6,1.3,3.3,0.2,3.8,2.9c0.2,1.3,1.7,1.8,2.8,1.7c1.4-0.2,0.9-0.7,3.3-0.7c0.9,0,2.2,0.2,2.5,1.2c0.4,1-0.3,2.6,0.6,2.9
	c1.2,0.5,0.1,3.1,2.1,2.8c0.1,0,5.1-0.9,3.1,0.4c-0.9,0.6-3.8,0.7-4.9,0.6c-1.4-0.2-1.3-0.3-2.8-0.4c-2.5-0.2-3.3-1.4-6.5-0.5
	c-2.5,0.7-5.2-0.4-7.7-1.1c-2.2-0.6-4-2.4-7-2.9c-2.9-0.5-1.4-0.2-4.1,0.3c-2.5,0.4-2.7-0.1-4.7,0.1c-0.7,0.1-2,0.3-0.7,1
	c2,1,2.9,4.3,3.5,3.9c0.9-0.5,1.1-1.5,3-1.6c4.1-0.1,3.9,1.3,7.3,2c3.1,0.6,5.8-1.1,7.7,2.7c0,3.6-0.3,2.9-2.5,5.2
	c-1.4,1.5-1.9,0.9-3.6,0.9c-2.1,0.1-4.7,0.2-6.5,1.4c-2,1.4,1.2,4.3,3,1.6c1.1-1.6,2.2-1.9,3.9-1.3c0.6,0.2,0.8,2,2.1,3
	c1.1,0.9,1,0.4,2.6,0.4c3.8,0,1.8,1.8,4,2.8c2.5,1.2,0.9,1.3,4.5,1.9c3.1,0.5,0.7,0.7,1.5,3.4c0.3,1,3,1,4.2,1.4
	c1.6,0.5,2.5,0.6,4.2,1.4c0.8,0.4,4.8,2.2,5.6,2.1c1.4-0.2,2.4-2.2,5.4-2.7c3.6-0.3,1.2,0.2,4-0.7c0.6-0.2,2.4-0.5,2.9,0.1
	c0.4,0.6,2.5-0.3,3.5-0.3c1.8,0,1.2-0.4,3.2,0.5c4.7,2.1,4.9-4.3,7-2.7c1,0.7,0.8,0.5,1.7,1.5c0.6,0.7,1.1-0.3,2-0.8
	c1.4-0.8,2.8-3.4,3.5-3.5c1.1-0.1-1.2,2.7,1.8,3.4c0.9,0.2,3.6,2.3,4.4,3.1c0.7,0.7,3.1,3.6,3.8,3.7c0.4,0.1,0.6-0.7,2.6-0.5
	c0.5,0.1,3.2-0.3,1.9-1.5c-0.8-0.8-0.8-2.2,0.5-2.8c2.2-1.1,0.2-1.2,2.8-2c1-0.3,1.5-0.6,1.9-0.4c-0.2-1-0.1-1.4-0.1-2.4
	c0-0.2,0-2.6,0.1-2.6c0.4-0.2,1.2-0.1,1.6,0.3c0.1,0.1,1.4,0.6,1.4,0.6c0.5,0.2,1.8,1,2.5,1c-0.2-1-0.5-1.9,0-3.7
	c0.2-0.5,0.1,0.9,1.3,1.1c2.6,0.5,4.7-0.4,6.7,0.1c1.3,0.3,3.6,3.4,4.1,4.6c0.9,2.5,2.3,1.3,3.2,1.7c1.3,0.6,2.5,1.5,3.8,0.2
	c0.4-0.5,0.8-2.7,1.8-1.3c0.6,0.8,2.9-0.2,0.8,1.6c-0.3,0.3-1.4,1.6-0.4,1.6c1,0,0.3,1,2.3,1.8c1.5,0.6,0.5-1.1,0.3-1.7
	c-0.2-0.9,0.1-3,0-3.1c-0.3-0.6-2.5-2-2.5-3.6c0-1.2-0.7-3.7,0.1-4.4c1.5,1.5,1.2,3.3,3.5,4.1c2.5,0.9,0.3,2.8,2.1,2.1
	c1.8-0.7,0.4-2.8,1.8-2.6c1.2,0.2-0.2,1.9,3.4,2.8c2.2,0.6,1.8,2.4,3.6,2.2c1.4-0.2,2.4-3.8,3.8-3c0,0,0.5,1.3,0.6,1.4
	c0.7,1.4,0.6,2,0.5,3.6c0,0.2,0,1.5-0.2,1.4c-1.2-0.7-0.8-1.8-3.8-1c-1.6,0.5-0.4,0.9-1.8,0.2c-1.1-0.6-2.6,0.9-1.2,2.5
	c2.1,2.3-0.2,2.8,0.3,3.9c0.2,0.5,0.6-0.4,1.4,1.7c1,2.6,1,0.7,2.4,0.4c1-0.2,1.3-1.4,2.5-1.4c0.4,0,1.1,1.4,1.4-1.4
	c0.1-1.3-1-0.5,0.5-2.1c2.2-2.4-1.5-8,3.1-8.1c1.9-0.1,2.8-1.2,4,1.4c0.9,2,1.5-0.6,1.9,3.6c0,0.6-0.1,1.5-0.8,0.8
	c-0.9-0.8-2-0.1-3.5,0c-1.5,0.1,0.3,0.8,1.1,2.1c0.8,1.4,0.7,0.3,0.5,2.1c-0.2,1.4,2.4-2,2.9-0.6c0.3,0.7,0.1,1.4,0.5,2.6
	c0.3,1.1-0.1,0.8,0.6,1.9c0.3,0.5,0.4,2.3,0.6,3.2c0.3,1.2,0.9,4.2,0.6,5.4c-0.7,2.6,2.3,0.9,2.5,0.2c0.1-0.5-0.7-1.8-0.8-2.8
	c-0.5-2.7-1.2-3.2-1.1-6.4c0.1-1.6-0.6-2.8-0.6-4.6c0-1.4-0.7-2.7-0.7-4c0-1.5-0.5-2.1-0.2-4.1c0.4-2.6,0.2-1.4,1.6-3.7
	c1.9-1.7,2.7-1.4,4.7-2.5c2.3-1.3,5.2-0.3,6.3-3c0.1-0.2,0.2-0.5,0.3-0.7l0.1-0.1c-0.5-1.1-1-1.8-1.5-3c-0.6-1.5,0-5.7,0-7.6
	c0-2.9-2.3-1.3-4.2-3.1c-2.1-1.9-4.9,0.5-4-3.8c0.4-2.2-3.7-0.9-4.7-0.6c-3.1,0.9-1.3-1.3-2.5-2.5c-2.7-2.7,1-2.2,0.1-4.1
	c-0.2-0.6-0.1-2-0.1-2.1c-0.1-0.2-2.1,0-2.8-0.2c-2.8-0.7-2-3.3,0.1-4c1.2-0.4,0.8-0.1,2.5-0.9c0.5-0.3,0.4-0.4,0.8-0.6
	c0.7-0.5,1.3-3.1,1-3.7c-0.8-1.4,2-1.5,2-2.1c-0.1-2.4,0.1-2.9-2.3-3.2c-2.7-0.4,0.2-4.7-2.2-4.6c-2.5,0.1-0.4-1.9-2.6-1.9
	c-4.4,0-2.8-1-3.7-2c-1.7-1.9-0.7-0.8-1.4-3.2c-0.5-1.9,0.4-3.2-1.4-3.8c-1.1-0.3-0.8-1.8-1-3c-0.3-1.2-0.5-2.6-0.3-3.8
	c0.3-1.9-1.4-2.8,0.3-3.7c0.9-0.5,0.7-1.3,0.2-1.5c-2.4-0.9,1.3-3.2,0.5-3.7c-0.3-0.2-3.7,0.5-4.1,0.8c-0.9,0.5-1.8,0.3-2.1,1.4
	c-0.5,1.7-1.1,0.9-1.8,0.7c-1.1-0.3-0.7,0.9-2.6-0.1c-1.1-0.5-0.7-3.5-1.4-4.7c-1.2-2.1-0.1-3.3-1-4.9c-1.2-2.1-2-2.5-4.3-3.5
	c0,0-0.7,0-0.7-0.1c-1.8-0.3-1.7,0-3.3,0.1c-1.2,0.1-1.8,0.2-3.2,0.5c-1.2,0.5-2.9,1-3.4-0.5c-0.4-1.3-0.5-0.8-0.5-2.4
	c0-0.7-1.8-0.4-2.3-0.4c-0.3,0-6.1,0.7-6.4,0.8c-1,0.2-2.7,0.2-3.3,0.5c-3.9,1.7-1.3,0.3-3.7-1.1c-0.3-0.2-1.5-1.4-1.6-1.6
	c-0.4-1.8,1.7-3.3-0.4-4c-2.1-0.6-2.2,0.1-3.9,0.3c-1.5,0.1-0.3,1.8-0.3,2.2c0,0.7-4.6,1.6-5.3,1.7c-1.6,0.1-3,4-3.2,2.2
	c-0.3-2.1-0.4-1.3-0.9-2.6c-0.8-2.6-2.9-0.1-3.8-0.1c-0.1-0.5,0-1,0.2-1.5c0.9-1.7-0.9-1.2-2.2-1.2c-2-0.1-0.9-0.4-3.7,0.1
	c-0.3,4,0.1,2,1.9,2.2c0.2,0-0.1,1.6,0.1,2.1c0.2,0.4,0,4.1-0.2,4.5c-0.2,0.5,0.4,1.2-1,2.5c-1.4,1.3-1.6-4.6-2.6-3.7
	c-0.5,0.5,0.9,1.8-0.4,3.4c-0.5,0.6,0.1,3.1,1.4,2.7c2.5-0.7,1,2,1.9,3.1c1,1.2-1.3,1.8-0.2,3.8c0.1,0.2,1,0.7,1.5,1.4
	c0.7,1.1,1.8,1.7,0.5,2.9c-1.1,1-0.7,2.8-3,0.9c-1-0.8-1,1.7-1.6,2.1c-3.4,2-3.5-1.7-4.7,1.3c-0.1,0.4-1.7,2-1.9,2.3
	c-0.5,2.2,0.2,2.2,1,4.3c0.4,1.1,0,1.8,1.9,1.8c1.3,0,2.8-0.8,3.8-1.5c0.8-0.5,1.5-5.7,3.2-3.8c0.4,0.4,1.6,0.1,0.9,1.1
	c-0.6,0.7-1.8,3.7-2.5,4.9c-1.3,2.2-2.1,4.7-5.2,4.3c-0.4,0-2-1.5-2.1,0.2c0,0.6,0.9,2.1,1.3,2.5c0.6,0.8-1.5,1-2.3,1.9
	c-0.9,1.1-2.1,1.9-3.5,2.1c-0.8,0.1-0.6,0.7,1.1,0.7c1.1,0,3.5,1.5,0.3,1.9c-0.7,0.1-2.3,0.7-2.9,1.2c-1.1,0.8-2.5,0.2-4,0.8
	c-1.9,0.7-1.6-3.3-2.4-2.2c-0.4,0.5-3.9,0-4.5-0.4c-3-2.1-1.6,0.3-3.5,2.7c-1,1.2-2.4,0.3-2.9-1c-0.4-1-0.5,0-1.1,0
	c-0.5,0-2.2,0.5-2.2,1.2c0.1,1-2.5,0.5-3.2,0.5c-1,0-1.9-2-2.8-0.6c0,0.1-0.9,0.3-1.4,0.5c-0.1,0-0.4,0.2-0.5,0.3
	c-0.5,1-0.7,1.4-1,2.3c-0.4,1.1-1.3,0.4-2.2,1.3c-1.6,1.7-5.2-0.4-4.7,1.2c0.1,0.2,1.6,1.3,1.1,2.9
	C481.7,424.1,477.6,425.9,477.1,426.1z"/>
<path class="st4" d="M422.8,147.5c0-3.6-1.5-7-4-9.6c-2.6-2.5-6.1-4-9.7-4s-7.2,1.4-9.7,4c-2.6,2.5-4,6-4,9.6
	c0,5.6,4.5,12.8,13.8,21.5C418.3,160.3,422.8,153.1,422.8,147.5z"/>
<path class="st5" d="M409,154c1.7,0,3.3-0.7,4.5-1.8c1.2-1.2,1.9-2.7,1.9-4.4c0-1.6-0.7-3.2-1.9-4.4c-1.2-1.2-2.8-1.8-4.5-1.8
	c-1.7,0-3.3,0.7-4.5,1.8c-1.2,1.2-1.9,2.7-1.9,4.4c0,1.6,0.7,3.2,1.9,4.4C405.7,153.3,407.3,154,409,154z"/>
<ellipse class="st6" cx="409" cy="171.5" rx="8" ry="1.5"/>
<path class="st4" d="M338.3,258.5c0-3.6-1.5-7-4-9.6c-2.6-2.5-6.1-4-9.7-4s-7.2,1.4-9.7,4c-2.6,2.5-4,6-4,9.6
	c0,5.6,4.5,12.8,13.8,21.5C333.8,271.3,338.3,264.1,338.3,258.5z"/>
<path class="st5" d="M324.5,265c1.7,0,3.3-0.7,4.5-1.8c1.2-1.2,1.9-2.7,1.9-4.4c0-1.6-0.7-3.2-1.9-4.4c-1.2-1.2-2.8-1.8-4.5-1.8
	c-1.7,0-3.3,0.7-4.5,1.8c-1.2,1.2-1.9,2.7-1.9,4.4c0,1.6,0.7,3.2,1.9,4.4C321.2,264.3,322.8,265,324.5,265z"/>
<ellipse class="st6" cx="324.5" cy="282.5" rx="8" ry="1.5"/>
<path class="st4" d="M575.8,194.5c0-3.6-1.5-7-4-9.6c-2.6-2.5-6.1-4-9.7-4c-3.7,0-7.2,1.4-9.7,4c-2.6,2.5-4,6-4,9.6
	c0,5.6,4.5,12.8,13.8,21.5C571.3,207.3,575.8,200.1,575.8,194.5z"/>
<path class="st5" d="M562,201c1.7,0,3.3-0.7,4.5-1.8c1.2-1.2,1.9-2.7,1.9-4.4c0-1.6-0.7-3.2-1.9-4.4s-2.8-1.8-4.5-1.8
	c-1.7,0-3.3,0.7-4.5,1.8c-1.2,1.2-1.9,2.7-1.9,4.4c0,1.6,0.7,3.2,1.9,4.4C558.7,200.3,560.3,201,562,201z"/>
<ellipse class="st6" cx="562" cy="218.5" rx="8" ry="1.5"/>
<path class="st4" d="M608.8,311.9c0-3.6-1.5-7-4-9.6c-2.6-2.5-6.1-4-9.7-4c-3.7,0-7.2,1.4-9.7,4c-2.6,2.5-4,6-4,9.6
	c0,5.6,4.5,12.8,13.8,21.5C604.3,324.7,608.8,317.4,608.8,311.9z"/>
<path class="st5" d="M595,318.3c1.7,0,3.3-0.7,4.5-1.8c1.2-1.2,1.9-2.7,1.9-4.4c0-1.6-0.7-3.2-1.9-4.4c-1.2-1.2-2.8-1.8-4.5-1.8
	c-1.7,0-3.3,0.7-4.5,1.8c-1.2,1.2-1.9,2.7-1.9,4.4c0,1.6,0.7,3.2,1.9,4.4C591.7,317.7,593.3,318.3,595,318.3z"/>
<ellipse class="st6" cx="595" cy="335.8" rx="8" ry="1.5"/>
<path class="st4" d="M684.8,373.5c0-3.6-1.5-7-4-9.6c-2.6-2.5-6.1-4-9.7-4c-3.7,0-7.2,1.4-9.7,4c-2.6,2.5-4,6-4,9.6
	c0,5.6,4.5,12.8,13.8,21.5C680.3,386.3,684.8,379.1,684.8,373.5z"/>
<path class="st5" d="M671,380c1.7,0,3.3-0.7,4.5-1.8c1.2-1.2,1.9-2.7,1.9-4.4c0-1.6-0.7-3.2-1.9-4.4c-1.2-1.2-2.8-1.8-4.5-1.8
	c-1.7,0-3.3,0.7-4.5,1.8c-1.2,1.2-1.9,2.7-1.9,4.4c0,1.6,0.7,3.2,1.9,4.4C667.7,379.3,669.3,380,671,380z"/>
<ellipse class="st6" cx="671" cy="397.5" rx="8" ry="1.5"/>
<path class="st4" d="M584,410c0-3.6-1.5-7-4-9.6c-2.6-2.5-6.1-4-9.7-4s-7.2,1.4-9.7,4c-2.6,2.5-4,6-4,9.6c0,5.6,4.5,12.8,13.8,21.5
	C579.5,422.8,584,415.5,584,410z"/>
<path class="st5" d="M570.2,416.5c1.7,0,3.3-0.7,4.5-1.8c1.2-1.2,1.9-2.7,1.9-4.4c0-1.6-0.7-3.2-1.9-4.4c-1.2-1.2-2.8-1.8-4.5-1.8
	c-1.7,0-3.3,0.7-4.5,1.8c-1.2,1.2-1.9,2.7-1.9,4.4c0,1.6,0.7,3.2,1.9,4.4C566.9,415.8,568.5,416.5,570.2,416.5z"/>
<ellipse class="st6" cx="570.2" cy="434" rx="8" ry="1.5"/>
<path class="st4" d="M133.8,261c0-3.6-1.5-7-4-9.6c-2.6-2.5-6.1-4-9.7-4c-3.7,0-7.2,1.4-9.7,4c-2.6,2.5-4,6-4,9.6
	c0,5.6,4.5,12.8,13.8,21.5C129.3,273.8,133.8,266.6,133.8,261z"/>
<path class="st5" d="M120,267.5c1.7,0,3.3-0.7,4.5-1.8c1.2-1.2,1.9-2.7,1.9-4.4c0-1.6-0.7-3.2-1.9-4.4c-1.2-1.2-2.8-1.8-4.5-1.8
	c-1.7,0-3.3,0.7-4.5,1.8c-1.2,1.2-1.9,2.7-1.9,4.4c0,1.6,0.7,3.2,1.9,4.4C116.7,266.8,118.3,267.5,120,267.5z"/>
<ellipse class="st6" cx="120" cy="285" rx="8" ry="1.5"/>
</svg>
